<svg width="24" height="24" viewBox="0 0 24 24" fill="none" xmlns="http://www.w3.org/2000/svg">
<g clip-path="url(#clip0_15_6973)">
<path d="M6.78283 22.8093C8.36046 23.5721 10.1303 24 12.0002 24C13.8701 24 15.64 23.5721 17.2176 22.8093L18.2611 12L17.2176 1.19072C15.64 0.427875 13.8701 0 12.0002 0C10.1303 0 8.36046 0.427875 6.78283 1.19072L5.73935 12L6.78283 22.8093Z" fill="#FFDA44"/>
<path d="M17.2169 22.8091C21.2309 20.8682 23.9995 16.7577 23.9995 12.0003C23.9995 7.24278 21.2309 3.13231 17.2169 1.19141V22.8091Z" fill="#D80027"/>
<path d="M6.78232 22.8091V1.19141C2.76837 3.13231 -0.000305176 7.24273 -0.000305176 12.0003C-0.000305176 16.7578 2.76837 20.8682 6.78232 22.8091Z" fill="#0052B4"/>
<path d="M12 16.1734C12 14.2585 12 11.9995 12 11.9995H15.1304V13.5647C15.1304 13.8366 14.6087 14.833 13.3209 15.6517C12.8332 15.9618 12.3283 16.0616 12 16.1734Z" fill="#D80027"/>
<path d="M11.9998 8.8689H8.86932V11.9994H11.9998V8.8689Z" fill="#D80027"/>
<path d="M13.5654 7.8262C13.5654 7.24987 13.0982 6.78271 12.5219 6.78271C12.3316 6.78271 12.1537 6.83446 12.0002 6.92343C11.8465 6.83446 11.6687 6.78271 11.4784 6.78271C10.9022 6.78271 10.435 7.24987 10.435 7.8262H7.82626V13.0435C7.82626 14.9858 9.36873 16.1091 10.5783 16.6914C10.4878 16.846 10.435 17.0254 10.435 17.2175C10.435 17.7938 10.9022 18.261 11.4784 18.261C11.6687 18.261 11.8466 18.2093 12.0002 18.1203C12.1538 18.2093 12.3316 18.261 12.5219 18.261C13.0982 18.261 13.5654 17.7938 13.5654 17.2175C13.5654 17.0254 13.5125 16.846 13.4219 16.6914C14.6315 16.1091 16.174 14.9859 16.174 13.0435V7.8262H13.5654ZM14.6088 13.0435C14.6088 13.3155 14.6088 14.1428 13.3211 14.9616C12.8333 15.2717 12.3285 15.4728 12.0002 15.5846C11.6718 15.4728 11.167 15.2717 10.6792 14.9616C9.39147 14.1428 9.39147 13.3155 9.39147 13.0435V9.3914H14.6088V13.0435Z" fill="#FF9811"/>
</g>
<defs>
<clipPath id="clip0_15_6973">
<rect width="24" height="24" fill="white"/>
</clipPath>
</defs>
</svg>
