<svg width="24" height="24" viewBox="0 0 24 24" fill="none" xmlns="http://www.w3.org/2000/svg">
<g clip-path="url(#clip0_15_6968)">
<path d="M3.05176e-05 11.9993C3.05176e-05 12.8213 0.0829055 13.6239 0.240359 14.3994L12 15.1298L23.7597 14.3994C23.9172 13.6239 24 12.8213 24 11.9993C24 11.1774 23.9172 10.3748 23.7597 9.59935L12 8.8689L0.240359 9.59935C0.0829055 10.3748 3.05176e-05 11.1774 3.05176e-05 11.9993Z" fill="#0052B4"/>
<path d="M23.7595 14.3992H0.240082C1.35191 19.8765 6.19433 23.9992 11.9998 23.9992C17.8052 23.9992 22.6476 19.8765 23.7595 14.3992Z" fill="#F0F0F0"/>
<path d="M0.240082 9.6H23.7595C22.6476 4.12266 17.8053 0 11.9998 0C6.19424 0 1.35191 4.12266 0.240082 9.6Z" fill="black"/>
<path d="M17.2176 9.5995H6.78287L8.91474 8.59665L7.77948 6.53204L10.0944 6.97478L10.3878 4.63623L12.0002 6.35626L13.6127 4.63623L13.906 6.97478L16.221 6.53204L15.0858 8.59675L17.2176 9.5995Z" fill="#FFDA44"/>
<path d="M3.05176e-05 12.0007C3.05176e-05 18.6281 5.37266 24.0007 12 24.0007L2.39984 4.80029C0.893093 6.80603 3.05176e-05 9.29898 3.05176e-05 12.0007Z" fill="#A2001D"/>
<path d="M11.9996 23.9997C18.627 23.9997 23.9996 18.6271 23.9996 11.9997C23.9996 9.298 23.1066 6.80505 21.5998 4.79932L11.9996 23.9997Z" fill="#A2001D"/>
</g>
<defs>
<clipPath id="clip0_15_6968">
<rect width="24" height="24" fill="white"/>
</clipPath>
</defs>
</svg>
