<svg width="24" height="24" viewBox="0 0 24 24" fill="none" xmlns="http://www.w3.org/2000/svg">
<g clip-path="url(#clip0_15_6969)">
<path d="M24 12C24 18.6274 18.6274 24 12 24C5.37262 24 0 18.6274 0 12C0 12.0029 12 0.0013125 12 0C18.6274 0 24 5.37262 24 12Z" fill="#0052B4"/>
<path d="M11.9674 12.0004H11.9996C11.9996 11.9896 11.9996 11.9791 11.9996 11.9683C11.9889 11.979 11.9782 11.9897 11.9674 12.0004Z" fill="#F0F0F0"/>
<path d="M12 6.26086C12 4.14937 12 2.76586 12 0H11.998C5.37145 0.001125 0 5.37323 0 12H6.26086V8.47448L9.78637 12H11.9679C11.9786 11.9893 11.9893 11.9786 12 11.9679C12 11.1594 12 10.4381 12 9.78647L8.47443 6.26086H12Z" fill="#F0F0F0"/>
<path d="M6.07072 1.56519C4.1939 2.63389 2.63357 4.19417 1.56491 6.071V12H4.69536V4.69573V4.69564H11.9997C11.9997 3.70831 11.9997 2.76772 11.9997 1.56519H6.07072Z" fill="#D80027"/>
<path d="M11.9995 10.5249L7.736 6.26147H6.26038V6.26157L11.9994 12.0006H11.9995C11.9995 12.0006 11.9995 10.9831 11.9995 10.5249Z" fill="#D80027"/>
<path d="M20.2942 13.7574C20.6392 13.2826 20.8697 12.7029 20.8697 12.0008V6.78339C20.4337 7.11095 19.8918 7.30511 19.3045 7.30511C18.4511 7.30511 17.6935 6.89528 17.2175 6.26172C16.7416 6.89528 15.9839 7.30511 15.1306 7.30511C14.5432 7.30511 14.0014 7.11091 13.5654 6.78348V12.0008C13.5654 12.7029 13.7959 13.2826 14.1409 13.7574H20.2942Z" fill="#F3F3F3"/>
<path d="M19.2084 11.0321C19.3745 10.6269 19.5037 10.0345 19.5037 9.7397C19.5037 9.26603 18.8862 8.88208 18.8862 8.88208C18.8862 8.88208 18.2686 9.26603 18.2686 9.7397C18.2686 10.0345 18.3979 10.6269 18.5639 11.0321L18.2074 11.837C18.417 11.9222 18.646 11.9696 18.8862 11.9696C19.1265 11.9696 19.3554 11.9222 19.565 11.837L19.2084 11.0321Z" fill="#FF9811"/>
<path d="M16.7952 8.42672C16.3614 8.4855 15.7837 8.66995 15.5284 8.81733C15.1182 9.05419 15.0944 9.78089 15.0944 9.78089C15.0944 9.78089 15.7358 10.1237 16.1459 9.88687C16.4013 9.73945 16.8496 9.33145 17.1174 8.98495L17.9928 8.8912C17.9619 8.66723 17.8882 8.44519 17.7682 8.2372C17.648 8.02922 17.4926 7.85447 17.314 7.71558L16.7952 8.42672Z" fill="#FF9811"/>
<path d="M15.7446 11.8207C16.0124 12.167 16.4609 12.575 16.7162 12.7224C17.1265 12.9592 17.7678 12.6165 17.7678 12.6165C17.7678 12.6165 17.7438 11.8897 17.3337 11.6529C17.0783 11.5055 16.5008 11.3212 16.0668 11.2625L15.548 10.5513C15.3695 10.6901 15.214 10.865 15.0939 11.0728C14.9739 11.2808 14.9004 11.5028 14.8692 11.7269L15.7446 11.8207Z" fill="#FF9811"/>
<path d="M14.0114 13.5657C14.9858 15.1292 17.2171 15.6525 17.2171 15.6525C17.2171 15.6525 19.4484 15.1292 20.4229 13.5657H14.0114Z" fill="#338AF3"/>
</g>
<defs>
<clipPath id="clip0_15_6969">
<rect width="24" height="24" fill="white"/>
</clipPath>
</defs>
</svg>
