<svg width="24" height="24" viewBox="0 0 24 24" fill="none" xmlns="http://www.w3.org/2000/svg">
<g clip-path="url(#clip0_15_6972)">
<path d="M24.0001 12.0001C24.0001 10.5323 23.7361 9.12615 23.2537 7.82621L12.0001 7.30444L0.746513 7.82616C0.264169 9.12614 0.00012207 10.5323 0.00012207 12.0001C0.00012207 13.4679 0.264169 14.874 0.746513 16.174L12.0001 16.6957L23.2537 16.174C23.7361 14.874 24.0001 13.4679 24.0001 12.0001Z" fill="#0052B4"/>
<path d="M12.0001 23.9995C17.1596 23.9995 21.5582 20.743 23.2537 16.1733H0.74646C2.44198 20.743 6.84049 23.9995 12.0001 23.9995Z" fill="#FF9811"/>
<path d="M0.746338 7.82611H23.2536C21.558 3.2565 17.1595 0 11.9999 0C6.84037 0 2.44185 3.2565 0.746338 7.82611Z" fill="#D80027"/>
</g>
<defs>
<clipPath id="clip0_15_6972">
<rect width="24" height="24" fill="white"/>
</clipPath>
</defs>
</svg>
