<svg width="24" height="24" viewBox="0 0 24 24" fill="none" xmlns="http://www.w3.org/2000/svg">
<g clip-path="url(#clip0_15_6970)">
<path d="M0 12C0 5.37262 5.37262 0 12 0C18.6274 0 24 5.37262 24 12C23.4783 12 12 13.5652 12 13.5652L0 12Z" fill="#D80027"/>
<path d="M23.9998 12.0002C23.9998 18.6276 18.6272 24.0002 11.9998 24.0002C5.37244 24.0002 -0.000183105 18.6276 -0.000183105 12.0002" fill="black"/>
<path d="M10.354 9.54365L11.3713 10.2819L10.9836 11.4776L12.0001 10.7381L13.0175 11.4764L12.6283 10.2811L13.6448 9.54168L12.3878 9.54243L11.9986 8.34717L11.6109 9.54286L10.354 9.54365Z" fill="#FFDA44"/>
<path d="M14.9998 6.80332C14.0541 6.25736 13.0202 5.99969 11.9998 6.00147V7.56635C12.754 7.56499 13.5182 7.7553 14.2171 8.1589C16.3348 9.38158 17.063 12.0992 15.8403 14.2169C14.6177 16.3346 11.9001 17.0628 9.78233 15.8402C9.16536 15.484 8.66731 15.0003 8.30019 14.4422L6.9935 15.3048C7.49023 16.06 8.16505 16.7137 8.99975 17.1956C11.8649 18.8498 15.5417 17.8646 17.1958 14.9995C18.8501 12.1343 17.8649 8.45754 14.9998 6.80332Z" fill="#FFDA44"/>
<path d="M8.53956 10.9561C8.12472 11.7144 8.40325 12.6656 9.16159 13.0804L14.2451 15.8582C13.8994 16.4902 14.083 17.2593 14.715 17.605L16.0882 18.3562C16.7201 18.702 17.5128 18.4698 17.8585 17.8379L18.6097 16.4647L8.53956 10.9561Z" fill="#FFDA44"/>
</g>
<defs>
<clipPath id="clip0_15_6970">
<rect width="24" height="24" fill="white"/>
</clipPath>
</defs>
</svg>
