<svg width="24" height="24" viewBox="0 0 24 24" fill="none" xmlns="http://www.w3.org/2000/svg">
<g clip-path="url(#clip0_15_6980)">
<path d="M23.2541 16.173C23.7365 14.8731 24.0005 13.467 24.0005 11.9991C24.0005 10.5313 23.7365 9.12525 23.2541 7.82522L12.0005 6.78174L0.746848 7.82522C0.264505 9.12525 0.000457764 10.5313 0.000457764 11.9991C0.000457764 13.467 0.264505 14.8731 0.746848 16.173L12.0005 17.2165L23.2541 16.173Z" fill="#F0F0F0"/>
<path d="M12.0006 23.9996C17.1601 23.9996 21.5587 20.7431 23.2541 16.1735H0.746918C2.44248 20.7431 6.84095 23.9996 12.0006 23.9996Z" fill="#D80027"/>
<path d="M12.0002 0C6.84058 0 2.44211 3.2565 0.746552 7.82611H23.2538C21.5583 3.2565 17.1597 0 12.0002 0Z" fill="#D80027"/>
</g>
<defs>
<clipPath id="clip0_15_6980">
<rect width="24" height="24" fill="white"/>
</clipPath>
</defs>
</svg>
