<svg width="24" height="24" viewBox="0 0 24 24" fill="none" xmlns="http://www.w3.org/2000/svg">
<g clip-path="url(#clip0_15_6964)">
<path d="M24 12C24 18.6274 18.6274 24 12 24C5.37262 24 0 18.6274 0 12C0 12.0028 12 0.00135937 12 0C18.6274 0 24 5.37262 24 12Z" fill="#0052B4"/>
<path d="M11.9678 12.0004H11.9999C11.9999 11.9895 11.9999 11.9791 11.9999 11.9683C11.9892 11.979 11.9785 11.9897 11.9678 12.0004Z" fill="#F0F0F0"/>
<path d="M11.9997 6.26183C11.9997 4.15035 11.9997 2.76674 11.9997 0.000976562H11.9977C5.37125 0.00205469 -0.000244141 5.37416 -0.000244141 12.0009H6.26061V8.47537L9.78617 12.0009H11.9677C11.9784 11.9902 11.9891 11.9796 11.9998 11.9688C11.9998 11.1604 11.9998 10.439 11.9998 9.78744L8.47419 6.26183H11.9997Z" fill="#F0F0F0"/>
<path d="M6.07112 1.56567C4.19429 2.63438 2.63401 4.19466 1.56531 6.07149V12.0005H4.69576V4.69617V4.69613H12.0001C12.0001 3.7088 12.0001 2.76821 12.0001 1.56567H6.07112Z" fill="#D80027"/>
<path d="M12.0004 10.5249L7.73696 6.2615H6.26129C6.26129 6.26145 6.26129 6.2615 6.26129 6.2615L12.0003 12.0005H12.0004C12.0004 12.0005 12.0004 10.9831 12.0004 10.5249Z" fill="#D80027"/>
<path d="M7.23756 14.0864L7.89616 15.4635L9.38336 15.1198L8.71736 16.4933L9.91333 17.4417L8.42425 17.7774L8.42842 19.3038L7.23756 18.3488L6.04675 19.3038L6.05092 17.7774L4.5618 17.4417L5.75781 16.4933L5.09172 15.1198L6.57902 15.4635L7.23756 14.0864Z" fill="#F0F0F0"/>
<path d="M17.9671 16.6953L18.2964 17.3839L19.04 17.212L18.707 17.8987L19.305 18.373L18.5604 18.5408L18.5625 19.304L17.9671 18.8265L17.3717 19.304L17.3738 18.5408L16.6292 18.373L17.2272 17.8987L16.8942 17.212L17.6378 17.3839L17.9671 16.6953Z" fill="#F0F0F0"/>
<path d="M14.9034 9.39136L15.2327 10.08L15.9763 9.90801L15.6433 10.5948L16.2413 11.069L15.4968 11.2368L15.4988 12L14.9034 11.5225L14.308 12L14.31 11.2368L13.5655 11.069L14.1635 10.5948L13.8305 9.90801L14.5741 10.08L14.9034 9.39136Z" fill="#F0F0F0"/>
<path d="M17.9671 5.21753L18.2964 5.90612L19.04 5.73423L18.707 6.421L19.305 6.89519L18.5604 7.06305L18.5625 7.82627L17.9671 7.34875L17.3717 7.82627L17.3738 7.06305L16.6292 6.89519L17.2272 6.421L16.8942 5.73423L17.6378 5.90612L17.9671 5.21753Z" fill="#F0F0F0"/>
<path d="M20.6422 8.34766L20.9714 9.03625L21.7151 8.86431L21.3821 9.55108L21.9801 10.0253L21.2355 10.1932L21.2376 10.9563L20.6422 10.4789L20.0468 10.9563L20.0488 10.1932L19.3043 10.0253L19.9023 9.55108L19.5693 8.86431L20.3129 9.03625L20.6422 8.34766Z" fill="#F0F0F0"/>
<path d="M18.7292 12.0002L18.9882 12.7974H19.8264L19.1483 13.2901L19.4074 14.0872L18.7292 13.5946L18.0511 14.0872L18.3101 13.2901L17.632 12.7974H18.4702L18.7292 12.0002Z" fill="#F0F0F0"/>
</g>
<defs>
<clipPath id="clip0_15_6964">
<rect width="24" height="24" fill="white"/>
</clipPath>
</defs>
</svg>
