<svg width="24" height="24" viewBox="0 0 24 24" fill="none" xmlns="http://www.w3.org/2000/svg">
<g clip-path="url(#clip0_15_6966)">
<path d="M12 24C18.6274 24 24 18.6274 24 12C24 5.37258 18.6274 0 12 0C5.37258 0 0 5.37258 0 12C0 18.6274 5.37258 24 12 24Z" fill="#FFDA44"/>
<path d="M12 24.0003C15.6371 24.0003 18.896 22.382 21.0966 19.8264H2.90341C5.10405 22.382 8.36294 24.0003 12 24.0003Z" fill="#338AF3"/>
<path d="M24 12C24 5.37263 18.6274 0 12 0C5.37262 0 0 5.37263 0 12C0 13.0831 0.144375 14.1323 0.413391 15.1305H23.5867C23.8556 14.1323 24 13.0831 24 12Z" fill="#338AF3"/>
<path d="M0.953644 16.6963C1.18497 17.2399 1.45539 17.7626 1.76107 18.2615H22.2385C22.5442 17.7626 22.8146 17.2398 23.046 16.6963H0.953644Z" fill="#338AF3"/>
<path d="M5.49898 7.56916L3.15448 6.53445L5.49898 5.49973L6.53365 3.15527L7.56833 5.49973L9.91278 6.53445L7.56833 7.56916L6.53365 9.91362L5.49898 7.56916Z" fill="#F0F0F0"/>
<path d="M6.53372 4.44727L7.17267 5.89519L8.62064 6.53424L7.17267 7.17324L6.53372 8.62116L5.89467 7.17324L4.44675 6.53424L5.89467 5.89519L6.53372 4.44727Z" fill="#D80027"/>
</g>
<defs>
<clipPath id="clip0_15_6966">
<rect width="24" height="24" fill="white"/>
</clipPath>
</defs>
</svg>
