<svg width="24" height="24" viewBox="0 0 24 24" fill="none" xmlns="http://www.w3.org/2000/svg">
<g clip-path="url(#clip0_15_6946)">
<path d="M23.5864 15.13C23.8554 14.1318 23.9998 13.0827 23.9998 11.9995C23.9998 10.9164 23.8554 9.86721 23.5864 8.86906L10.9563 0.045166C8.61154 0.247197 6.45983 1.12329 4.69541 2.47896L0.413146 8.86906C0.144131 9.86721 -0.000244141 10.9164 -0.000244141 11.9995C-0.000244141 13.0763 0.142396 14.1197 0.408412 15.1126L4.69536 21.5201C6.45979 22.8757 8.61149 23.7519 10.9562 23.9539L23.5864 15.13Z" fill="#FFDA44"/>
<path d="M0.412933 15.1306C1.10725 17.7068 2.63748 19.9397 4.6952 21.5207V15.1306H0.412933Z" fill="#0052B4"/>
<path d="M10.9559 23.9545C11.2998 23.9841 11.6477 24.0002 11.9994 24.0002C17.5437 24.0002 22.209 20.2398 23.586 15.1306H10.9559V23.9545Z" fill="#0052B4"/>
<path d="M23.586 8.86955C22.209 3.76036 17.5437 0 11.9994 0C11.6477 0 11.2998 0.0160312 10.9559 0.0456562V8.86955H23.586Z" fill="#0052B4"/>
<path d="M4.6952 2.47974C2.63748 4.06083 1.10725 6.29363 0.412933 8.86983H4.6952V2.47974Z" fill="#0052B4"/>
<path d="M23.8987 10.4342H9.39163H9.39159V0.284668C8.28262 0.530574 7.23126 0.929152 6.26113 1.45851V10.4342H0.101853C0.0350559 10.9466 0.000274658 11.4689 0.000274658 11.9994C0.000274658 12.5299 0.0350559 13.0523 0.101853 13.5646H6.26109H6.26113V22.5403C7.23126 23.0696 8.28262 23.4683 9.39159 23.7142V13.5648V13.5647H23.8987C23.9654 13.0523 24.0003 12.5299 24.0003 11.9994C24.0003 11.4689 23.9654 10.9466 23.8987 10.4342Z" fill="#D80027"/>
</g>
<defs>
<clipPath id="clip0_15_6946">
<rect width="24" height="24" fill="white"/>
</clipPath>
</defs>
</svg>
