<svg width="24" height="24" viewBox="0 0 24 24" fill="none" xmlns="http://www.w3.org/2000/svg">
<g clip-path="url(#clip0_15_6977)">
<path d="M23.9996 12.0001C23.9996 10.5323 23.7356 9.12615 23.2532 7.82621L11.9996 7.30444L0.745994 7.82616C0.26365 9.12614 -0.000396729 10.5323 -0.000396729 12.0001C-0.000396729 13.4679 0.26365 14.874 0.745994 16.174L11.9996 16.6957L23.2532 16.174C23.7356 14.874 23.9996 13.4679 23.9996 12.0001Z" fill="#D80027"/>
<path d="M12.0003 23.9996C17.1599 23.9996 21.5584 20.7431 23.254 16.1735H0.746735C2.44225 20.7431 6.84077 23.9996 12.0003 23.9996Z" fill="#6DA544"/>
<path d="M0.746735 7.82513H23.254C21.5584 3.25552 17.1599 -0.000976562 12.0003 -0.000976562C6.84077 -0.000976562 2.44225 3.25552 0.746735 7.82513Z" fill="#338AF3"/>
<path d="M12.2605 15.3911C10.3876 15.3911 8.86921 13.8727 8.86921 11.9997C8.86921 10.1268 10.3876 8.60843 12.2605 8.60843C12.8445 8.60843 13.394 8.75609 13.8737 9.01606C13.1211 8.28007 12.0919 7.82581 10.9562 7.82581C8.65096 7.82581 6.78229 9.69452 6.78229 11.9997C6.78229 14.3049 8.651 16.1736 10.9562 16.1736C12.092 16.1736 13.1211 15.7193 13.8737 14.9833C13.394 15.2434 12.8445 15.3911 12.2605 15.3911Z" fill="#F0F0F0"/>
<path d="M14.8695 9.65076L15.3187 10.9141L16.5297 10.3384L15.954 11.5493L17.2173 11.9986L15.954 12.4478L16.5297 13.6588L15.3187 13.0831L14.8695 14.3464L14.4203 13.0831L13.2093 13.6588L13.785 12.4478L12.5217 11.9986L13.785 11.5493L13.2093 10.3384L14.4203 10.9141L14.8695 9.65076Z" fill="#F0F0F0"/>
</g>
<defs>
<clipPath id="clip0_15_6977">
<rect width="24" height="24" fill="white"/>
</clipPath>
</defs>
</svg>
