<svg width="24" height="24" viewBox="0 0 24 24" fill="none" xmlns="http://www.w3.org/2000/svg">
<g clip-path="url(#clip0_15_6940)">
<path d="M12 24C18.6274 24 24 18.6274 24 12C24 5.37258 18.6274 0 12 0C5.37258 0 0 5.37258 0 12C0 18.6274 5.37258 24 12 24Z" fill="#F0F0F0"/>
<path d="M11.9995 -0.000732422C7.74465 -0.000732422 4.00731 2.21378 1.87656 5.55297L18.1496 22.3047C21.6532 20.2093 23.9995 16.3785 23.9995 11.9993C23.9995 5.37189 18.6269 -0.000732422 11.9995 -0.000732422Z" fill="#FFDA44"/>
<path d="M24.0001 11.9991C24.0001 8.88554 22.8143 6.04922 20.8697 3.9165V20.0817C22.8143 17.9489 24.0001 15.1126 24.0001 11.9991Z" fill="#0052B4"/>
<path d="M14.9905 22.587L16.2474 22.5862L16.6352 21.3904L17.0243 22.5857L17.6548 22.5853C18.0414 22.3784 18.4153 22.1509 18.7751 21.9043L2.09516 5.22437C1.82029 5.62543 1.5696 6.04421 1.34418 6.47827L1.4924 6.93352L2.74935 6.93272L1.73291 7.67218L2.12207 8.86744L1.10469 8.12926L0.497897 8.57063C0.174413 9.65701 0.000366211 10.8077 0.000366211 11.9992C0.000366211 18.6265 5.37299 23.9992 12.0004 23.9992C13.4016 23.9992 14.7464 23.7586 15.9965 23.317L14.9905 22.587ZM2.67688 11.4774L3.06454 10.2818L2.04726 9.54348L3.30421 9.54268L3.69191 8.34694L4.08107 9.54221L5.33802 9.54141L4.32154 10.2809L4.71069 11.4761L3.69332 10.7379L2.67688 11.4774ZM5.26555 14.0861L5.65321 12.8904L4.63593 12.1522L5.89288 12.1514L6.28058 10.9556L6.66974 12.1509L7.92669 12.1501L6.91026 12.8896L7.29941 14.0848L6.28204 13.3466L5.26555 14.0861ZM7.85418 16.6948L8.24183 15.4991L7.22455 14.7608L8.48151 14.7601L8.86921 13.5643L9.25837 14.7596L10.5153 14.7588L9.49888 15.4982L9.88804 16.6935L8.87066 15.9552L7.85418 16.6948ZM11.4593 18.5641L10.4428 19.3035L10.8305 18.1078L9.81318 17.3695L11.0701 17.3687L11.4579 16.173L11.847 17.3683L13.104 17.3675L12.0876 18.1069L12.4767 19.3022L11.4593 18.5641ZM13.0315 21.9122L13.4191 20.7165L12.4018 19.9782L13.6588 19.9774L14.0465 18.7817L14.4357 19.977L15.6926 19.9762L14.6762 20.7156L15.0653 21.9109L14.048 21.1726L13.0315 21.9122Z" fill="#0052B4"/>
</g>
<defs>
<clipPath id="clip0_15_6940">
<rect width="24" height="24" fill="white"/>
</clipPath>
</defs>
</svg>
