<svg width="24" height="24" viewBox="0 0 24 24" fill="none" xmlns="http://www.w3.org/2000/svg">
<g clip-path="url(#clip0_15_6965)">
<path d="M17.2172 1.19084C15.6396 0.427997 13.8697 0.00012207 11.9998 0.00012207C10.13 0.00012207 8.36009 0.427997 6.78247 1.19084L5.73898 12.0001L6.78247 22.8094C8.36009 23.5722 10.13 24.0001 11.9998 24.0001C13.8697 24.0001 15.6396 23.5722 17.2172 22.8094L18.2607 12.0001L17.2172 1.19084Z" fill="#FFDA44"/>
<path d="M6.78275 1.19128C2.76884 3.13219 0.00012207 7.24261 0.00012207 12.0001C0.00012207 16.7577 2.76884 20.8681 6.78275 22.809V1.19128Z" fill="#0052B4"/>
<path d="M17.2177 1.19165V22.8094C21.2316 20.8685 24.0003 16.758 24.0003 12.0005C24.0003 7.24303 21.2316 3.13256 17.2177 1.19165Z" fill="#0052B4"/>
<path d="M15.6522 7.30337L16.3522 7.65334L15.6522 7.30337L14.9522 6.9534C14.91 7.03783 13.996 8.8975 13.8467 11.7382H12.7827V7.30337L12 6.25989L11.2174 7.30337V11.7382H10.1534C10.0041 8.8975 9.09009 7.03783 9.04786 6.9534L7.64789 7.65339C7.65754 7.67261 8.60878 9.60878 8.60878 12.5208V13.3034H11.2175V17.7382H12.7827V13.3034H15.3914V12.5207C15.3914 11.0152 15.6518 9.77378 15.8704 8.99744C16.1087 8.15087 16.3507 7.65648 16.3531 7.65156L15.6522 7.30337Z" fill="black"/>
</g>
<defs>
<clipPath id="clip0_15_6965">
<rect width="24" height="24" fill="white"/>
</clipPath>
</defs>
</svg>
