<svg width="24" height="24" viewBox="0 0 24 24" fill="none" xmlns="http://www.w3.org/2000/svg">
<g clip-path="url(#clip0_15_6866)">
<path d="M24 12.0006C24 10.5327 23.736 9.12663 23.2536 7.8267L12 7.30493L0.746421 7.82665C0.264077 9.12663 3.05176e-05 10.5327 3.05176e-05 12.0006C3.05176e-05 13.4684 0.264077 14.8745 0.746421 16.1745L12 16.6962L23.2536 16.1745C23.736 14.8745 24 13.4684 24 12.0006Z" fill="#496E2D"/>
<path d="M11.9999 23.9999C17.1595 23.9999 21.558 20.7434 23.2535 16.1738H0.746307C2.44182 20.7434 6.84034 23.9999 11.9999 23.9999Z" fill="#D80027"/>
<path d="M0.746307 7.82538H23.2536C21.558 3.25577 17.1595 -0.000732422 11.9999 -0.000732422C6.84034 -0.000732422 2.44182 3.25577 0.746307 7.82538Z" fill="#F0F0F0"/>
</g>
<defs>
<clipPath id="clip0_15_6866">
<rect width="24" height="24" fill="white"/>
</clipPath>
</defs>
</svg>
