<svg width="24" height="24" viewBox="0 0 24 24" fill="none" xmlns="http://www.w3.org/2000/svg">
<g clip-path="url(#clip0_15_6942)">
<path d="M12 24C18.6274 24 24 18.6274 24 12C24 5.37258 18.6274 0 12 0C5.37258 0 0 5.37258 0 12C0 18.6274 5.37258 24 12 24Z" fill="#F0F0F0"/>
<path d="M21.4264 9.65236H17.4786C17.4786 8.932 16.8946 8.34802 16.1743 8.34802L15.1308 10.435C15.1308 10.435 16.2439 13.5654 16.2091 13.5654H17.5134C18.2338 13.5654 18.8177 12.9815 18.8177 12.2611C19.5381 12.2611 20.1221 11.6771 20.1221 10.9567H20.0786C20.799 10.9567 21.4264 10.3728 21.4264 9.65236Z" fill="#ACABB1"/>
<path d="M2.57416 9.65224H6.52197C6.52197 8.93188 7.10595 8.3479 7.82631 8.3479L8.86981 10.4348C8.86981 10.4348 7.75674 13.5653 7.79155 13.5653H6.48721C5.76681 13.5653 5.18288 12.9814 5.18288 12.261C4.46247 12.261 3.87854 11.677 3.87854 10.9566H3.92198C3.20158 10.9566 2.57416 10.3726 2.57416 9.65224Z" fill="#ACABB1"/>
<path d="M16.1737 16.6957V17.2174H7.82584V16.6957H5.73889V18.7826H7.82584V19.3043H16.1737V18.7826H18.2606V16.6957H16.1737Z" fill="#FFDA44"/>
<path d="M7.82587 8.34851V13.5659C7.82587 16.7608 11.9998 17.7398 11.9998 17.7398C11.9998 17.7398 16.1736 16.7608 16.1736 13.5659V8.34851L11.9998 7.82678L7.82587 8.34851Z" fill="#0052B4"/>
<path d="M16.1736 10.4342H7.82587V13.5646H16.1736V10.4342Z" fill="#D80027"/>
<path d="M14.0867 5.73881V6.52142L13.565 6.78231L13.0433 6.26054V4.69531H10.9563V6.26054L10.4346 6.78231L9.91281 6.52142V5.73881H7.82587V8.34748H16.1737V5.73881H14.0867Z" fill="#FFDA44"/>
</g>
<defs>
<clipPath id="clip0_15_6942">
<rect width="24" height="24" fill="white"/>
</clipPath>
</defs>
</svg>
