<svg width="24" height="24" viewBox="0 0 24 24" fill="none" xmlns="http://www.w3.org/2000/svg">
<g clip-path="url(#clip0_15_6958)">
<path d="M24 12C24 18.6274 18.6274 24 12 24C5.37262 24 0 18.6274 0 12C0 12.0029 12 0.0013125 12 0C18.6274 0 24 5.37262 24 12Z" fill="#D80027"/>
<path d="M11.9998 5.73889V9.78622L7.82596 5.73889H11.9998Z" fill="#0052B4"/>
<path d="M6.26076 11.9996H9.78628L6.26076 7.30396L5.73904 10.9561L6.26076 11.9996Z" fill="#0052B4"/>
<path d="M11.9683 12.0012H12.0005C12.0005 11.9904 12.0005 11.9798 12.0005 11.969C11.9898 11.9797 11.9791 11.9905 11.9683 12.0012Z" fill="#F0F0F0"/>
<path d="M11.9991 6.26135C11.9991 4.14986 11.9991 2.76635 11.9991 0.000488281H11.9971C5.37054 0.00161328 -0.000915527 5.37372 -0.000915527 12.0005H6.25994V8.47497L9.78546 12.0005H11.967C11.9777 11.9898 11.9884 11.9791 11.9991 11.9684C11.9991 11.1599 11.9991 10.4386 11.9991 9.78696L8.47352 6.26135H11.9991Z" fill="#F0F0F0"/>
<path d="M6.0706 1.56519C4.19377 2.63389 2.63345 4.19417 1.56479 6.071V12.5217H4.69524V4.69573V4.69564H12.5213C12.5213 3.70831 12.5213 2.76772 12.5213 1.56519H6.0706Z" fill="#D80027"/>
<path d="M12.4764 11.0002L7.73579 6.25977H6.26016V6.25986L12.4762 12.4759H12.4763C12.4764 12.476 12.4764 11.4584 12.4764 11.0002Z" fill="#D80027"/>
<path d="M13.5652 6.25989V11.999C13.5652 14.7946 20.8696 14.7946 20.8696 11.999V6.25989H13.5652Z" fill="#F3F3F3"/>
<path d="M13.5652 12.0005V12.0005C13.5652 14.7961 17.2174 15.6527 17.2174 15.6527C17.2174 15.6527 20.8696 14.7961 20.8696 12.0005V12.0005H13.5652Z" fill="#6DA544"/>
<path d="M17.2175 9.70447L15.5218 10.4349V12.0001L17.2175 13.0436L18.9131 12.0001V10.4349L17.2175 9.70447Z" fill="#A2001D"/>
<path d="M18.9131 8.86865H15.5218V10.4339H18.9131V8.86865Z" fill="#338AF3"/>
</g>
<defs>
<clipPath id="clip0_15_6958">
<rect width="24" height="24" fill="white"/>
</clipPath>
</defs>
</svg>
