<svg width="24" height="24" viewBox="0 0 24 24" fill="none" xmlns="http://www.w3.org/2000/svg">
<g clip-path="url(#clip0_15_6871)">
<path d="M12.0004 23.9977C18.6269 23.9977 23.9987 18.6259 23.9987 11.9995C23.9987 5.37302 18.6269 0.0012207 12.0004 0.0012207C5.37399 0.0012207 0.00219727 5.37302 0.00219727 11.9995C0.00219727 18.6259 5.37399 23.9977 12.0004 23.9977Z" fill="#F0F0F0"/>
<path d="M1.60952 6.00122C1.06796 6.93912 0.668487 7.91967 0.402466 8.91846L20.4681 20.5034C21.2001 19.7736 21.8496 18.9373 22.391 17.9995L1.60952 6.00122Z" fill="black"/>
<path d="M17.9988 1.6092C13.1979 -1.16253 7.27843 -0.238742 3.53177 3.4969L23.5974 15.0818C24.9593 9.9694 22.7995 4.38098 17.9988 1.6092Z" fill="#FFDA44"/>
<path d="M6.00067 22.3899C10.8014 25.1617 16.7211 24.2379 20.4676 20.5023L0.40194 8.91724C-0.959855 14.0298 1.19982 19.6182 6.00067 22.3899Z" fill="#FFDA44"/>
<path d="M15.3909 10.6963C15.3909 12.5689 13.8728 14.0871 12.0001 14.0871C10.1274 14.0871 8.60925 12.5689 8.60925 10.6963C8.60925 10.1124 8.75687 9.56293 9.01684 9.08325C8.28103 9.83575 7.82675 10.8648 7.82675 12.0004C7.82675 14.3052 9.69518 16.1737 12.0001 16.1737C14.305 16.1737 16.1734 14.3053 16.1734 12.0004C16.1734 10.8648 15.7192 9.83575 14.9833 9.08325C15.2433 9.56303 15.3909 10.1124 15.3909 10.6963Z" fill="#D80027"/>
<path d="M12.7828 6.78345H11.2178V14.6084H12.7828V6.78345Z" fill="#D80027"/>
<path d="M14.6081 8.34814H9.39148C9.39148 8.70829 9.70522 9.00024 10.0653 9.00024H10.0436C10.0436 9.36038 10.3356 9.65233 10.6957 9.65233C10.6957 10.0125 10.9877 10.3044 11.3478 10.3044H12.6519C13.012 10.3044 13.304 10.0125 13.304 9.65233C13.6641 9.65233 13.9561 9.36038 13.9561 9.00024H13.9344C14.2944 9.00019 14.6081 8.70834 14.6081 8.34814Z" fill="#D80027"/>
<path d="M15.6521 15.1299H8.34879V16.6949H15.6521V15.1299Z" fill="#D80027"/>
<path d="M16.6947 15.6509H13.5648V17.2159H16.6947V15.6509Z" fill="#D80027"/>
<path d="M10.435 15.6509H7.30502V17.2159H10.435V15.6509Z" fill="#D80027"/>
</g>
<defs>
<clipPath id="clip0_15_6871">
<rect width="24" height="24" fill="white"/>
</clipPath>
</defs>
</svg>
