<svg width="24" height="24" viewBox="0 0 24 24" fill="none" xmlns="http://www.w3.org/2000/svg">
<g clip-path="url(#clip0_15_6761)">
<path d="M5.23688 21.9129C7.16278 23.2294 9.49139 23.9998 12.0003 23.9998C14.5093 23.9998 16.8379 23.2294 18.7638 21.9129L12.0003 20.8694L5.23688 21.9129Z" fill="#D80027"/>
<path d="M18.7638 2.08697C16.8379 0.770484 14.5093 0 12.0003 0C9.49139 0 7.16269 0.770484 5.23688 2.08697L12.0003 3.13045L18.7638 2.08697Z" fill="#D80027"/>
<path d="M5.23688 21.9129C7.16278 23.2294 9.49139 23.9998 12.0003 23.9998C14.5093 23.9998 16.8379 23.2294 18.7638 21.9129L12.0003 20.8694L5.23688 21.9129Z" fill="#D80027"/>
<path d="M18.7638 2.08697C16.8379 0.770484 14.5093 0 12.0003 0C9.49139 0 7.16269 0.770484 5.23688 2.08697L12.0003 3.13045L18.7638 2.08697Z" fill="#D80027"/>
<path d="M23.9703 11.2164C23.686 7.5128 21.4357 3.91205 18.7643 2.08594H5.23739C2.27789 4.10911 0.270375 7.42261 0.026062 11.2164L12.0008 11.999L23.9703 11.2164Z" fill="#0052B4"/>
<path d="M0.0250854 12.7821C0.269398 16.576 2.27687 19.8894 5.23637 21.9126H18.7633C21.7229 19.8895 23.7303 16.576 23.9746 12.7821L11.9999 11.9995L0.0250854 12.7821Z" fill="#0052B4"/>
<path d="M23.9695 11.2173H12.7827V1.56519H11.2175V11.2173H0.0253267C0.00868603 11.4761 6.10352e-05 11.737 6.10352e-05 12C6.10352e-05 12.2629 0.00863916 12.5238 0.0252798 12.7826H11.2175V22.4348H12.7827V12.7826H23.9749C23.9915 12.5238 24.0001 12.2629 24.0001 12C24.0001 11.7389 23.9895 11.4779 23.9695 11.2173Z" fill="#D80027"/>
<path d="M4.69586 11.9992L12.0002 7.4082L19.3045 11.9992L12.0002 16.5903L4.69586 11.9992Z" fill="#F0F0F0"/>
<path d="M7.82593 14.0872H17.2172L15.1303 10.9568L14.0868 12.0003L13.0433 11.4786L11.9998 13.0438H9.91285L8.86937 12.0003L7.82593 14.0872Z" fill="#6DA544"/>
<path d="M12.0003 8.8689L12.2593 9.66601H13.0974L12.4194 10.1587L12.6784 10.9559L12.0003 10.4632L11.3222 10.9559L11.5812 10.1587L10.9032 9.66601H11.7413L12.0003 8.8689Z" fill="#FFDA44"/>
<path d="M12.0002 6.09668L2.60895 11.9995L12.0002 17.9022L21.3916 11.9995L12.0002 6.09668ZM5.55026 11.9995L12.0002 7.94538L18.4503 11.9995L12.0002 16.0535L5.55026 11.9995Z" fill="#D80027"/>
</g>
<defs>
<clipPath id="clip0_15_6761">
<rect width="24" height="24" fill="white"/>
</clipPath>
</defs>
</svg>
