<svg width="24" height="24" viewBox="0 0 24 24" fill="none" xmlns="http://www.w3.org/2000/svg">
<g clip-path="url(#clip0_15_6943)">
<path d="M12 24C18.6274 24 24 18.6274 24 12C24 5.37258 18.6274 0 12 0C5.37258 0 0 5.37258 0 12C0 18.6274 5.37258 24 12 24Z" fill="#F0F0F0"/>
<path d="M3.51494 3.51432C0.943141 6.08612 -0.216875 9.5349 0.0340473 12.898L12.8986 0.0334789C9.53547 -0.21749 6.08674 0.942526 3.51494 3.51432Z" fill="#FFDA44"/>
<path d="M4.28491 21.1899C8.99965 25.1566 16.0477 24.922 20.4854 20.4844C24.923 16.0467 25.1576 8.99862 21.1909 4.28394L4.28491 21.1899Z" fill="#0052B4"/>
<path d="M11.9569 11.5167L12.991 10.9565L11.9569 10.3964C11.7155 8.82788 10.4762 7.58855 8.90771 7.34714L8.34751 6.31299L7.78735 7.3471C6.21892 7.5885 4.97963 8.82783 4.73813 10.3963L3.70398 10.9565L4.73809 11.5167C4.97954 13.0852 6.21882 14.3245 7.7873 14.5659L8.34751 15.6001L8.90766 14.5659C10.4762 14.3245 11.7155 13.0852 11.9569 11.5167ZM8.34755 13.0435C7.19495 13.0435 6.26059 12.1092 6.26059 10.9565C6.26059 9.80386 7.1949 8.86955 8.34755 8.86955C9.50021 8.86955 10.4345 9.80386 10.4345 10.9565C10.4345 12.1092 9.50016 13.0435 8.34755 13.0435Z" fill="black"/>
<path d="M8.34773 9.39087L8.79956 10.1734H9.70326L9.25139 10.9561L9.70326 11.7387H8.79956L8.34773 12.5213L7.8959 11.7387H6.99225L7.44408 10.9561L6.99225 10.1734H7.8959L8.34773 9.39087Z" fill="#D80027"/>
</g>
<defs>
<clipPath id="clip0_15_6943">
<rect width="24" height="24" fill="white"/>
</clipPath>
</defs>
</svg>
