<svg width="24" height="24" viewBox="0 0 24 24" fill="none" xmlns="http://www.w3.org/2000/svg">
<g clip-path="url(#clip0_15_6934)">
<path d="M12 24C18.6274 24 24 18.6274 24 12C24 5.37258 18.6274 0 12 0C5.37258 0 0 5.37258 0 12C0 18.6274 5.37258 24 12 24Z" fill="#6DA544"/>
<path d="M12.0004 4.69604L21.9134 12.0004L12.0004 19.3047L2.08734 12.0004L12.0004 4.69604Z" fill="#FFDA44"/>
<path d="M12.0001 16.1737C14.3053 16.1737 16.174 14.305 16.174 11.9998C16.174 9.69464 14.3053 7.82593 12.0001 7.82593C9.69495 7.82593 7.82623 9.69464 7.82623 11.9998C7.82623 14.305 9.69495 16.1737 12.0001 16.1737Z" fill="#F0F0F0"/>
<path d="M9.91318 11.7395C9.18737 11.7395 8.48692 11.8499 7.82758 12.0547C7.85678 14.3347 9.71321 16.1743 12.0002 16.1743C13.4143 16.1743 14.6632 15.4704 15.4182 14.3945C14.1265 12.7775 12.1389 11.7395 9.91318 11.7395Z" fill="#0052B4"/>
<path d="M16.0966 12.7998C16.1468 12.5408 16.174 12.2737 16.174 12.0001C16.174 9.69485 14.3053 7.82617 12.0001 7.82617C10.2801 7.82617 8.80349 8.86684 8.16449 10.3527C8.72933 10.2356 9.31414 10.174 9.91316 10.174C12.3374 10.174 14.5305 11.1817 16.0966 12.7998Z" fill="#0052B4"/>
</g>
<defs>
<clipPath id="clip0_15_6934">
<rect width="24" height="24" fill="white"/>
</clipPath>
</defs>
</svg>
