<svg width="24" height="24" viewBox="0 0 24 24" fill="none" xmlns="http://www.w3.org/2000/svg">
<g clip-path="url(#clip0_15_6957)">
<path d="M3.51422 20.4854C-1.17206 15.7991 -1.17206 8.20118 3.51422 3.51485C8.2005 -1.17148 15.7985 -1.17143 20.4848 3.51485C20.4848 3.51649 23.6708 14.2988 18.9845 18.9851C14.2983 23.6715 3.5175 20.4887 3.51422 20.4854Z" fill="#FFDA44"/>
<path d="M3.51468 20.4846C8.20096 25.1709 15.799 25.1709 20.4853 20.4846C25.1716 15.7983 25.1716 8.20036 20.4853 3.51404L3.51468 20.4846Z" fill="#FF9811"/>
<path d="M18.7886 6.78192V4.69495H14.7884L14.4828 5.00052C13.3958 6.08751 13.5787 7.35557 13.7122 8.28145C13.836 9.14034 13.8508 9.46935 13.5314 9.78881C13.212 10.1082 12.8829 10.0934 12.0241 9.96946C11.0982 9.83601 9.83023 9.65315 8.74324 10.7401C7.65631 11.827 7.83926 13.095 7.97285 14.0208C8.09674 14.8796 8.11165 15.2086 7.79234 15.5279C7.47298 15.8472 7.14387 15.8323 6.28526 15.7084C5.95048 15.6601 5.60431 15.6102 5.23474 15.6061L5.21182 17.693C5.4431 17.6955 5.70743 17.7336 5.98728 17.774C6.31859 17.8219 6.69359 17.876 7.08856 17.876C7.49787 17.876 7.92846 17.8176 8.35371 17.634V19.3037H11.4842V17.7385H9.91896V16.695H10.9624V15.1298H10.1284C10.168 14.6235 10.0984 14.1386 10.0384 13.7229C9.91456 12.8641 9.89965 12.5351 10.219 12.2159C10.5384 11.8965 10.8673 11.9113 11.7263 12.0351C12.4009 12.1324 13.2573 12.2553 14.0929 11.8946V13.5646H17.2234V11.9994H15.6582V10.9559H16.7016V9.3907H15.8677C15.9073 8.88431 15.8378 8.39948 15.7778 7.98365C15.6913 7.3836 15.6579 7.04217 15.7547 6.78196H18.7886V6.78192Z" fill="#F0F0F0"/>
</g>
<defs>
<clipPath id="clip0_15_6957">
<rect width="24" height="24" fill="white"/>
</clipPath>
</defs>
</svg>
