<svg width="24" height="24" viewBox="0 0 24 24" fill="none" xmlns="http://www.w3.org/2000/svg">
<g clip-path="url(#clip0_15_6937)">
<path d="M0.567052 8.34765C0.199458 9.49932 0.000380379 10.7262 0.000427254 11.9998C0.000380379 13.2734 0.199459 14.5003 0.567099 15.652L12.0004 16.1738L23.4337 15.652C23.8013 14.5003 24.0004 13.2733 24.0004 11.9999C24.0004 10.7263 23.8013 9.49932 23.4337 8.34765L12.0004 7.82593L0.567052 8.34765Z" fill="#F0F0F0"/>
<path d="M24.0003 12.0006C24.0003 11.2887 23.938 10.5914 23.8191 9.91357H0.181648C0.0626794 10.5914 0.000335693 11.2886 0.000335693 12.0005C0.000335693 12.7125 0.0627263 13.4097 0.181648 14.0875H23.8191C23.9379 13.4096 24.0003 12.7124 24.0003 12.0006Z" fill="black"/>
<path d="M11.9999 23.9995C17.3537 23.9995 21.888 20.4931 23.4331 15.6516H0.566528C2.11176 20.493 6.64603 23.9994 11.9999 23.9995Z" fill="#338AF3"/>
<path d="M12.0004 -0.00073242C6.64653 -0.00073242 2.11231 3.50566 0.566986 8.347L23.4335 8.34705C21.8884 3.50566 17.3541 -0.00082617 12.0004 -0.00073242Z" fill="#338AF3"/>
</g>
<defs>
<clipPath id="clip0_15_6937">
<rect width="24" height="24" fill="white"/>
</clipPath>
</defs>
</svg>
