<svg width="24" height="24" viewBox="0 0 24 24" fill="none" xmlns="http://www.w3.org/2000/svg">
<g clip-path="url(#clip0_15_6963)">
<path d="M12 24C18.6274 24 24 18.6274 24 12C24 5.37258 18.6274 0 12 0C5.37258 0 0 5.37258 0 12C0 18.6274 5.37258 24 12 24Z" fill="#FCFCFC"/>
<path d="M4.95669 11.1289L3.65234 8.76249L4.95669 6.43323L6.26103 8.76249L4.95669 11.1289Z" fill="#A2001D"/>
<path d="M2.34777 11.1289L1.04343 8.76249L2.34777 6.43323L3.65211 8.76249L2.34777 11.1289Z" fill="#A2001D"/>
<path d="M4.95669 17.5643L3.65234 15.1979L4.95669 12.8687L6.26103 15.1979L4.95669 17.5643Z" fill="#A2001D"/>
<path d="M2.34777 17.5643L1.04343 15.1979L2.34777 12.8687L3.65211 15.1979L2.34777 17.5643Z" fill="#A2001D"/>
<path d="M6.26053 2.32875L5.89125 1.66931C5.2289 2.06175 4.60767 2.51611 4.03528 3.02442L4.95619 4.69509L6.26053 2.32875Z" fill="#A2001D"/>
<path d="M4.95617 19.3042L4.02551 20.9662C4.59739 21.4752 5.2182 21.9302 5.88026 22.3235L6.26056 21.6335L4.95617 19.3042Z" fill="#A2001D"/>
<path d="M7.3042 15.1306V23.0461C8.7465 23.66 10.3334 24.0002 11.9999 24.0002C17.1594 24.0002 21.5579 20.7437 23.2535 16.1741L7.3042 15.1306Z" fill="#6DA544"/>
<path d="M23.2535 16.174C23.7359 14.874 23.9999 13.468 23.9999 12.0001C23.9999 5.37275 18.6272 0.00012207 11.9999 0.00012207C10.3335 0.00012207 8.7465 0.340106 7.3042 0.953935V16.1741H23.2535V16.174Z" fill="#A2001D"/>
</g>
<defs>
<clipPath id="clip0_15_6963">
<rect width="24" height="24" fill="white"/>
</clipPath>
</defs>
</svg>
