<svg width="24" height="24" viewBox="0 0 24 24" fill="none" xmlns="http://www.w3.org/2000/svg">
<g clip-path="url(#clip0_15_6976)">
<path d="M23.9996 12C23.9996 7.8815 21.9245 4.24808 18.7631 2.08695L11.9996 1.56519L5.23615 2.0869C2.07476 4.24808 -0.000396729 7.88155 -0.000396729 12C-0.000396729 16.1186 2.07476 19.7519 5.23615 21.913L11.9996 22.4348L18.7631 21.9131C21.9245 19.7519 23.9996 16.1186 23.9996 12Z" fill="#0052B4"/>
<path d="M18.7639 2.08709C16.8381 0.77056 14.5094 0.00012207 12.0005 0.00012207C9.49159 0.00012207 7.16289 0.77056 5.23703 2.08709H18.7639Z" fill="#A2001D"/>
<path d="M5.2363 21.9133C7.16211 23.2299 9.49086 24.0003 11.9998 24.0003C14.5087 24.0003 16.8373 23.2299 18.7632 21.9133H5.2363Z" fill="#A2001D"/>
<path d="M12.0004 17.7382C15.17 17.7382 17.7396 15.1687 17.7396 11.999C17.7396 8.82939 15.17 6.25989 12.0004 6.25989C8.83076 6.25989 6.26126 8.82939 6.26126 11.999C6.26126 15.1687 8.83076 17.7382 12.0004 17.7382Z" fill="#F0F0F0"/>
<path d="M11.9999 16.6954C14.5932 16.6954 16.6956 14.5931 16.6956 11.9997C16.6956 9.4064 14.5932 7.30408 11.9999 7.30408C9.40655 7.30408 7.30423 9.4064 7.30423 11.9997C7.30423 14.5931 9.40655 16.6954 11.9999 16.6954Z" fill="#6DA544"/>
<path d="M11.9997 15.1296C13.7286 15.1296 15.1301 13.728 15.1301 11.9991C15.1301 10.2702 13.7286 8.86865 11.9997 8.86865C10.2708 8.86865 8.8692 10.2702 8.8692 11.9991C8.8692 13.728 10.2708 15.1296 11.9997 15.1296Z" fill="#F0F0F0"/>
<path d="M11.9995 11.217L10.3039 11.9997V13.304L11.9995 14.3475L13.6952 13.304V11.9997L11.9995 11.217Z" fill="#0052B4"/>
<path d="M13.6952 10.4358H10.3039V12.001H13.6952V10.4358Z" fill="#FFDA44"/>
</g>
<defs>
<clipPath id="clip0_15_6976">
<rect width="24" height="24" fill="white"/>
</clipPath>
</defs>
</svg>
