<svg width="24" height="24" viewBox="0 0 24 24" fill="none" xmlns="http://www.w3.org/2000/svg">
<g clip-path="url(#clip0_15_6917)">
<path d="M12 24C18.6274 24 24 18.6274 24 12C24 5.37258 18.6274 0 12 0C5.37258 0 0 5.37258 0 12C0 18.6274 5.37258 24 12 24Z" fill="#F0F0F0"/>
<path d="M24.0008 12.0011C24.0008 7.24352 21.2322 3.13277 17.2182 1.19177V22.8103C21.2322 20.8693 24.0008 16.7586 24.0008 12.0011Z" fill="#D80027"/>
<path d="M0.000457764 12.0004C0.000457764 16.758 2.76913 20.8687 6.78308 22.8097V1.19116C2.76913 3.13216 0.000457764 7.24291 0.000457764 12.0004Z" fill="#D80027"/>
<path d="M14.0876 13.5663L16.1745 12.5228L15.131 12.001V10.9576L13.0441 12.001L14.0876 9.91408H13.0441L12.0006 8.34888L10.9571 9.91408H9.91361L10.9571 12.001L8.87013 10.9576V12.001L7.82669 12.5228L9.91361 13.5663L9.39189 14.6097H11.4789V16.1749H12.5223V14.6097H14.6093L14.0876 13.5663Z" fill="#D80027"/>
</g>
<defs>
<clipPath id="clip0_15_6917">
<rect width="24" height="24" fill="white"/>
</clipPath>
</defs>
</svg>
