<svg width="24" height="24" viewBox="0 0 24 24" fill="none" xmlns="http://www.w3.org/2000/svg">
<g clip-path="url(#clip0_15_6869)">
<path d="M22.6672 6.49836C22.1127 5.42403 21.3859 4.41566 20.4854 3.5151C19.5848 2.61449 18.5763 1.88769 17.5021 1.33325L9.0482 9.04916L1.33224 17.503C1.88673 18.5773 2.61353 19.5858 3.51409 20.4863C4.41465 21.3869 5.42307 22.1137 6.49735 22.6682L14.9512 14.9522L22.6672 6.49836Z" fill="#FFDA44"/>
<path d="M3.51462 20.4855C4.01801 20.9889 4.55515 21.4379 5.11854 21.8332L21.8334 5.11823C21.4382 4.55484 20.9892 4.0177 20.4858 3.51431C19.9824 3.01092 19.4453 2.562 18.8819 2.16675L2.16705 18.8816C2.56226 19.4449 3.01118 19.9822 3.51462 20.4855Z" fill="#D80027"/>
<path d="M3.51429 3.51431C-0.271664 7.30026 -0.99846 12.9861 1.33245 17.5023L17.5023 1.33251C12.986 -0.998347 7.3002 -0.271457 3.51429 3.51431Z" fill="#338AF3"/>
<path d="M20.4855 20.485C24.2714 16.6991 24.9981 11.0132 22.6674 6.49707L6.49756 22.6669C11.0137 24.9977 16.6996 24.271 20.4855 20.485Z" fill="#338AF3"/>
<path d="M6.39519 3.65112L7.04273 5.64411H9.13823L7.44294 6.87579L8.09048 8.86873L6.39519 7.637L4.69982 8.86873L5.34744 6.87579L3.65207 5.64411H5.74757L6.39519 3.65112Z" fill="#FFDA44"/>
</g>
<defs>
<clipPath id="clip0_15_6869">
<rect width="24" height="24" fill="white"/>
</clipPath>
</defs>
</svg>
