<svg width="24" height="24" viewBox="0 0 24 24" fill="none" xmlns="http://www.w3.org/2000/svg">
<g clip-path="url(#clip0_15_6913)">
<path d="M12 24C18.6274 24 24 18.6274 24 12C24 5.37258 18.6274 0 12 0C5.37258 0 0 5.37258 0 12C0 18.6274 5.37258 24 12 24Z" fill="#F0F0F0"/>
<path d="M22.5405 6.26036C20.9899 3.41837 18.3235 1.27295 15.1301 0.412231L14.6083 6.26036H22.5405Z" fill="#0052B4"/>
<path d="M1.45898 6.2606H9.39117L8.86945 0.412476C5.676 1.27319 3.00966 3.41866 1.45898 6.2606Z" fill="#0052B4"/>
<path d="M14.6084 12.0017V17.7408H22.5405C23.4708 16.036 23.9997 14.0806 23.9997 12.0017H14.6084Z" fill="#6DA544"/>
<path d="M9.39125 12.0007H-6.10352e-05C-6.10352e-05 14.0796 0.52883 16.035 1.45902 17.7399H9.39121V12.0007H9.39125Z" fill="#6DA544"/>
<path d="M1.45908 17.7396C3.00975 20.5816 5.67609 22.727 8.86954 23.5878L9.39126 18.4733L1.45908 17.7396Z" fill="#FFDA44"/>
<path d="M15.1301 23.5884C18.3235 22.7276 20.9899 20.5822 22.5405 17.7402L14.6083 18.4738L15.1301 23.5884Z" fill="#FFDA44"/>
<path d="M14.6083 18.4738L22.5406 17.7402H14.6083V18.4738Z" fill="#FFDA44"/>
<path d="M9.39131 17.7396H1.45908L9.39131 18.4732V17.7396Z" fill="#FFDA44"/>
<path d="M12.0001 0.000366211C10.9169 0.000366211 9.86779 0.144741 8.86963 0.413757V23.587C9.86779 23.856 10.9169 24.0004 12.0001 24.0004C13.0832 24.0004 14.1324 23.856 15.1305 23.587V0.413757C14.1324 0.144741 13.0832 0.000366211 12.0001 0.000366211Z" fill="#D80027"/>
<path d="M6.45426 2.60913L6.77798 3.60555H7.82577L6.97818 4.2214L7.30195 5.21782L6.45426 4.60202L5.60662 5.21782L5.93048 4.2214L5.08289 3.60555H6.13059L6.45426 2.60913Z" fill="#FFDA44"/>
</g>
<defs>
<clipPath id="clip0_15_6913">
<rect width="24" height="24" fill="white"/>
</clipPath>
</defs>
</svg>
