<svg width="24" height="24" viewBox="0 0 24 24" fill="none" xmlns="http://www.w3.org/2000/svg">
<g clip-path="url(#clip0_15_6907)">
<path d="M12 24C18.6274 24 24 18.6274 24 12C24 5.37258 18.6274 0 12 0C5.37258 0 0 5.37258 0 12C0 18.6274 5.37258 24 12 24Z" fill="#F0F0F0"/>
<path d="M24.0001 12.0003C24.0001 18.6277 18.6275 24.0003 12.0001 24.0003C5.37275 24.0003 0.00012207 18.6277 0.00012207 12.0003C0.00012207 5.37293 12.0001 12.0003 12.0001 12.0003C12.0001 12.0003 21.0827 12.0003 24.0001 12.0003Z" fill="#D80027"/>
<path d="M0 12C0 5.37262 5.37262 0 12 0C12 4.56352 12 12 12 12C12 12 4.17389 12 0 12Z" fill="#0052B4"/>
<path d="M7.14282 4.17346L7.91987 6.56493H10.4344L8.4001 8.0429L9.1771 10.4344L7.14282 8.95635L5.10854 10.4344L5.88554 8.0429L3.85126 6.56493H6.36577L7.14282 4.17346Z" fill="#F0F0F0"/>
</g>
<defs>
<clipPath id="clip0_15_6907">
<rect width="24" height="24" fill="white"/>
</clipPath>
</defs>
</svg>
