<svg width="24" height="24" viewBox="0 0 24 24" fill="none" xmlns="http://www.w3.org/2000/svg">
<g clip-path="url(#clip0_15_6919)">
<path d="M17.2173 1.19121C15.6397 0.428363 13.8698 0.000488281 12 0.000488281C10.1301 0.000488281 8.36021 0.428363 6.78259 1.19121L5.73911 12.0005L6.78259 22.8098C8.36021 23.5726 10.1301 24.0005 12 24.0005C13.8698 24.0005 15.6397 23.5726 17.2173 22.8098L18.2608 12.0005L17.2173 1.19121Z" fill="#D80027"/>
<path d="M12.0002 7.82544L13.0361 11.0138H16.389L13.6766 12.9846L14.7126 16.1732L12.0002 14.2025L9.28775 16.1732L10.3239 12.9846L7.61154 11.0138H10.9642L12.0002 7.82544Z" fill="#FFDA44"/>
<path d="M6.78296 1.19165C2.76905 3.13256 0.000335693 7.24298 0.000335693 12.0005C0.000335693 16.758 2.76905 20.8685 6.78296 22.8094V1.19165Z" fill="#496E2D"/>
<path d="M17.2177 1.19165V22.8094C21.2316 20.8685 24.0004 16.758 24.0004 12.0005C24.0004 7.24303 21.2316 3.13256 17.2177 1.19165Z" fill="#FFDA44"/>
</g>
<defs>
<clipPath id="clip0_15_6919">
<rect width="24" height="24" fill="white"/>
</clipPath>
</defs>
</svg>
