<svg width="24" height="24" viewBox="0 0 24 24" fill="none" xmlns="http://www.w3.org/2000/svg">
<g clip-path="url(#clip0_15_6905)">
<path d="M12 24C18.6274 24 24 18.6274 24 12C24 5.37258 18.6274 0 12 0C5.37258 0 0 5.37258 0 12C0 18.6274 5.37258 24 12 24Z" fill="#D80027"/>
<path d="M6.56734 7.30139L7.60328 10.4889H10.9548L8.24547 12.4623L9.2814 15.6498L6.56734 13.6811L3.85328 15.6498L4.8939 12.4623L2.17984 10.4889H5.5314L6.56734 7.30139Z" fill="#FFDA44"/>
<path d="M14.2262 18.5846L13.434 17.6096L12.2622 18.0643L12.9418 17.0096L12.1497 16.03L13.3637 16.3534L14.0481 15.2987L14.1137 16.555L15.3325 16.8784L14.1559 17.3284L14.2262 18.5846Z" fill="#FFDA44"/>
<path d="M15.8018 15.7253L16.1768 14.5253L15.1502 13.7987L16.4065 13.78L16.7768 12.58L17.1846 13.7706L18.4408 13.7565L17.433 14.5065L17.8361 15.6971L16.8096 14.9706L15.8018 15.7253Z" fill="#FFDA44"/>
<path d="M17.9253 8.80662L17.3722 9.9363L18.2722 10.8129L17.03 10.6347L16.4769 11.7597L16.2613 10.5222L15.0144 10.3441L16.13 9.75818L15.9144 8.51599L16.8144 9.39255L17.9253 8.80662Z" fill="#FFDA44"/>
<path d="M14.2591 5.38501L14.1654 6.63657L15.3326 7.11001L14.1091 7.41001L14.0201 8.66626L13.3591 7.59751L12.1357 7.89751L12.9466 6.93657L12.281 5.87251L13.4482 6.34595L14.2591 5.38501Z" fill="#FFDA44"/>
</g>
<defs>
<clipPath id="clip0_15_6905">
<rect width="24" height="24" fill="white"/>
</clipPath>
</defs>
</svg>
