<svg width="24" height="24" viewBox="0 0 24 24" fill="none" xmlns="http://www.w3.org/2000/svg">
<g clip-path="url(#clip0_15_6887)">
<path d="M12 24C18.6274 24 24 18.6274 24 12C24 5.37258 18.6274 0 12 0C5.37258 0 0 5.37258 0 12C0 18.6274 5.37258 24 12 24Z" fill="#F0F0F0"/>
<path d="M23.2536 7.82617H0.74636C0.264016 9.12616 -3.05176e-05 10.5322 -3.05176e-05 12.0001C-3.05176e-05 13.4679 0.264016 14.874 0.74636 16.174H23.2536C23.736 14.874 24 13.4679 24 12.0001C24 10.5322 23.736 9.12616 23.2536 7.82617Z" fill="#D80027"/>
<path d="M12.001 -0.000488281C8.36395 -0.000488281 5.10506 1.61782 2.90442 4.1734H21.0976C18.897 1.61782 15.6381 -0.000488281 12.001 -0.000488281Z" fill="#0052B4"/>
<path d="M21.0962 19.826H2.90302C5.10366 22.3816 8.36255 23.9999 11.9996 23.9999C15.6367 23.9999 18.8956 22.3816 21.0962 19.826Z" fill="#0052B4"/>
</g>
<defs>
<clipPath id="clip0_15_6887">
<rect width="24" height="24" fill="white"/>
</clipPath>
</defs>
</svg>
