<svg width="24" height="24" viewBox="0 0 24 24" fill="none" xmlns="http://www.w3.org/2000/svg">
<g clip-path="url(#clip0_15_6880)">
<path d="M12 24C18.6274 24 24 18.6274 24 12C24 5.37258 18.6274 0 12 0C5.37258 0 0 5.37258 0 12C0 18.6274 5.37258 24 12 24Z" fill="#FFDA44"/>
<path d="M11.9998 24.0005C15.9373 24.0005 19.4318 22.1041 21.6199 19.1748H2.37973C4.56786 22.1041 8.06234 24.0005 11.9998 24.0005Z" fill="#0052B4"/>
<path d="M24 12C24 5.37263 18.6274 0 12 0C5.37262 0 0 5.37263 0 12C0 13.419 0.246984 14.7803 0.699188 16.0439H23.3008C23.753 14.7803 24 13.419 24 12Z" fill="#0052B4"/>
<path d="M8.21368 7.69604L8.86117 9.68879H10.9567L9.26143 10.9206L9.90892 12.9134L8.21368 11.6817L6.51845 12.9134L7.16603 10.9206L5.47079 9.68879H7.5662L8.21368 7.69604Z" fill="#F0F0F0"/>
<path d="M4.61493 5.60962L5.00343 6.80531H6.26075L5.24361 7.54434L5.63211 8.74008L4.61493 8.00104L3.59779 8.74008L3.98633 7.54434L2.96924 6.80531H4.22652L4.61493 5.60962Z" fill="#F0F0F0"/>
</g>
<defs>
<clipPath id="clip0_15_6880">
<rect width="24" height="24" fill="white"/>
</clipPath>
</defs>
</svg>
