<svg width="24" height="24" viewBox="0 0 24 24" fill="none" xmlns="http://www.w3.org/2000/svg">
<g clip-path="url(#clip0_15_6902)">
<path d="M20.4857 20.4857C15.7994 25.172 8.20138 25.172 3.51506 20.4857C-1.17126 15.7995 -1.17122 8.20146 3.51506 3.51514C3.88396 3.884 13.1071 10.8936 13.1071 10.8936L20.4857 20.4857Z" fill="#0052B4"/>
<path d="M3.51508 3.51422C8.20135 -1.17206 15.7994 -1.17206 20.4857 3.51422C25.172 8.20049 25.172 15.7985 20.4857 20.4848" fill="#6DA544"/>
<path d="M12.0004 15.131C13.7293 15.131 15.1308 13.7295 15.1308 12.0006C15.1308 10.2717 13.7293 8.87012 12.0004 8.87012C10.2715 8.87012 8.86993 10.2717 8.86993 12.0006C8.86993 13.7295 10.2715 15.131 12.0004 15.131Z" fill="#FFDA44"/>
<path d="M4.46831 17.2175L4.7976 17.9061L5.54118 17.7342L5.20818 18.4209L5.80621 18.8952L5.06165 19.0629L5.06371 19.8262L4.46831 19.3487L3.8729 19.8262L3.87496 19.0629L3.1304 18.8952L3.72843 18.4209L3.39539 17.7342L4.13901 17.9061L4.46831 17.2175Z" fill="#F0F0F0"/>
<path d="M2.31436 11.4769L2.64365 12.1655L3.38723 11.9935L3.05428 12.6803L3.65222 13.1546L2.9077 13.3223L2.90976 14.0856L2.31436 13.6081L1.719 14.0856L1.72102 13.3223L0.976501 13.1546L1.57448 12.6803L1.24149 11.9935L1.98506 12.1655L2.31436 11.4769Z" fill="#F0F0F0"/>
<path d="M4.46826 6.78186L4.79756 7.47041L5.54113 7.29847L5.20818 7.98528L5.80616 8.45951L5.0616 8.62728L5.06366 9.39054L4.46826 8.91307L3.87285 9.39054L3.87492 8.62728L3.1304 8.45951L3.72834 7.98528L3.39534 7.29847L4.13896 7.47041L4.46826 6.78186Z" fill="#F0F0F0"/>
<path d="M7.14419 10.4346L7.47349 11.1231L8.21711 10.9512L7.88407 11.638L8.48205 12.1122L7.73754 12.28L7.73955 13.0432L7.14419 12.5658L6.54879 13.0432L6.55085 12.28L5.80634 12.1122L6.40427 11.638L6.07132 10.9512L6.8149 11.1231L7.14419 10.4346Z" fill="#F0F0F0"/>
<path d="M5.23122 13.5646L5.49025 14.3617H6.32837L5.65028 14.8544L5.90931 15.6515L5.23122 15.1589L4.55313 15.6515L4.81216 14.8544L4.13406 14.3617H4.97219L5.23122 13.5646Z" fill="#F0F0F0"/>
<path d="M12 14.0871H13.0434C13.0434 14.0871 13.4956 13.2872 13.0434 12.5219L14.0869 11.4784L13.5652 10.4349H13.0435C13.0435 10.4349 12.7826 11.2176 11.7391 11.2176C10.6957 11.2176 10.4348 10.4349 10.4348 10.4349H9.91309L10.4348 11.4784L9.91309 12.5219L10.4348 13.0436C10.4348 13.0436 10.9565 12.0001 12 12.5219C12 12.5219 12.4434 13.1741 12 14.0871Z" fill="#6DA544"/>
<path d="M19.7889 6.57258C19.8135 6.44437 19.8266 6.31214 19.8266 6.17677C19.8266 5.24864 19.2206 4.4625 18.3828 4.19128C18.6388 4.7116 18.7831 5.29678 18.7831 5.91591C18.7831 6.12469 18.7663 6.32953 18.7348 6.52945C18.6087 6.32634 18.4467 6.14077 18.2489 5.98331C17.5035 5.39025 16.4849 5.37455 15.7319 5.874C16.3133 6.00094 16.8754 6.25898 17.3726 6.65456C17.7619 6.96431 18.0764 7.38328 18.3172 7.78772L15.1309 8.78545C18.2614 9.30717 20.87 7.22025 20.87 7.22025C20.581 6.64219 20.1321 6.54469 19.7889 6.57258Z" fill="#FFDA44"/>
</g>
<defs>
<clipPath id="clip0_15_6902">
<rect width="24" height="24" fill="white"/>
</clipPath>
</defs>
</svg>
