<svg width="24" height="24" viewBox="0 0 24 24" fill="none" xmlns="http://www.w3.org/2000/svg">
<g clip-path="url(#clip0_15_6877)">
<path d="M12 24C18.6274 24 24 18.6274 24 12C24 5.37258 18.6274 0 12 0C5.37258 0 0 5.37258 0 12C0 18.6274 5.37258 24 12 24Z" fill="#FCFCFC"/>
<path d="M18.7825 10.4346C18.4173 10.4346 17.9651 10.4346 17.2173 10.4346C17.2173 13.3161 14.8814 15.6519 12 15.6519C9.11841 15.6519 6.78258 13.3161 6.78258 10.4346C6.2782 10.4346 5.72166 10.4346 5.21738 10.4346C5.21738 13.5384 7.30219 16.1553 10.148 16.9612C9.83597 17.5539 9.8835 18.3001 10.3292 18.8563C10.9146 18.3871 11.5206 17.9014 12.0347 17.4895C12.5489 17.9015 13.155 18.3872 13.7403 18.8563C14.1904 18.2946 14.2347 17.5389 13.9123 16.9434C16.7269 16.1177 18.7825 13.5163 18.7825 10.4346Z" fill="#6DA544"/>
<path d="M7.8262 9.91292C7.8262 9.91292 7.8262 12.5216 10.4349 12.5216L10.9566 13.0433H12.0001C12.0001 13.0433 12.5218 11.4781 13.5653 11.4781C13.5653 11.4781 13.5653 10.4346 14.6088 10.4346C15.6523 10.4346 16.174 10.4346 16.174 10.4346C16.174 10.4346 15.6523 8.34767 18.261 6.78246L17.2175 6.26074C17.2175 6.26074 13.5653 8.86943 10.9566 8.34771V9.3912H9.91312L9.39141 8.86948L7.8262 9.91292Z" fill="#FFDA44"/>
</g>
<defs>
<clipPath id="clip0_15_6877">
<rect width="24" height="24" fill="white"/>
</clipPath>
</defs>
</svg>
