<svg width="24" height="24" viewBox="0 0 24 24" fill="none" xmlns="http://www.w3.org/2000/svg">
<g clip-path="url(#clip0_15_6859)">
<path d="M10.9563 13.044C10.9563 13.044 3.5215 3.51354 3.51447 3.51522C5.686 1.34364 8.68604 0.000488281 11.9998 0.000488281C18.6272 0.000488281 23.9998 5.37311 23.9998 12.0005L10.9563 13.044Z" fill="#338AF3"/>
<path d="M10.9563 11.9993C10.9563 11.9993 3.5215 20.4862 3.51447 20.4845C5.686 22.6561 8.68604 23.9993 11.9998 23.9993C18.6272 23.9993 23.9998 18.6266 23.9998 11.9993H10.9563Z" fill="#6DA544"/>
<path d="M3.51444 3.51465C-1.17184 8.20093 -1.17184 15.7989 3.51444 20.4853C5.45098 18.5487 7.31347 16.6862 11.9997 12L3.51444 3.51465Z" fill="#F0F0F0"/>
<path d="M4.8563 8.86938L5.63326 11.2608H8.14791L6.11363 12.7388L6.89054 15.1303L4.8563 13.6523L2.82198 15.1303L3.59907 12.7388L1.56479 11.2608H4.07926L4.8563 8.86938Z" fill="#D80027"/>
</g>
<defs>
<clipPath id="clip0_15_6859">
<rect width="24" height="24" fill="white"/>
</clipPath>
</defs>
</svg>
