<svg width="24" height="24" viewBox="0 0 24 24" fill="none" xmlns="http://www.w3.org/2000/svg">
<g clip-path="url(#clip0_15_6864)">
<path d="M12 24C18.6274 24 24 18.6274 24 12C24 5.37258 18.6274 0 12 0C5.37258 0 0 5.37258 0 12C0 18.6274 5.37258 24 12 24Z" fill="#F0F0F0"/>
<path d="M9.39195 10.435H23.899C23.132 4.54721 18.0975 0.000244141 12.0006 0.000244141C11.1046 0.000244141 10.2319 0.099291 9.39191 0.285479V10.435H9.39195Z" fill="#D80027"/>
<path d="M6.26143 10.4359V1.46021C2.96644 3.25805 0.607596 6.55575 0.102142 10.4359H6.26143V10.4359Z" fill="#D80027"/>
<path d="M6.26095 13.5657H0.101715C0.607169 17.4458 2.96601 20.7435 6.261 22.5413L6.26095 13.5657Z" fill="#D80027"/>
<path d="M9.39191 13.5657V23.7152C10.2319 23.9014 11.1046 24.0005 12.0006 24.0005C18.0975 24.0005 23.132 19.4535 23.899 13.5657H9.39191V13.5657Z" fill="#D80027"/>
</g>
<defs>
<clipPath id="clip0_15_6864">
<rect width="24" height="24" fill="white"/>
</clipPath>
</defs>
</svg>
