<svg width="24" height="24" viewBox="0 0 24 24" fill="none" xmlns="http://www.w3.org/2000/svg">
<g clip-path="url(#clip0_15_6935)">
<path d="M12 24C18.6274 24 24 18.6274 24 12C24 5.37258 18.6274 0 12 0C5.37258 0 0 5.37258 0 12C0 18.6274 5.37258 24 12 24Z" fill="#F0F0F0"/>
<path d="M0.413788 15.1311C1.52182 19.2422 4.75887 22.4793 8.86999 23.5873V15.1311H0.413788Z" fill="#D80027"/>
<path d="M8.86946 0.41333C4.75838 1.52131 1.52128 4.75841 0.4133 8.86949H8.8695V0.41333H8.86946Z" fill="#0052B4"/>
<path d="M23.5867 8.86973C22.4787 4.75865 19.2416 1.52156 15.1306 0.413574V8.86978H23.5867V8.86973Z" fill="#D80027"/>
<path d="M15.1306 23.5871C19.2416 22.479 22.4787 19.242 23.5868 15.1309H15.1306V23.5871Z" fill="#0052B4"/>
<path d="M15.1306 11.9998C15.1306 13.7288 13.7291 15.1303 12.0001 15.1303C10.2712 15.1303 8.86966 13.7288 8.86966 11.9998C8.86966 10.2709 12.0001 8.86938 12.0001 8.86938C12.0001 8.86938 15.1306 10.2709 15.1306 11.9998Z" fill="#496E2D"/>
<path d="M8.86966 11.9998C8.86966 10.2709 10.2712 8.86938 12.0001 8.86938C13.7291 8.86938 15.1306 10.2709 15.1306 11.9998" fill="#0052B4"/>
<path d="M10.2393 10.4346V12.3911C10.2393 13.3636 11.0276 14.1519 12.0001 14.1519C12.9726 14.1519 13.761 13.3636 13.761 12.3911V10.4346H10.2393Z" fill="#D80027"/>
</g>
<defs>
<clipPath id="clip0_15_6935">
<rect width="24" height="24" fill="white"/>
</clipPath>
</defs>
</svg>
