<svg width="24" height="24" viewBox="0 0 24 24" fill="none" xmlns="http://www.w3.org/2000/svg">
<g clip-path="url(#clip0_15_6933)">
<path d="M1.19115 6.78262C0.428302 8.36025 0.000427246 10.1301 0.000427246 12C0.000427246 13.8699 0.428302 15.6398 1.19115 17.2174L12.0004 18.2609L22.8097 17.2174C23.5726 15.6398 24.0004 13.8699 24.0004 12C24.0004 10.1301 23.5726 8.36025 22.8097 6.78262L12.0004 5.73914L1.19115 6.78262Z" fill="#F0F0F0"/>
<path d="M1.19098 17.2167C3.13189 21.2306 7.24231 23.9993 11.9998 23.9993C16.7574 23.9993 20.8678 21.2306 22.8087 17.2167H1.19098Z" fill="black"/>
<path d="M1.19098 6.78287H22.8087C20.8678 2.76892 16.7574 0.000244141 11.9998 0.000244141C7.24231 0.000244141 3.13189 2.76892 1.19098 6.78287Z" fill="#D80027"/>
<path d="M3.51514 3.51392C-1.17114 8.2002 -1.17114 15.7982 3.51514 20.4845C5.45169 18.548 7.31417 16.6855 12.0005 11.9992L3.51514 3.51392Z" fill="#496E2D"/>
</g>
<defs>
<clipPath id="clip0_15_6933">
<rect width="24" height="24" fill="white"/>
</clipPath>
</defs>
</svg>
