<svg width="24" height="24" viewBox="0 0 24 24" fill="none" xmlns="http://www.w3.org/2000/svg">
<g clip-path="url(#clip0_15_6975)">
<path d="M12.0004 0C18.6277 0 24.0004 5.37262 24.0004 12C24.0004 18.6274 18.6277 24 12.0004 24C12.0004 23.4783 10.4352 12 10.4352 12L12.0004 0Z" fill="#F0F0F0"/>
<path d="M12 24C5.37262 24 0 18.6274 0 12C0 5.37262 5.37262 0 12 0" fill="#496E2D"/>
<path d="M14.578 9.69873L13.5934 11.0555L11.9989 10.5384L12.9851 11.894L12.0006 13.2508L13.5945 12.7319L14.5807 14.0875L14.5797 12.4112L16.1736 11.8922L14.5791 11.3751L14.578 9.69873Z" fill="#D80027"/>
<path d="M12.9952 15.3919C11.1222 15.3919 9.60386 13.8735 9.60386 12.0006C9.60386 10.1277 11.1222 8.60929 12.9952 8.60929C13.5791 8.60929 14.1287 8.75694 14.6084 9.01691C13.8558 8.28093 12.8266 7.82666 11.6908 7.82666C9.38561 7.82666 7.51694 9.69538 7.51694 12.0006C7.51694 14.3057 9.38566 16.1744 11.6908 16.1744C12.8266 16.1744 13.8558 15.7202 14.6084 14.9842C14.1287 15.2443 13.5791 15.3919 12.9952 15.3919Z" fill="#D80027"/>
</g>
<defs>
<clipPath id="clip0_15_6975">
<rect width="24" height="24" fill="white"/>
</clipPath>
</defs>
</svg>
