<svg width="24" height="24" viewBox="0 0 24 24" fill="none" xmlns="http://www.w3.org/2000/svg">
<g clip-path="url(#clip0_15_6929)">
<path d="M0 12C0 5.37263 5.37262 0 12 0C18.6274 0 24 5.37263 24 12L12 13.0435L0 12Z" fill="#FFDA44"/>
<path d="M1.60556 18.0009C3.68048 21.5876 7.55817 24.0009 11.9998 24.0009C16.4415 24.0009 20.3191 21.5876 22.3941 18.0009L11.9998 17.2183L1.60556 18.0009Z" fill="#D80027"/>
<path d="M22.3944 18.0002C23.4154 16.2352 24.0001 14.1861 24.0001 12.0002H0.00012207C0.00012207 14.1861 0.584841 16.2352 1.60587 18.0002H22.3944Z" fill="#0052B4"/>
<path d="M11.9997 16.1744C14.3048 16.1744 16.1736 14.3057 16.1736 12.0006C16.1736 9.69537 14.3048 7.82666 11.9997 7.82666C9.69449 7.82666 7.82578 9.69537 7.82578 12.0006C7.82578 14.3057 9.69449 16.1744 11.9997 16.1744Z" fill="#FFDA44"/>
<path d="M12.0003 14.6092C10.5619 14.6092 9.39166 13.439 9.39166 12.0005V10.4353C9.39166 8.99689 10.5619 7.82666 12.0003 7.82666C13.4387 7.82666 14.609 8.99694 14.609 10.4353V12.0005C14.609 13.439 13.4388 14.6092 12.0003 14.6092Z" fill="#338AF3"/>
<path d="M16.1737 5.74002H13.0432C13.0432 5.16374 12.576 4.69653 11.9997 4.69653C11.4234 4.69653 10.9562 5.16374 10.9562 5.74002H7.82578C7.82578 6.31635 8.32776 6.7835 8.90399 6.7835H8.86926C8.86926 7.35983 9.33642 7.82699 9.91275 7.82699C9.91275 8.40332 10.3799 8.87047 10.9562 8.87047H13.0432C13.6195 8.87047 14.0867 8.40332 14.0867 7.82699C14.663 7.82699 15.1302 7.35983 15.1302 6.7835H15.0954C15.6717 6.7835 16.1737 6.3163 16.1737 5.74002Z" fill="black"/>
</g>
<defs>
<clipPath id="clip0_15_6929">
<rect width="24" height="24" fill="white"/>
</clipPath>
</defs>
</svg>
