<svg width="24" height="24" viewBox="0 0 24 24" fill="none" xmlns="http://www.w3.org/2000/svg">
<g clip-path="url(#clip0_15_6922)">
<path d="M-0.000305176 11.9995C-0.000305176 13.4673 0.263742 14.8734 0.746085 16.1734L11.9997 16.6951L23.2533 16.1734C23.7357 14.8734 23.9997 13.4673 23.9997 11.9995C23.9997 10.5316 23.7357 9.12558 23.2533 7.8256L11.9997 7.30383L0.746085 7.82555C0.263742 9.12558 -0.000305176 10.5316 -0.000305176 11.9995Z" fill="black"/>
<path d="M11.9997 -0.000366211C6.8401 -0.000366211 2.44158 3.25613 0.746063 7.82574H23.2533C21.5578 3.25613 17.1593 -0.000366211 11.9997 -0.000366211Z" fill="#0052B4"/>
<path d="M23.2533 16.1742H0.746063C2.44158 20.7438 6.84009 24.0003 11.9997 24.0003C17.1592 24.0003 21.5578 20.7438 23.2533 16.1742Z" fill="#F0F0F0"/>
</g>
<defs>
<clipPath id="clip0_15_6922">
<rect width="24" height="24" fill="white"/>
</clipPath>
</defs>
</svg>
