<svg width="24" height="24" viewBox="0 0 24 24" fill="none" xmlns="http://www.w3.org/2000/svg">
<g clip-path="url(#clip0_15_6926)">
<path d="M12 24C18.6274 24 24 18.6274 24 12C24 5.37258 18.6274 0 12 0C5.37258 0 0 5.37258 0 12C0 18.6274 5.37258 24 12 24Z" fill="#F0F0F0"/>
<path d="M12.0002 -0.000244141C6.84061 -0.000244141 2.4421 3.25626 0.746582 7.82587H23.2538C21.5583 3.25626 17.1598 -0.000244141 12.0002 -0.000244141Z" fill="#D80027"/>
<path d="M12.0002 24.0004C17.1598 24.0004 21.5583 20.7439 23.2538 16.1743H0.746582C2.4421 20.7439 6.84061 24.0004 12.0002 24.0004Z" fill="black"/>
<path d="M16.1739 10.6956H13.0434C13.0434 10.1193 12.5762 9.6521 11.9999 9.6521C11.4236 9.6521 10.9564 10.1193 10.9564 10.6956H7.82599C7.82599 11.2719 8.32797 11.7391 8.90425 11.7391H8.86947C8.86947 12.3154 9.33663 12.7826 9.91296 12.7826C9.91296 13.3589 10.3801 13.826 10.9564 13.826H13.0434C13.6197 13.826 14.0869 13.3589 14.0869 12.7826C14.6632 12.7826 15.1304 12.3154 15.1304 11.7391H15.0956C15.6719 11.7391 16.1739 11.2719 16.1739 10.6956Z" fill="#FF9811"/>
</g>
<defs>
<clipPath id="clip0_15_6926">
<rect width="24" height="24" fill="white"/>
</clipPath>
</defs>
</svg>
