<svg width="24" height="24" viewBox="0 0 24 24" fill="none" xmlns="http://www.w3.org/2000/svg">
<g clip-path="url(#clip0_15_6884)">
<path d="M10.9568 10.9565C10.9568 10.9565 3.52205 20.487 3.51501 20.4853C5.68655 22.6569 8.68659 24 12.0003 24C18.6277 24 24.0003 18.6274 24.0003 12L10.9568 10.9565Z" fill="#338AF3"/>
<path d="M10.9568 11.9996C10.9568 11.9996 3.52205 3.51268 3.51501 3.51437C5.68655 1.34279 8.68659 -0.000366211 12.0003 -0.000366211C18.6277 -0.000366211 24.0003 5.37226 24.0003 11.9996H10.9568Z" fill="#6DA544"/>
<path d="M3.51419 3.5155C-1.17209 8.20178 -1.17209 15.7998 3.51419 20.4861C3.51386 20.4881 23.9995 12.0008 23.9995 12.0008L3.51419 3.5155Z" fill="#D80027"/>
<path d="M6.26047 7.04321C3.95895 7.04321 2.08658 8.91563 2.08658 11.2171V12.7823C2.08658 15.0838 3.959 16.9562 6.26047 16.9562C8.56194 16.9562 10.4344 15.0838 10.4344 12.7823V11.2171C10.4344 8.91563 8.56199 7.04321 6.26047 7.04321ZM8.86916 12.7824C8.86916 13.9482 8.10031 14.9377 7.04305 15.2709V13.565L8.15042 12.4576L7.04366 11.3508L7.04305 10.9569V10.4346H5.47789V11.9997L4.37127 13.1063L5.47789 14.2129V15.271C4.42063 14.9378 3.65178 13.9483 3.65178 12.7824V11.2172C3.65178 9.77874 4.82206 8.60851 6.26047 8.60851C7.69888 8.60851 8.86916 9.77879 8.86916 11.2172V12.7824Z" fill="#FFDA44"/>
</g>
<defs>
<clipPath id="clip0_15_6884">
<rect width="24" height="24" fill="white"/>
</clipPath>
</defs>
</svg>
