<svg width="24" height="24" viewBox="0 0 24 24" fill="none" xmlns="http://www.w3.org/2000/svg">
<g clip-path="url(#clip0_15_6912)">
<path d="M0 11.9992C0 13.4671 0.264047 14.8731 0.746391 16.1731L12 17.2166L23.2536 16.1731C23.736 14.8731 24 13.4671 24 11.9992C24 10.5314 23.736 9.12533 23.2536 7.82534L12 6.78186L0.746391 7.82534C0.264047 9.12533 0 10.5314 0 11.9992Z" fill="#FFDA44"/>
<path d="M23.2551 7.82574C21.5596 3.25618 17.161 -0.000366211 12.0015 -0.000366211C6.84189 -0.000366211 2.44338 3.25618 0.747864 7.82574H23.2551Z" fill="#D80027"/>
<path d="M0.746887 16.174C2.4424 20.7435 6.84092 24.0001 12.0005 24.0001C17.1601 24.0001 21.5586 20.7435 23.2541 16.174H0.746887Z" fill="#D80027"/>
</g>
<defs>
<clipPath id="clip0_15_6912">
<rect width="24" height="24" fill="white"/>
</clipPath>
</defs>
</svg>
