<svg width="24" height="24" viewBox="0 0 24 24" fill="none" xmlns="http://www.w3.org/2000/svg">
<g clip-path="url(#clip0_15_6920)">
<path d="M-0.000183105 12C-0.000183105 13.4679 0.263864 14.874 0.746254 16.174L11.9998 17.2173L23.2534 16.1739C23.7358 14.874 23.9998 13.4679 23.9998 12C23.9998 10.5522 23.7434 9.1644 23.2735 7.87942L11.9998 6.78259L0.726098 7.87947C0.25627 9.1644 -0.000183105 10.5522 -0.000183105 12Z" fill="#FFDA44"/>
<path d="M11.9999 24.0003C17.1595 24.0003 21.558 20.7438 23.2535 16.1742H0.746277C2.44179 20.7438 6.84031 24.0003 11.9999 24.0003Z" fill="#D80027"/>
<path d="M12 -0.000366211C6.8404 -0.000366211 2.44188 3.25613 0.746368 7.82574H23.2536C21.5581 3.25613 17.1596 -0.000366211 12 -0.000366211Z" fill="#6DA544"/>
<path d="M11.9998 17.7399C15.1694 17.7399 17.7389 15.1704 17.7389 12.0007C17.7389 8.8311 15.1694 6.2616 11.9998 6.2616C8.83012 6.2616 6.26062 8.8311 6.26062 12.0007C6.26062 15.1704 8.83012 17.7399 11.9998 17.7399Z" fill="#0052B4"/>
<path d="M11.9986 7.5564L13.0346 10.7449H16.3926L13.6749 12.7156L14.7191 15.9136L11.9986 13.9336L9.28229 15.9099L10.3223 12.7156L7.60703 10.7449H10.9626L11.9986 7.5564Z" fill="#FFDA44"/>
<path d="M16.1308 12.7938L12.8441 11.7258L14.8753 8.93018L14.0312 8.31677L11.9999 11.1126L9.96875 8.31682L9.12453 8.93013L11.1557 11.726L7.86917 12.7938L8.19158 13.7862L11.4783 12.7184V16.1741H12.5217V12.7183L15.8082 13.7862L16.1308 12.7938Z" fill="#FFDA44"/>
</g>
<defs>
<clipPath id="clip0_15_6920">
<rect width="24" height="24" fill="white"/>
</clipPath>
</defs>
</svg>
