<svg width="24" height="24" viewBox="0 0 24 24" fill="none" xmlns="http://www.w3.org/2000/svg">
<g clip-path="url(#clip0_15_6911)">
<path d="M12 24C18.6274 24 24 18.6274 24 12C24 5.37258 18.6274 0 12 0C5.37258 0 0 5.37258 0 12C0 18.6274 5.37258 24 12 24Z" fill="#F0F0F0"/>
<path d="M23.8986 10.4347H9.39151H9.39147V0.285156C8.2825 0.531062 7.23114 0.929641 6.26101 1.459V10.4346V10.4347H0.101731C0.0349338 10.9471 0.000152588 11.4694 0.000152588 11.9999C0.000152588 12.5304 0.0349338 13.0528 0.101731 13.5651H6.26096H6.26101V22.5408C7.23114 23.0701 8.2825 23.4688 9.39147 23.7146V13.5653V13.5652H23.8986C23.9653 13.0528 24.0002 12.5304 24.0002 11.9999C24.0002 11.4694 23.9653 10.9471 23.8986 10.4347Z" fill="#0052B4"/>
</g>
<defs>
<clipPath id="clip0_15_6911">
<rect width="24" height="24" fill="white"/>
</clipPath>
</defs>
</svg>
