<svg width="24" height="24" viewBox="0 0 24 24" fill="none" xmlns="http://www.w3.org/2000/svg">
<g clip-path="url(#clip0_15_6914)">
<path d="M24 12C24 18.6274 18.6274 24 12 24C5.37262 24 0 18.6274 0 12C0 12.0029 12 0.0013125 12 0C18.6274 0 24 5.37262 24 12Z" fill="#338AF3"/>
<path d="M11.9994 5.74023V9.78756L7.82547 5.74023H11.9994Z" fill="#0052B4"/>
<path d="M6.26052 12.0018H9.78608L6.26052 7.30615L5.7388 10.9583L6.26052 12.0018Z" fill="#0052B4"/>
<path d="M11.9673 12.0001H11.9995C11.9995 11.9893 11.9995 11.9787 11.9995 11.9679C11.9888 11.9786 11.9781 11.9894 11.9673 12.0001Z" fill="#F0F0F0"/>
<path d="M11.9997 6.26147C11.9997 4.14999 11.9997 2.76647 11.9997 0.000610352H11.9977C5.37125 0.00173535 -0.000244141 5.37384 -0.000244141 12.0006H6.26061V8.47509L9.78617 12.0006H11.9677C11.9784 11.9899 11.9891 11.9792 11.9998 11.9685C11.9998 11.16 11.9998 10.4387 11.9998 9.78708L8.47419 6.26147H11.9997Z" fill="#F0F0F0"/>
<path d="M6.07082 1.5658C4.19399 2.6345 2.63371 4.19478 1.565 6.07161V12.0006H4.69546V4.69635V4.69625H11.9998C11.9998 3.70892 11.9998 2.76833 11.9998 1.5658H6.07082Z" fill="#D80027"/>
<path d="M11.9999 10.5249L7.73644 6.26147H6.26077V6.26157L11.9998 12.0006H11.9999C11.9999 12.0006 11.9999 10.983 11.9999 10.5249Z" fill="#D80027"/>
<path d="M13.5656 7.82718V12.001C13.5656 14.7966 17.2177 15.6532 17.2177 15.6532C17.2177 15.6532 20.8699 14.7966 20.8699 12.001V7.82718L17.2177 6.78369L13.5656 7.82718Z" fill="#F3F3F3"/>
<path d="M20.8699 7.82631V6.26111H13.5656V7.82631H16.6959V10.9568H13.5656V12.0002C13.5656 12.0002 13.5656 12.0003 13.5656 12.0003L16.6959 12.0003V15.4924C17.0108 15.6038 17.2177 15.6524 17.2177 15.6524C17.2177 15.6524 17.4245 15.6039 17.7394 15.4924V12.0003H20.8699V12.0002V10.9568H17.7394V7.82626H20.8699V7.82631Z" fill="#D80027"/>
</g>
<defs>
<clipPath id="clip0_15_6914">
<rect width="24" height="24" fill="white"/>
</clipPath>
</defs>
</svg>
