<svg width="24" height="24" viewBox="0 0 24 24" fill="none" xmlns="http://www.w3.org/2000/svg">
<g clip-path="url(#clip0_15_6918)">
<path d="M24 12C24 18.6274 18.6274 24 12 24C5.37262 24 0 18.6274 0 12C0 12.0029 12 0.0013125 12 0C18.6274 0 24 5.37262 24 12Z" fill="#0052B4"/>
<path d="M11.9672 12.0002H11.9994C11.9994 11.9894 11.9994 11.9789 11.9994 11.968C11.9887 11.9788 11.978 11.9895 11.9672 12.0002Z" fill="#F0F0F0"/>
<path d="M11.9997 6.26074C11.9997 4.14925 11.9997 2.76574 11.9997 -0.00012207H11.9977C5.37119 0.00100293 -0.000305176 5.37311 -0.000305176 11.9999H6.26055V8.47436L9.78611 11.9999H11.9676C11.9783 11.9892 11.989 11.9785 11.9997 11.9678C11.9997 11.1593 11.9997 10.438 11.9997 9.78635L8.47413 6.26074H11.9997Z" fill="#F0F0F0"/>
<path d="M6.07063 1.56494C4.1938 2.63364 2.63352 4.19393 1.56482 6.07075V11.9997H4.69527V4.69549V4.69539H11.9996C11.9996 3.70807 11.9996 2.76747 11.9996 1.56494H6.07063Z" fill="#D80027"/>
<path d="M11.9997 10.5244L7.73626 6.26099H6.26059V6.26108L11.9996 12.0001H11.9997C11.9997 12.0001 11.9997 10.9826 11.9997 10.5244Z" fill="#D80027"/>
<path d="M19.3046 14.0863V14.608H15.1307V14.0863H13.5655V16.1732H14.609V16.695H19.8264V16.1732H20.8698V14.0863H19.3046Z" fill="#FFDA44"/>
<path d="M13.5655 6.2616V12.0007C13.5655 14.7963 17.2177 15.6529 17.2177 15.6529C17.2177 15.6529 20.8698 14.7963 20.8698 12.0007V6.2616H13.5655Z" fill="#338AF3"/>
<path d="M17.2179 10.5428C16.3049 10.5428 16.3049 11.3776 15.3919 11.3776C14.479 11.3776 14.479 10.5428 13.566 10.5428V12.0037C14.479 12.0037 14.479 12.8385 15.3919 12.8385C16.3049 12.8385 16.3049 12.0037 17.2179 12.0037C18.131 12.0037 18.131 12.8385 19.0441 12.8385C19.9572 12.8385 19.9572 12.0037 20.8703 12.0037V10.5428C19.9572 10.5428 19.9572 11.3776 19.0441 11.3776C18.131 11.3776 18.131 10.5428 17.2179 10.5428Z" fill="#F3F3F3"/>
<path d="M17.2176 7.61804C16.3046 7.61804 16.3046 8.45284 15.3916 8.45284C14.4787 8.45284 14.4787 7.61804 13.5657 7.61804V9.0789C14.4787 9.0789 14.4787 9.9137 15.3916 9.9137C16.3046 9.9137 16.3046 9.0789 17.2176 9.0789C18.1307 9.0789 18.1307 9.9137 19.0438 9.9137C19.9569 9.9137 19.9569 9.0789 20.87 9.0789V7.61804C19.9569 7.61804 19.9569 8.45284 19.0438 8.45284C18.1307 8.45284 18.1307 7.61804 17.2176 7.61804Z" fill="#F3F3F3"/>
</g>
<defs>
<clipPath id="clip0_15_6918">
<rect width="24" height="24" fill="white"/>
</clipPath>
</defs>
</svg>
