<svg width="24" height="24" viewBox="0 0 24 24" fill="none" xmlns="http://www.w3.org/2000/svg">
<g clip-path="url(#clip0_15_6812)">
<path d="M12 24C18.6274 24 24 18.6274 24 12C24 5.37258 18.6274 0 12 0C5.37258 0 0 5.37258 0 12C0 18.6274 5.37258 24 12 24Z" fill="#338AF3"/>
<path d="M12.0002 5.21753L12.5182 6.81184H14.1946L12.8384 7.7972L13.3564 9.39147L12.0002 8.40615L10.644 9.39147L11.1621 7.7972L9.80585 6.81184H11.4822L12.0002 5.21753Z" fill="#F0F0F0"/>
<path d="M5.21735 11.9997L6.81166 11.4816V9.80518L7.79702 11.1615L9.39128 10.6434L8.40597 11.9997L9.39128 13.3558L7.79702 12.8377L6.81166 14.1939V12.5176L5.21735 11.9997Z" fill="#F0F0F0"/>
<path d="M12.0003 18.7831L11.4823 17.1888H9.80585L11.1621 16.2034L10.6441 14.6091L12.0003 15.5944L13.3564 14.6091L12.8384 16.2034L14.1946 17.1888H12.5183L12.0003 18.7831Z" fill="#F0F0F0"/>
<path d="M18.7829 11.9995L17.1886 12.5176V14.1939L16.2032 12.8377L14.6089 13.3557L15.5943 11.9995L14.6089 10.6434L16.2032 11.1615L17.1886 9.80518V11.4816L18.7829 11.9995Z" fill="#F0F0F0"/>
</g>
<defs>
<clipPath id="clip0_15_6812">
<rect width="24" height="24" fill="white"/>
</clipPath>
</defs>
</svg>
