<svg width="24" height="24" viewBox="0 0 24 24" fill="none" xmlns="http://www.w3.org/2000/svg">
<g clip-path="url(#clip0_15_6903)">
<path d="M23.2532 16.175C23.7356 14.875 23.9996 13.4689 23.9996 12.0011C23.9996 10.5332 23.7356 9.12721 23.2532 7.82718L11.9996 6.78369L0.745994 7.82718C0.26365 9.12721 -0.000396729 10.5332 -0.000396729 12.0011C-0.000396729 13.4689 0.26365 14.875 0.745994 16.175L11.9996 17.2184L23.2532 16.175Z" fill="#FFDA44"/>
<path d="M12.0004 23.9997C17.1599 23.9997 21.5585 20.7432 23.254 16.1736H0.746735C2.4423 20.7432 6.84077 23.9997 12.0004 23.9997Z" fill="#0052B4"/>
<path d="M12.0004 0.000732422C6.84077 0.000732422 2.4423 3.25723 0.746735 7.82684H23.254C21.5585 3.25723 17.1599 0.000732422 12.0004 0.000732422Z" fill="#6DA544"/>
</g>
<defs>
<clipPath id="clip0_15_6903">
<rect width="24" height="24" fill="white"/>
</clipPath>
</defs>
</svg>
