<svg width="24" height="24" viewBox="0 0 24 24" fill="none" xmlns="http://www.w3.org/2000/svg">
<g clip-path="url(#clip0_15_6891)">
<path d="M0 11.9991C0 13.467 0.264047 14.873 0.746391 16.173L12 16.6948L23.2536 16.1731C23.736 14.873 24 13.467 24 11.9991C24 10.5313 23.736 9.12522 23.2536 7.82523L12 7.30347L0.746391 7.82519C0.264047 9.12522 0 10.5313 0 11.9991Z" fill="#FFDA44"/>
<path d="M11.9998 -0.000976562C6.84019 -0.000976562 2.44167 3.25552 0.746155 7.82513H23.2534C21.5579 3.25552 17.1593 -0.000976562 11.9998 -0.000976562Z" fill="#D80027"/>
<path d="M23.2536 16.1741H0.746338C2.44185 20.7436 6.84037 24.0002 11.9999 24.0002C17.1595 24.0002 21.558 20.7436 23.2536 16.1741Z" fill="#496E2D"/>
<path d="M11.9998 7.82617L13.0358 11.0146H16.3886L13.6763 12.9854L14.7123 16.174L11.9998 14.2033L9.28741 16.174L10.3235 12.9854L7.61121 11.0146H10.9639L11.9998 7.82617Z" fill="black"/>
</g>
<defs>
<clipPath id="clip0_15_6891">
<rect width="24" height="24" fill="white"/>
</clipPath>
</defs>
</svg>
