<svg width="24" height="24" viewBox="0 0 24 24" fill="none" xmlns="http://www.w3.org/2000/svg">
<g clip-path="url(#clip0_15_6860)">
<path d="M16.1743 0.746437C14.8743 0.264047 13.4682 0 12.0003 0C10.5325 0 9.12645 0.264047 7.82651 0.746344L7.30475 12L7.82647 23.2537C9.12645 23.736 10.5325 24 12.0003 24C13.4682 24 14.8743 23.736 16.1743 23.2536L16.6961 12L16.1743 0.746437Z" fill="#FFDA44"/>
<path d="M6.10352e-05 12.0002C6.10352e-05 17.1598 3.25656 21.5583 7.82617 23.2538V0.746582C3.25656 2.44214 6.10352e-05 6.84061 6.10352e-05 12.0002Z" fill="#D80027"/>
<path d="M23.9996 12.0002C23.9996 6.84061 20.7431 2.44214 16.1735 0.746582V23.2538C20.7431 21.5583 23.9996 17.1598 23.9996 12.0002Z" fill="#6DA544"/>
</g>
<defs>
<clipPath id="clip0_15_6860">
<rect width="24" height="24" fill="white"/>
</clipPath>
</defs>
</svg>
