<svg width="24" height="24" viewBox="0 0 24 24" fill="none" xmlns="http://www.w3.org/2000/svg">
<g clip-path="url(#clip0_15_6878)">
<path d="M5.23633 21.9124C7.16214 23.2289 9.49089 23.9994 11.9998 23.9994C14.5087 23.9994 16.8374 23.2289 18.7632 21.9124L11.9998 20.8689L5.23633 21.9124Z" fill="#D80027"/>
<path d="M18.7641 2.08697C16.8382 0.770484 14.5095 0 12.0006 0C9.49174 0 7.16299 0.770484 5.23718 2.08697L12.0006 3.13045L18.7641 2.08697Z" fill="#D80027"/>
<path d="M23.9996 12.0004C23.9996 8.02965 21.6223 4.042 18.763 2.0874H5.23612C2.07473 4.24853 -0.000427246 7.882 -0.000427246 12.0004C-0.000427246 16.119 2.07473 19.7523 5.23612 21.9135H18.763C21.9245 19.7523 23.9996 16.119 23.9996 12.0004Z" fill="#0052B4"/>
<path d="M11.3208 19.5748C11.1568 19.4342 7.3042 16.0851 7.3042 12C7.3042 7.91486 11.1568 4.56569 11.3208 4.42511L11.9999 3.84302L12.6789 4.42506C12.8429 4.56569 16.6955 7.91481 16.6955 12C16.6955 16.0851 12.843 19.4343 12.6789 19.5748L11.9999 20.1569L11.3208 19.5748Z" fill="#D80027"/>
<path d="M15.6524 11.9999C15.6524 8.34774 12.0003 5.21729 12.0003 5.21729C12.0003 5.21729 8.34808 8.34783 8.34808 11.9999C8.34808 13.1172 8.69013 14.1854 9.1646 15.1304H14.8359C15.3104 14.1854 15.6524 13.1172 15.6524 11.9999Z" fill="#338AF3"/>
<path d="M15.6524 12.0005C15.6524 13.1178 15.3104 14.186 14.8359 15.1309L12.0003 15.6527L9.1646 15.1309C8.69013 14.186 8.34808 13.1178 8.34808 12.0005H15.6524Z" fill="#0052B4"/>
<path d="M12.0001 18.7823C12.0001 18.7823 13.7592 17.274 14.8357 15.1301H9.16443C10.241 17.274 12.0001 18.7823 12.0001 18.7823Z" fill="#FFDA44"/>
<path d="M9.65167 9.9126H14.3473L11.9995 12.2604L9.65167 9.9126Z" fill="#6DA544"/>
<path d="M12.7827 11.4773H11.2175V16.173H12.7827V11.4773Z" fill="#A2001D"/>
</g>
<defs>
<clipPath id="clip0_15_6878">
<rect width="24" height="24" fill="white"/>
</clipPath>
</defs>
</svg>
