<svg width="24" height="24" viewBox="0 0 24 24" fill="none" xmlns="http://www.w3.org/2000/svg">
<g clip-path="url(#clip0_15_6865)">
<path d="M11.9996 0C10.9165 0 9.86723 0.144375 8.86912 0.413391L7.82568 12L8.86917 23.5866C9.86723 23.8556 10.9165 24 11.9996 24C18.6269 24 23.9996 18.6274 23.9996 12C23.9996 5.37262 18.6269 0 11.9996 0Z" fill="#FFDA44"/>
<path d="M7.82568 12.0005L8.86917 23.5871C9.86723 23.8561 10.9165 24.0005 11.9996 24.0005C18.6269 24.0005 23.9996 18.6279 23.9996 12.0005H7.82568Z" fill="#6DA544"/>
<path d="M0.00012207 11.9994C0.00012207 16.5479 2.5309 20.5051 6.26098 22.5403V1.4585C2.5309 3.49372 0.00012207 7.4509 0.00012207 11.9994Z" fill="#D80027"/>
<path d="M0.000183105 11.9995C0.000183105 17.5438 3.76054 22.2091 8.86973 23.5861V0.412842C3.76054 1.78984 0.000183105 6.45512 0.000183105 11.9995Z" fill="#D80027"/>
<path d="M4.53456 8.86841L5.31151 11.2598H7.82617L5.79189 12.7378L6.56879 15.1293L4.53456 13.6513L2.50023 15.1293L3.27732 12.7378L1.24304 11.2598H3.75756L4.53456 8.86841Z" fill="black"/>
</g>
<defs>
<clipPath id="clip0_15_6865">
<rect width="24" height="24" fill="white"/>
</clipPath>
</defs>
</svg>
