<svg width="24" height="24" viewBox="0 0 24 24" fill="none" xmlns="http://www.w3.org/2000/svg">
<g clip-path="url(#clip0_15_6857)">
<path d="M12 24C18.6274 24 24 18.6274 24 12C24 5.37258 18.6274 0 12 0C5.37258 0 0 5.37258 0 12C0 18.6274 5.37258 24 12 24Z" fill="#F0F0F0"/>
<path d="M12 -0.000976562C9.87837 -0.000976562 7.88581 0.550367 6.15649 1.51646V22.4816C7.88585 23.4477 9.87837 23.999 12 23.999C18.6274 23.999 24 18.6264 24 11.999C24 5.37165 18.6274 -0.000976562 12 -0.000976562Z" fill="#6DA544"/>
<path d="M6.19196 1.49817C5.43704 1.91653 4.73214 2.41378 4.08812 2.97909C4.15323 2.922 4.219 2.86556 4.28528 2.80987L13.4758 12.0005L4.28523 21.1911C4.2189 21.1354 4.15318 21.0789 4.08807 21.0218C4.73209 21.5872 5.43704 22.0844 6.19192 22.5028L24.0002 12.0005L6.19196 1.49817Z" fill="#F0F0F0"/>
<path d="M5.17818 2.12695C4.81223 2.38036 4.46076 2.65303 4.12584 2.94445L11.9999 11.9997L4.12579 21.0549C4.46072 21.3463 4.81218 21.619 5.17814 21.8724L21.9457 11.9997L5.17818 2.12695Z" fill="#FFDA44"/>
<path d="M4.28492 2.80981C4.01815 3.03397 3.76071 3.26896 3.51453 3.5151L10.9564 12.0004L3.51453 20.4857C3.76071 20.7319 4.0181 20.9669 4.28492 21.191L13.4755 12.0004L4.28492 2.80981Z" fill="black"/>
<path d="M3.51471 3.51428C-1.17157 8.20056 -1.17157 15.7986 3.51471 20.4849C5.45126 18.5484 7.31375 16.6859 12 11.9996L3.51471 3.51428Z" fill="#D80027"/>
</g>
<defs>
<clipPath id="clip0_15_6857">
<rect width="24" height="24" fill="white"/>
</clipPath>
</defs>
</svg>
