<svg width="24" height="24" viewBox="0 0 24 24" fill="none" xmlns="http://www.w3.org/2000/svg">
<g clip-path="url(#clip0_15_6853)">
<path d="M12 24C18.6274 24 24 18.6274 24 12C24 5.37258 18.6274 0 12 0C5.37258 0 0 5.37258 0 12C0 18.6274 5.37258 24 12 24Z" fill="#D80027"/>
<path d="M13.2391 9.07752C12.9664 10.2118 12.4818 9.99552 12.244 10.9848C10.8433 10.648 9.98058 9.23938 10.3174 7.83852C10.654 6.43775 12.0628 5.57506 13.4636 5.91186C12.9879 7.89031 13.4831 8.063 13.2391 9.07752Z" fill="#F0F0F0"/>
<path d="M9.6042 9.91749C10.5987 10.5273 10.2432 10.9214 11.1105 11.4533C10.3573 12.6815 8.75117 13.0665 7.52295 12.3134C6.29478 11.5603 5.9096 9.954 6.66279 8.72583C8.39745 9.78952 8.71456 9.372 9.6042 9.91749Z" fill="#F0F0F0"/>
<path d="M9.28001 13.6349C10.1674 12.8775 10.4322 13.3373 11.2061 12.6769C12.1414 13.7727 12.0113 15.4193 10.9156 16.3547C9.81973 17.2901 8.1731 17.1598 7.23785 16.0641C8.78538 14.743 8.48627 14.3123 9.28001 13.6349Z" fill="#F0F0F0"/>
<path d="M12.7152 15.0914C12.2689 14.0135 12.7881 13.9036 12.3991 12.9636C13.7303 12.4127 15.2562 13.0452 15.8072 14.3764C16.3581 15.7076 15.7255 17.2334 14.3943 17.7844C13.6163 15.9043 13.1143 16.0557 12.7152 15.0914Z" fill="#F0F0F0"/>
<path d="M15.162 12.2739C13.9989 12.3652 14.0547 11.8374 13.0406 11.917C12.9279 10.4808 14.0011 9.22495 15.4374 9.11222C16.8736 8.99976 18.1294 10.0728 18.242 11.5092C16.2134 11.6682 16.2022 12.1924 15.162 12.2739Z" fill="#F0F0F0"/>
</g>
<defs>
<clipPath id="clip0_15_6853">
<rect width="24" height="24" fill="white"/>
</clipPath>
</defs>
</svg>
