<svg width="24" height="24" viewBox="0 0 24 24" fill="none" xmlns="http://www.w3.org/2000/svg">
<g clip-path="url(#clip0_15_6854)">
<path d="M12 24C18.6274 24 24 18.6274 24 12C24 5.37258 18.6274 0 12 0C5.37258 0 0 5.37258 0 12C0 18.6274 5.37258 24 12 24Z" fill="#F0F0F0"/>
<path d="M12.0002 23.9987C16.7577 23.9987 20.8685 21.23 22.8095 17.2161H1.19092C3.13192 21.23 7.24267 23.9987 12.0002 23.9987Z" fill="#338AF3"/>
<path d="M12.0009 -0.000976562C7.24334 -0.000976562 3.13259 2.7677 1.19159 6.78165H22.8101C20.8691 2.7677 16.7584 -0.000976562 12.0009 -0.000976562Z" fill="#338AF3"/>
<path d="M7.38553 7.82446L7.77403 9.0202H9.03126L8.01417 9.75913L8.40272 10.9549L7.38553 10.2159L6.36834 10.9549L6.75689 9.75913L5.73975 9.0202H6.99698L7.38553 7.82446Z" fill="#338AF3"/>
<path d="M7.38553 13.0425L7.77403 14.2383H9.03126L8.01417 14.9772L8.40272 16.1729L7.38553 15.4339L6.36834 16.1729L6.75689 14.9772L5.73975 14.2383H6.99698L7.38553 13.0425Z" fill="#338AF3"/>
<path d="M16.6151 7.82446L17.0037 9.0202H18.2609L17.2438 9.75913L17.6323 10.9549L16.6151 10.2159L15.598 10.9549L15.9865 9.75913L14.9694 9.0202H16.2266L16.6151 7.82446Z" fill="#338AF3"/>
<path d="M16.6151 13.0425L17.0037 14.2383H18.2609L17.2438 14.9772L17.6323 16.1729L16.6151 15.4339L15.598 16.1729L15.9865 14.9772L14.9694 14.2383H16.2266L16.6151 13.0425Z" fill="#338AF3"/>
<path d="M12 10.4333L12.3885 11.6291H13.6457L12.6286 12.3681L13.0172 13.5638L12 12.8248L10.9828 13.5638L11.3713 12.3681L10.3542 11.6291H11.6114L12 10.4333Z" fill="#338AF3"/>
</g>
<defs>
<clipPath id="clip0_15_6854">
<rect width="24" height="24" fill="white"/>
</clipPath>
</defs>
</svg>
