<svg width="24" height="24" viewBox="0 0 24 24" fill="none" xmlns="http://www.w3.org/2000/svg">
<g clip-path="url(#clip0_15_6861)">
<path d="M24 11.9999C24 10.532 23.736 9.1259 23.2536 7.82596L12 7.3042L0.746391 7.82592C0.264047 9.1259 0 10.532 0 11.9999C0 13.4677 0.264047 14.8738 0.746391 16.1737L12 16.6955L23.2536 16.1738C23.736 14.8738 24 13.4677 24 11.9999Z" fill="#F0F0F0"/>
<path d="M11.9999 23.9995C17.1595 23.9995 21.558 20.743 23.2536 16.1733H0.746338C2.44185 20.743 6.84037 23.9995 11.9999 23.9995Z" fill="#0052B4"/>
<path d="M0.746185 7.8266H23.2534C21.5579 3.25699 17.1594 0.000488281 11.9998 0.000488281C6.84022 0.000488281 2.4417 3.25699 0.746185 7.8266Z" fill="#D80027"/>
<path d="M15.1301 8.34753H13.0432L13.391 5.7388L14.7823 4.69531L16.1736 5.7388V7.82576L15.1301 8.34753Z" fill="#338AF3"/>
<path d="M8.86921 8.34802H10.9562L10.6083 5.73928L9.21702 4.6958L7.82578 5.73928V7.82625L8.86921 8.34802Z" fill="#338AF3"/>
<path d="M13.3909 8.34777H10.6082V5.73904L11.9996 4.69556L13.3909 5.73904V8.34777Z" fill="#0052B4"/>
<path d="M7.82578 7.82568V13.5648C7.82578 14.9313 8.48587 16.1466 9.504 16.9085L10.2344 16.7257L11.1562 17.653C11.4288 17.7091 11.7108 17.7387 11.9997 17.7387C12.2871 17.7387 12.5677 17.7095 12.8388 17.6539L13.891 16.7778L14.4953 16.9068C15.513 16.145 16.1736 14.9309 16.1736 13.5648V7.82568H7.82578Z" fill="#F0F0F0"/>
<path d="M9.49557 7.82593H7.82602V9.49548H9.49557V7.82593Z" fill="#D80027"/>
<path d="M12.8348 7.82593H11.1652V9.49548H12.8348V7.82593Z" fill="#D80027"/>
<path d="M16.1741 7.82593H14.5046V9.49548H16.1741V7.82593Z" fill="#D80027"/>
<path d="M11.1648 9.49487H9.49527V11.1644H11.1648V9.49487Z" fill="#D80027"/>
<path d="M14.504 9.49487H12.8344V11.1644H14.504V9.49487Z" fill="#D80027"/>
<path d="M9.49557 11.1638H7.82602V12.8334H9.49557V11.1638Z" fill="#D80027"/>
<path d="M11.1648 12.8347H9.49527V14.5043H11.1648V12.8347Z" fill="#D80027"/>
<path d="M12.8348 11.1638H11.1652V12.8334H12.8348V11.1638Z" fill="#D80027"/>
<path d="M16.1741 11.1638H14.5046V12.8334H16.1741V11.1638Z" fill="#D80027"/>
<path d="M14.504 12.8347H12.8344V14.5043H14.504V12.8347Z" fill="#D80027"/>
<path d="M12.8348 14.5039H11.1652V16.1734H12.8348V14.5039Z" fill="#D80027"/>
<path d="M9.49542 14.5039H7.93359C8.07684 15.1245 8.35847 15.6924 8.74462 16.1734H9.49542V14.5039Z" fill="#D80027"/>
<path d="M14.5046 16.1737H15.2553C15.6416 15.6927 15.9231 15.1247 16.0664 14.5042H14.5046V16.1737Z" fill="#D80027"/>
<path d="M9.49527 16.1731V16.9016C9.98085 17.267 10.5483 17.529 11.1648 17.6547V16.1731H9.49527Z" fill="#D80027"/>
<path d="M12.8344 16.1731V17.6547C13.451 17.5291 14.0184 17.267 14.504 16.9016V16.1731H12.8344Z" fill="#D80027"/>
</g>
<defs>
<clipPath id="clip0_15_6861">
<rect width="24" height="24" fill="white"/>
</clipPath>
</defs>
</svg>
