<svg width="24" height="24" viewBox="0 0 24 24" fill="none" xmlns="http://www.w3.org/2000/svg">
<g clip-path="url(#clip0_15_6844)">
<path d="M12 24C18.6274 24 24 18.6274 24 12C24 5.37258 18.6274 0 12 0C5.37258 0 0 5.37258 0 12C0 18.6274 5.37258 24 12 24Z" fill="#F0F0F0"/>
<path d="M16.5179 9.39213H13.5056L11.9995 6.78345L10.4935 9.39213H7.48108L8.98736 12.0008L7.48108 14.6095H10.4935L11.9995 17.2182L13.5056 14.6095H16.5179L15.0116 12.0008L16.5179 9.39213ZM13.8499 12.0008L12.9248 13.6034H11.0744L10.1491 12.0008L11.0743 10.3983H12.9247L13.8499 12.0008ZM11.9995 8.79565L12.3439 9.39209H11.6553L11.9995 8.79565ZM9.22385 10.3983H9.91253L9.56819 10.9947L9.22385 10.3983ZM9.22385 13.6034L9.56824 13.0069L9.91258 13.6034H9.22385ZM11.9995 15.2059L11.6552 14.6095H12.3439L11.9995 15.2059ZM14.7752 13.6034H14.0865L14.4309 13.0069L14.7752 13.6034ZM14.0865 10.3983H14.7752L14.4308 10.9947L14.0865 10.3983Z" fill="#0052B4"/>
<path d="M19.4696 2.60913H4.52985C3.43471 3.48138 2.49552 4.54085 1.76099 5.73958H22.2384C21.5038 4.5409 20.5647 3.48138 19.4696 2.60913Z" fill="#0052B4"/>
<path d="M4.52991 21.3914H19.4696C20.5647 20.5192 21.5039 19.4597 22.2384 18.261H1.76105C2.49563 19.4597 3.43481 20.5192 4.52991 21.3914Z" fill="#0052B4"/>
</g>
<defs>
<clipPath id="clip0_15_6844">
<rect width="24" height="24" fill="white"/>
</clipPath>
</defs>
</svg>
