<svg width="24" height="24" viewBox="0 0 24 24" fill="none" xmlns="http://www.w3.org/2000/svg">
<g clip-path="url(#clip0_15_6850)">
<path d="M12 24C18.6274 24 24 18.6274 24 12C24 5.37258 18.6274 0 12 0C5.37258 0 0 5.37258 0 12C0 18.6274 5.37258 24 12 24Z" fill="#F0F0F0"/>
<path d="M12 -0.000976562C7.24248 -0.000976562 3.13173 2.7677 1.19073 6.78165H22.8092C20.8683 2.7677 16.7575 -0.000976562 12 -0.000976562Z" fill="#FF9811"/>
<path d="M12 23.9997C16.7575 23.9997 20.8683 21.231 22.8093 17.217H1.19073C3.13173 21.231 7.24248 23.9997 12 23.9997Z" fill="#6DA544"/>
<path d="M12.0004 16.1732C14.3055 16.1732 16.1743 14.3045 16.1743 11.9993C16.1743 9.69415 14.3055 7.82544 12.0004 7.82544C9.69519 7.82544 7.82648 9.69415 7.82648 11.9993C7.82648 14.3045 9.69519 16.1732 12.0004 16.1732Z" fill="#0052B4"/>
<path d="M12.0001 14.608C13.4408 14.608 14.6088 13.44 14.6088 11.9993C14.6088 10.5586 13.4408 9.39062 12.0001 9.39062C10.5594 9.39062 9.39142 10.5586 9.39142 11.9993C9.39142 13.44 10.5594 14.608 12.0001 14.608Z" fill="#F0F0F0"/>
<path d="M12.0004 8.78088L12.8052 10.6061L14.7882 10.3904L13.6099 12L14.7882 13.6095L12.8052 13.3939L12.0004 15.2191L11.1956 13.3939L9.21259 13.6095L10.3908 12L9.21259 10.3904L11.1956 10.6061L12.0004 8.78088Z" fill="#0052B4"/>
</g>
<defs>
<clipPath id="clip0_15_6850">
<rect width="24" height="24" fill="white"/>
</clipPath>
</defs>
</svg>
