<svg width="24" height="24" viewBox="0 0 24 24" fill="none" xmlns="http://www.w3.org/2000/svg">
<g clip-path="url(#clip0_15_6931)">
<path d="M12 24C18.6274 24 24 18.6274 24 12C24 5.37258 18.6274 0 12 0C5.37258 0 0 5.37258 0 12C0 18.6274 5.37258 24 12 24Z" fill="#F0F0F0"/>
<path d="M21.9999 13.4358C20.9999 13.4358 20.9999 12.5215 19.9999 12.5215C18.9999 12.5215 18.9999 13.4358 18 13.4358C17 13.4358 17 12.5215 16 12.5215C15 12.5215 15 13.4358 14 13.4358C13 13.4358 12.9999 12.5215 11.9999 12.5215C10.9999 12.5215 10.9999 13.4358 9.99994 13.4358C9.00009 13.4358 9.00009 12.5215 8.00011 12.5215C7.00003 12.5215 7.00003 13.4358 5.99995 13.4358C4.99987 13.4358 4.99987 12.5215 3.9998 12.5215C2.99995 12.5215 2.99995 13.4358 1.99997 13.4358C1.00537 13.4358 0.999609 12.5316 0.0156555 12.5219C0.0433586 13.0708 0.10889 13.6097 0.207984 14.1367C1.00505 14.2538 1.07484 15.0358 2.00006 15.0358C3.00005 15.0358 3.00005 14.1215 3.99989 14.1215C4.99997 14.1215 4.99997 15.0358 6.00005 15.0358C7.00012 15.0358 7.00012 14.1215 8.0002 14.1215C9.00019 14.1215 9.00019 15.0358 10 15.0358C11 15.0358 11 14.1215 12 14.1215C13 14.1215 13 15.0358 14.0001 15.0358C15.0002 15.0358 15.0002 14.1215 16.0001 14.1215C17.0001 14.1215 17.0001 15.0358 18 15.0358C19 15.0358 19 14.1215 20 14.1215C21 14.1215 21 15.0358 22 15.0358C22.9253 15.0358 22.995 14.2538 23.7922 14.1367C23.8913 13.6096 23.9567 13.0708 23.9846 12.5219C23.0004 12.5316 22.9945 13.4358 21.9999 13.4358Z" fill="#0052B4"/>
<path d="M20 15.6514C19 15.6514 19 16.5657 18 16.5657C17.0001 16.5657 17.0001 15.6514 16.0001 15.6514C15.0001 15.6514 15.0001 16.5657 14.0001 16.5657C13 16.5657 13 15.6514 12 15.6514C11 15.6514 11 16.5657 10 16.5657C9.00019 16.5657 9.00019 15.6514 8.0002 15.6514C7.00012 15.6514 7.00012 16.5657 6.00005 16.5657C4.99997 16.5657 4.99997 15.6514 3.99989 15.6514C3.00005 15.6514 3.00005 16.5657 2.00006 16.5657C1.26342 16.5657 1.06894 16.0699 0.617859 15.8087C0.891046 16.6252 1.24987 17.4023 1.68323 18.13C1.77708 18.1527 1.88142 18.1657 2.00002 18.1657C3 18.1657 3 17.2515 3.99984 17.2515C4.99992 17.2515 4.99992 18.1657 6 18.1657C7.00008 18.1657 7.00008 17.2515 8.00016 17.2515C9.00014 17.2515 9.00014 18.1657 9.99998 18.1657C11 18.1657 11 17.2515 11.9999 17.2515C13 17.2515 13 18.1657 14.0001 18.1657C15.0001 18.1657 15.0001 17.2515 16.0001 17.2515C17.0001 17.2515 17.0001 18.1657 18 18.1657C18.9999 18.1657 19 17.2515 19.9999 17.2515C21 17.2515 21 18.1657 21.9999 18.1657C22.1186 18.1657 22.2231 18.1527 22.317 18.13C22.7504 17.4023 23.1091 16.6252 23.3823 15.8087C22.9312 16.0699 22.7367 16.5658 21.9999 16.5658C21 16.5657 21 15.6514 20 15.6514Z" fill="#0052B4"/>
<path d="M23.721 9.4194C22.99 9.57113 22.8968 10.3059 22 10.3059C21 10.3059 21 9.3916 20 9.3916C19 9.3916 19 10.3059 18.0001 10.3059C17.0001 10.3059 17.0001 9.3916 16.0002 9.3916C15.0002 9.3916 15.0002 10.3059 14.0001 10.3059C13.0001 10.3059 13.0001 9.3916 12 9.3916C11.4597 9.3916 11.2112 9.65851 10.9393 9.90394V11.5039C11.2112 11.2585 11.4596 10.9917 12 10.9917C13.0001 10.9917 13.0001 11.9059 14.0001 11.9059C15.0002 11.9059 15.0002 10.9917 16.0002 10.9917C17.0001 10.9917 17.0001 11.9059 18.0001 11.9059C19 11.9059 19.0001 10.9917 20 10.9917C21.0001 10.9917 21.0001 11.9059 22 11.9059C22.9253 11.9059 22.9951 11.124 23.7922 11.0069C23.8433 11.0069 23.9004 11.0063 23.9588 11.0056C23.9145 10.466 23.8344 9.93647 23.721 9.4194Z" fill="#0052B4"/>
<path d="M22.8444 6.85721C22.6372 7.03126 22.3976 7.17582 22 7.17582C21 7.17582 21 6.26147 20 6.26147C19 6.26147 19 7.17582 18.0001 7.17582C17.0001 7.17582 17.0001 6.26147 16.0002 6.26147C15.0002 6.26147 15.0002 7.17582 14.0001 7.17582C13.0001 7.17582 13.0001 6.26147 12 6.26147C11.4597 6.26147 11.2112 6.52838 10.9393 6.77382V8.3738C11.2112 8.12841 11.4596 7.86155 12 7.86155C13.0001 7.86155 13.0001 8.7758 14.0001 8.7758C15.0001 8.7758 15.0001 7.86155 16.0001 7.86155C17.0001 7.86155 17.0001 8.7758 18 8.7758C19 8.7758 19 7.86155 20 7.86155C21 7.86155 21 8.7758 22 8.7758C22.7095 8.7758 22.9162 8.31619 23.3334 8.04891C23.1912 7.64124 23.0279 7.24351 22.8444 6.85721Z" fill="#0052B4"/>
<path d="M20.0854 3.13256C20.0576 3.13106 20.0294 3.13013 20 3.13013C19 3.13013 19 4.04447 18 4.04447C17.0001 4.04447 17.0001 3.13013 16.0001 3.13013C15.0001 3.13013 15.0001 4.04447 14.0001 4.04447C13 4.04447 13 3.13013 11.9999 3.13013C11.4596 3.13013 11.2111 3.39703 10.9392 3.64247V5.24246C11.2111 4.99707 11.4595 4.73021 11.9999 4.73021C13 4.73021 13 5.64446 14.0001 5.64446C15.0001 5.64446 15.0001 4.73021 16.0001 4.73021C17.0001 4.73021 17.0001 5.64446 18 5.64446C18.9999 5.64446 19 4.73021 19.9999 4.73021C21 4.73021 21 5.64446 21.9999 5.64446C22.0615 5.64446 22.119 5.6408 22.1735 5.63429C21.5927 4.70785 20.8894 3.86611 20.0854 3.13256Z" fill="#0052B4"/>
<path d="M15.0672 0.396188C14.7927 0.643125 14.5446 0.914344 14 0.914344C12.9999 0.914344 12.9999 9.375e-05 11.9998 0H11.9997C11.4825 4.6875e-05 11.2329 0.244594 10.9739 0.480797V2.08083C11.2328 1.84463 11.4826 1.60003 11.9998 1.60003C12.9999 1.60003 12.9999 2.51428 14 2.51428C15 2.51428 15 1.60003 16 1.60003C17 1.60003 17 2.51428 17.9999 2.51428C18.4195 2.51428 18.6629 2.35322 18.8781 2.16637C17.7374 1.36692 16.4512 0.761016 15.0672 0.396188Z" fill="#0052B4"/>
<path d="M14.0004 22.8272C13.0003 22.8272 13.0003 21.9129 12.0003 21.9129C11.0003 21.9129 11.0003 22.8272 10.0003 22.8272C9.00049 22.8272 9.00049 21.9129 8.00051 21.9129C7.23452 21.9129 7.05485 22.4489 6.5636 22.7C7.91829 23.3897 9.42143 23.8294 11.0124 23.9591C11.2584 23.7343 11.5084 23.5129 12.0003 23.5129C12.4923 23.5129 12.7422 23.7343 12.9883 23.9591C14.5793 23.8295 16.0826 23.3898 17.4373 22.7001C16.9459 22.449 16.7663 21.9128 16.0004 21.9128C15.0005 21.9129 15.0005 22.8272 14.0004 22.8272Z" fill="#0052B4"/>
<path d="M18.0002 19.6975C17.0002 19.6975 17.0002 18.7832 16.0003 18.7832C15.0003 18.7832 15.0003 19.6975 14.0003 19.6975C13.0002 19.6975 13.0002 18.7832 12.0001 18.7832C11.0001 18.7832 11.0001 19.6975 10.0002 19.6975C9.00035 19.6975 9.00035 18.7832 8.00036 18.7832C7.00028 18.7832 7.00028 19.6975 6.00021 19.6975C5.00013 19.6975 5.00013 18.7832 4.00005 18.7832C3.28094 18.7832 3.079 19.2562 2.65033 19.5217C2.91902 19.8554 3.20467 20.1748 3.50697 20.4776C3.64239 20.4197 3.8013 20.3832 4 20.3832C5.00008 20.3832 5.00008 21.2975 6.00016 21.2975C7.00024 21.2975 7.00024 20.3832 8.00031 20.3832C9.0003 20.3832 9.0003 21.2975 10.0001 21.2975C11.0001 21.2975 11.0001 20.3832 12.0001 20.3832C13.0001 20.3832 13.0001 21.2975 14.0002 21.2975C15.0003 21.2975 15.0003 20.3832 16.0002 20.3832C17.0002 20.3832 17.0002 21.2975 18.0002 21.2975C19.0001 21.2975 19.0001 20.3832 20.0001 20.3832C20.199 20.3832 20.3579 20.4197 20.4934 20.4777C20.7958 20.1748 21.0814 19.8554 21.3501 19.5218C20.9214 19.2563 20.7195 18.7832 20.0001 18.7832C19.0001 18.7832 19.0001 19.6975 18.0002 19.6975Z" fill="#0052B4"/>
<path d="M11.9675 11.999H11.9996C11.9996 11.9882 11.9996 11.9776 11.9996 11.9668C11.9889 11.9776 11.9782 11.9883 11.9675 11.999Z" fill="#F0F0F0"/>
<path d="M11.9996 6.26147V9.78707L7.82574 5.73975L11.9996 6.26147Z" fill="#0052B4"/>
<path d="M6.2606 12.0006H9.78606L6.26055 7.30493L5.73883 10.9571L6.2606 12.0006Z" fill="#0052B4"/>
<path d="M12 6.26086C12 4.14937 12 2.76586 12 0H11.998C5.3715 0.001125 0 5.37323 0 12H6.2609V8.47448L9.78637 12H11.9679C11.9786 11.9893 11.9893 11.9786 12 11.9679C12 11.1594 12 10.4381 12 9.78647L8.47443 6.26086H12Z" fill="#F0F0F0"/>
<path d="M6.07127 1.56421C4.19444 2.63291 2.63416 4.19319 1.56546 6.07002V11.999H4.69591V4.69476V4.69466H12.0003C12.0003 3.70733 12.0003 2.76674 12.0003 1.56421H6.07127Z" fill="#D80027"/>
<path d="M11.9999 10.5234L7.73643 6.26001H6.2608V6.2601L11.9999 11.9991H11.9999C11.9999 11.9991 11.9999 10.9816 11.9999 10.5234Z" fill="#D80027"/>
<path d="M15.652 6.26099H20.3477L17.9999 8.60882L15.652 6.26099Z" fill="#6DA544"/>
<path d="M18.5222 8.08643H17.4787V10.956H18.5222V8.08643Z" fill="#A2001D"/>
<path d="M18.5212 15.6519H17.4777V18.5214H18.5212V15.6519Z" fill="#A2001D"/>
<path d="M21.1304 14.0872C21.1304 13.2228 20.4296 12.522 19.5652 12.522C19.1643 12.522 18.7987 12.673 18.5217 12.9209V12.0003H19.0435V10.9568H18.5217V10.4351H17.4783V10.9568H16.9565V12.0003H17.4783V12.9209C17.2013 12.673 16.8357 12.522 16.4348 12.522C15.5703 12.522 14.8696 13.2228 14.8696 14.0872C14.8696 14.5507 15.0712 14.9669 15.3913 15.2536V16.1742H20.6087V15.2536C20.9288 14.9669 21.1304 14.5507 21.1304 14.0872Z" fill="#FFDA44"/>
<path d="M19.5647 13.5649C19.4002 13.5649 19.285 13.6372 19.2172 13.6978L18.5213 14.3208H17.4778L16.7819 13.6978C16.7141 13.6372 16.5989 13.5649 16.4343 13.5649C16.1467 13.5649 15.9126 13.799 15.9126 14.0867C15.9126 14.2893 16.0219 14.4173 16.087 14.4757L16.4344 14.7867V15.1301H19.5648V14.7867L19.9122 14.4757C19.9773 14.4174 20.0866 14.2893 20.0866 14.0867C20.0865 13.799 19.8525 13.5649 19.5647 13.5649Z" fill="#D80027"/>
</g>
<defs>
<clipPath id="clip0_15_6931">
<rect width="24" height="24" fill="white"/>
</clipPath>
</defs>
</svg>
