<svg width="24" height="24" viewBox="0 0 24 24" fill="none" xmlns="http://www.w3.org/2000/svg">
<g clip-path="url(#clip0_15_6847)">
<path d="M12 24C18.6274 24 24 18.6274 24 12C24 5.37258 18.6274 0 12 0C5.37258 0 0 5.37258 0 12C0 18.6274 5.37258 24 12 24Z" fill="#F0F0F0"/>
<path d="M11.9998 -0.000610352C6.84019 -0.000610352 2.44167 3.25589 0.746155 7.8255H23.2534C21.5579 3.25589 17.1593 -0.000610352 11.9998 -0.000610352Z" fill="#A2001D"/>
<path d="M11.9999 24.0006C17.1595 24.0006 21.558 20.7441 23.2536 16.1744H0.746338C2.44185 20.7441 6.84037 24.0006 11.9999 24.0006Z" fill="black"/>
<path d="M9.13045 11.2186C9.12389 11.2186 9.11747 11.219 9.1109 11.2191V11.2186H6.81698C6.93328 10.7692 7.341 10.4359 7.82611 10.4359V8.87073C6.38765 8.87073 5.21742 10.041 5.21742 11.4794V12.7577V12.7838H9.1109C9.11972 12.7838 9.12665 12.7838 9.13045 12.7838C9.27431 12.7838 9.39131 12.9009 9.39131 13.0447V13.5664H4.17389V15.1316H10.9565V13.0446C10.9565 12.0377 10.1373 11.2186 9.13045 11.2186Z" fill="#496E2D"/>
<path d="M13.0438 13.5657V8.87H11.4786V15.1309H14.0873V13.5657H13.0438Z" fill="#496E2D"/>
<path d="M18.2607 13.5657V8.87H16.6955V13.5657H16.1737V12.0005H14.6085V15.1309H19.3042V13.5657H18.2607Z" fill="#496E2D"/>
</g>
<defs>
<clipPath id="clip0_15_6847">
<rect width="24" height="24" fill="white"/>
</clipPath>
</defs>
</svg>
