<svg width="24" height="24" viewBox="0 0 24 24" fill="none" xmlns="http://www.w3.org/2000/svg">
<g clip-path="url(#clip0_15_6851)">
<path d="M12 24C18.6274 24 24 18.6274 24 12C24 5.37258 18.6274 0 12 0C5.37258 0 0 5.37258 0 12C0 18.6274 5.37258 24 12 24Z" fill="#F0F0F0"/>
<path d="M0.413269 15.1301C1.10758 17.7063 2.63782 19.9392 4.69553 21.5202V15.1301H0.413269Z" fill="#0052B4"/>
<path d="M10.9562 23.954C11.3002 23.9837 11.6481 23.9997 11.9997 23.9997C17.5441 23.9997 22.2093 20.2393 23.5863 15.1301H10.9562V23.954Z" fill="#0052B4"/>
<path d="M23.5863 8.86918C22.2093 3.75999 17.5441 -0.000366211 11.9997 -0.000366211C11.6481 -0.000366211 11.3002 0.015665 10.9562 0.04529V8.86918H23.5863Z" fill="#0052B4"/>
<path d="M4.69553 2.47937C2.63782 4.06046 1.10758 6.29326 0.413269 8.86946H4.69553V2.47937Z" fill="#0052B4"/>
<path d="M23.8981 10.4352H9.39105H9.39101V0.285645C8.28204 0.531551 7.23068 0.930129 6.26055 1.45949V10.4352H0.101273C0.0344761 10.9476 -0.000305176 11.4699 -0.000305176 12.0004C-0.000305176 12.5309 0.0344761 13.0533 0.101273 13.5656H6.26051H6.26055V22.5413C7.23068 23.0706 8.28204 23.4693 9.39101 23.7151V13.5658V13.5657H23.8981C23.9648 13.0533 23.9997 12.5309 23.9997 12.0004C23.9997 11.4699 23.9648 10.9475 23.8981 10.4352Z" fill="#D80027"/>
</g>
<defs>
<clipPath id="clip0_15_6851">
<rect width="24" height="24" fill="white"/>
</clipPath>
</defs>
</svg>
