<svg width="24" height="24" viewBox="0 0 24 24" fill="none" xmlns="http://www.w3.org/2000/svg">
<g clip-path="url(#clip0_15_6842)">
<path d="M12 24C18.6274 24 24 18.6274 24 12C24 5.37258 18.6274 0 12 0C5.37258 0 0 5.37258 0 12C0 18.6274 5.37258 24 12 24Z" fill="#FFDA44"/>
<path d="M19.3056 2.48087C17.2821 0.92551 14.7492 0.000244141 11.9998 0.000244141C9.25042 0.000244141 6.71748 0.925557 4.69403 2.48087L11.9998 9.78662L19.3056 2.48087Z" fill="#6DA544"/>
<path d="M2.48027 4.6936C0.925007 6.71706 -0.000305176 9.24995 -0.000305176 11.9994C-0.000305176 14.7488 0.925007 17.2817 2.48032 19.3052L9.78612 11.9994L2.48027 4.6936Z" fill="black"/>
<path d="M4.69403 21.5189C6.71753 23.0742 9.25042 23.9995 11.9998 23.9995C14.7492 23.9995 17.2821 23.0742 19.3056 21.5189L11.9998 14.2131L4.69403 21.5189Z" fill="#6DA544"/>
<path d="M21.5193 19.3051C23.0747 17.2816 23.9999 14.7488 23.9999 11.9994C23.9999 9.24995 23.0747 6.71706 21.5193 4.6936L14.2136 11.9994L21.5193 19.3051Z" fill="black"/>
</g>
<defs>
<clipPath id="clip0_15_6842">
<rect width="24" height="24" fill="white"/>
</clipPath>
</defs>
</svg>
