<svg width="24" height="24" viewBox="0 0 24 24" fill="none" xmlns="http://www.w3.org/2000/svg">
<g clip-path="url(#clip0_15_6837)">
<path d="M12 24C18.6274 24 24 18.6274 24 12C24 5.37258 18.6274 0 12 0C5.37258 0 0 5.37258 0 12C0 18.6274 5.37258 24 12 24Z" fill="#F0F0F0"/>
<path d="M12.0003 -0.000732422C7.24279 -0.000732422 3.13204 2.76794 1.19104 6.78189H22.8096C20.8686 2.76794 16.7578 -0.000732422 12.0003 -0.000732422Z" fill="black"/>
<path d="M12.0003 24.0002C7.24279 24.0002 3.13204 21.2315 1.19104 17.2175H22.8096C20.8686 21.2315 16.7578 24.0002 12.0003 24.0002Z" fill="#496E2D"/>
<path d="M23.4335 8.34717H0.566794C0.1992 9.49884 0.00012207 10.7258 0.00012207 11.9993C0.00012207 13.2729 0.1992 14.4998 0.566794 15.6515H23.4334C23.801 14.4998 24.0001 13.2729 24.0001 11.9993C24.0001 10.7258 23.801 9.49884 23.4335 8.34717Z" fill="#A2001D"/>
<path d="M15.7368 5.54508L14.3157 4.88916L12.0002 10.1322L9.68466 4.88916L8.26355 5.54508L11.1383 11.9997L8.26355 18.4544L9.68466 19.1103L12.0002 13.8673L14.3157 19.1103L15.7368 18.4544L12.8621 11.9997L15.7368 5.54508Z" fill="#F0F0F0"/>
<path d="M12.9654 6.16321C12.4153 5.56242 12.0002 5.21704 12.0002 5.21704C12.0002 5.21704 11.5851 5.56237 11.035 6.16321V17.836C11.5851 18.4369 12.0002 18.7823 12.0002 18.7823C12.0002 18.7823 12.4153 18.437 12.9654 17.8361V6.16321Z" fill="#F0F0F0"/>
<path d="M9.39166 8.40238V15.5983C9.97301 16.6283 10.6845 17.4726 11.2178 18.0324V5.96826C10.6845 6.528 9.97296 7.37235 9.39166 8.40238Z" fill="#A2001D"/>
<path d="M14.6088 8.40287C14.0274 7.3728 13.316 6.52848 12.7827 5.96875V18.0329C13.3159 17.4731 14.0274 16.6288 14.6088 15.5987V8.40287Z" fill="#A2001D"/>
<path d="M14.6087 8.40088V15.5968C15.1972 14.5538 15.6522 13.3206 15.6522 11.9989C15.6522 10.6771 15.1972 9.44385 14.6087 8.40088Z" fill="black"/>
<path d="M9.39126 8.40088V15.5968C8.80275 14.5538 8.34778 13.3206 8.34778 11.9989C8.34778 10.6771 8.80275 9.44385 9.39126 8.40088Z" fill="black"/>
</g>
<defs>
<clipPath id="clip0_15_6837">
<rect width="24" height="24" fill="white"/>
</clipPath>
</defs>
</svg>
