<svg width="24" height="24" viewBox="0 0 24 24" fill="none" xmlns="http://www.w3.org/2000/svg">
<g clip-path="url(#clip0_15_6834)">
<path d="M12 24C18.6274 24 24 18.6274 24 12C24 5.37258 18.6274 0 12 0C5.37258 0 0 5.37258 0 12C0 18.6274 5.37258 24 12 24Z" fill="#D80027"/>
<path d="M17.8682 12.0001L15.4703 13.128L16.7472 15.4505L14.1432 14.9523L13.8134 17.5827L11.9995 15.6482L10.1859 17.5827L9.8559 14.9523L7.25209 15.4504L8.52897 13.1279L6.13098 12.0001L8.52897 10.8722L7.25209 8.54968L9.85581 9.04796L10.186 6.41748L11.9995 8.35206L13.8135 6.41748L14.1432 9.04796L16.7473 8.54968L15.4704 10.8724L17.8682 12.0001Z" fill="#FFDA44"/>
<path d="M12.0003 15.6515C14.0173 15.6515 15.6524 14.0164 15.6524 11.9993C15.6524 9.9823 14.0173 8.34717 12.0003 8.34717C9.98322 8.34717 8.34808 9.9823 8.34808 11.9993C8.34808 14.0164 9.98322 15.6515 12.0003 15.6515Z" fill="#D80027"/>
<path d="M10.1742 12.0005C10.0862 12.0005 9.99931 12.005 9.91357 12.0135C9.91671 12.5193 10.0997 12.9823 10.402 13.342C10.5632 12.9081 10.804 12.5124 11.1076 12.1738C10.8176 12.0623 10.503 12.0005 10.1742 12.0005Z" fill="#FFDA44"/>
<path d="M11.2984 13.967C11.5178 14.0454 11.754 14.0884 12.0004 14.0884C12.2467 14.0884 12.4829 14.0454 12.7023 13.967C12.5827 13.4977 12.3358 13.0788 12.0004 12.7495C11.6649 13.0787 11.418 13.4977 11.2984 13.967Z" fill="#FFDA44"/>
<path d="M13.8078 10.9574C13.4469 10.3337 12.773 9.91357 12.0005 9.91357C11.228 9.91357 10.5541 10.3336 10.1932 10.9574C10.8511 10.9607 11.468 11.1396 12.0005 11.4484C12.5331 11.1396 13.1498 10.9607 13.8078 10.9574Z" fill="#FFDA44"/>
<path d="M12.8926 12.174C13.1963 12.5126 13.437 12.9083 13.5983 13.3422C13.9005 12.9826 14.0835 12.5196 14.0866 12.0138C14.0009 12.0052 13.914 12.0007 13.8261 12.0007C13.4973 12.0007 13.1827 12.0625 12.8926 12.174Z" fill="#FFDA44"/>
</g>
<defs>
<clipPath id="clip0_15_6834">
<rect width="24" height="24" fill="white"/>
</clipPath>
</defs>
</svg>
