<svg width="24" height="24" viewBox="0 0 24 24" fill="none" xmlns="http://www.w3.org/2000/svg">
<g clip-path="url(#clip0_15_6921)">
<path d="M0.000213623 12.0009C0.000213623 14.0798 0.529104 16.0351 1.45929 17.74L12.0002 18.7835L22.5411 17.74C23.4713 16.0351 24.0002 14.0798 24.0002 12.0009C24.0002 9.92198 23.4713 7.96664 22.5411 6.26175L12.0002 5.21826L1.45929 6.26175C0.529104 7.96664 0.000213623 9.92198 0.000213623 12.0009Z" fill="#D80027"/>
<path d="M1.45908 6.26135H22.5409C20.5057 2.53122 16.5485 0.000488281 12 0.000488281C7.45148 0.000488281 3.49434 2.53122 1.45908 6.26135Z" fill="#0052B4"/>
<path d="M12 24.0008C16.5485 24.0008 20.5057 21.4701 22.5409 17.74H1.45911C3.49437 21.4701 7.45151 24.0008 12 24.0008Z" fill="#0052B4"/>
<path d="M16.1743 14.3473V12.7821H15.1309V10.6951L14.0874 9.65167L13.0439 10.6951V8.60818L12.0004 7.5647L10.9569 8.60818V10.6951L9.91346 9.65167L8.86997 10.6951V12.7821H7.82654V14.3473H6.78305V15.9125H17.2178V14.3473H16.1743Z" fill="#F0F0F0"/>
</g>
<defs>
<clipPath id="clip0_15_6921">
<rect width="24" height="24" fill="white"/>
</clipPath>
</defs>
</svg>
