<svg width="24" height="24" viewBox="0 0 24 24" fill="none" xmlns="http://www.w3.org/2000/svg">
<g clip-path="url(#clip0_15_6836)">
<path d="M0 12C0 5.37262 5.37262 0 12 0C18.6274 0 24 5.37262 24 12" fill="#D80027"/>
<path d="M16.1734 11.16L14.4679 11.9622L15.3761 13.614L13.5241 13.2597L13.2895 15.1305L11.9995 13.7545L10.7095 15.1305L10.4749 13.2597L8.62292 13.6139L9.53112 11.9622L7.82562 11.16L9.53112 10.3577L8.62292 8.70605L10.4749 9.06023L10.7096 7.18945L11.9995 8.56537L13.2895 7.18945L13.5241 9.06023L15.3762 8.70605L14.468 10.3578L16.1734 11.16Z" fill="#FFDA44"/>
<path d="M15.1305 3.913H12.7826C12.7826 3.48086 12.4322 3.13037 12 3.13037C11.5678 3.13037 11.2174 3.48081 11.2174 3.913H8.86957C8.86957 4.34518 9.24607 4.69562 9.67826 4.69562H9.65215C9.65215 5.12781 10.0025 5.47824 10.4348 5.47824C10.4348 5.91043 10.7851 6.26087 11.2174 6.26087H12.7826C13.2147 6.26087 13.5652 5.91048 13.5652 5.47824C13.9974 5.47824 14.3478 5.12785 14.3478 4.69562H14.3217C14.754 4.69562 15.1305 4.34523 15.1305 3.913Z" fill="#FFDA44"/>
<path d="M24.0002 11.9995C24.0002 18.6269 18.6276 23.9995 12.0002 23.9995C5.37287 23.9995 0.000244141 18.6269 0.000244141 11.9995C0.521963 11.9995 24.0002 11.9995 24.0002 11.9995Z" fill="#F0F0F0"/>
<path d="M12.0005 24.0005C15.7515 24.0005 19.1 22.279 21.3006 19.5835C20.9048 19.3137 20.6911 18.8774 20.0003 18.8774C19.0003 18.8774 19.0003 19.7918 18.0004 19.7918C17.0005 19.7918 17.0004 18.8774 16.0005 18.8774C15.0005 18.8774 15.0005 19.7918 14.0005 19.7918C13.0004 19.7918 13.0004 18.8774 12.0003 18.8774C11.0003 18.8774 11.0003 19.7918 10.0004 19.7918C9.00054 19.7918 9.00054 18.8774 8.00055 18.8774C7.00047 18.8774 7.00047 19.7918 6.0004 19.7918C5.00032 19.7918 5.00032 18.8774 4.00024 18.8774C3.30958 18.8774 3.09588 19.3136 2.70026 19.5834C4.90076 22.279 8.24941 24.0005 12.0005 24.0005Z" fill="#0052B4"/>
<path d="M22 13.5313C21 13.5313 21 12.6169 20 12.6169C19 12.6169 19 13.5313 18 13.5313C17.0001 13.5313 17.0001 12.6169 16.0001 12.6169C15.0001 12.6169 15.0001 13.5313 14.0001 13.5313C13.0001 13.5313 13 12.6169 11.9999 12.6169C11 12.6169 11 13.5313 10 13.5313C9.00018 13.5313 9.00018 12.6169 8.0002 12.6169C7.00012 12.6169 7.00012 13.5313 6.00004 13.5313C4.99997 13.5313 4.99997 12.6169 3.99989 12.6169C3.00004 12.6169 3.00004 13.5313 2.00006 13.5313C1.00547 13.5313 0.9997 12.627 0.0157471 12.6174C0.0434502 13.1663 0.108981 13.7051 0.208075 14.2321C1.00514 14.3493 1.07493 15.1313 2.00011 15.1313C3.00009 15.1313 3.00009 14.217 3.99993 14.217C5.00001 14.217 5.00001 15.1313 6.00009 15.1313C7.00017 15.1313 7.00017 14.217 8.00025 14.217C9.00023 14.217 9.00023 15.1313 10.0001 15.1313C11.0001 15.1313 11.0001 14.217 12 14.217C13.0001 14.217 13.0001 15.1313 14.0002 15.1313C15.0002 15.1313 15.0002 14.217 16.0002 14.217C17.0002 14.217 17.0002 15.1313 18.0001 15.1313C19 15.1313 19.0001 14.217 20 14.217C21.0001 14.217 21.0001 15.1313 22 15.1313C22.9253 15.1313 22.9951 14.3493 23.7922 14.2322C23.8913 13.7051 23.9568 13.1663 23.9846 12.6174C23.0005 12.6271 22.9946 13.5313 22 13.5313Z" fill="#0052B4"/>
<path d="M20.0002 15.7478C19.0002 15.7478 19.0002 16.6621 18.0003 16.6621C17.0003 16.6621 17.0003 15.7478 16.0003 15.7478C15.0004 15.7478 15.0004 16.6621 14.0003 16.6621C13.0003 16.6621 13.0003 15.7478 12.0002 15.7478C11.0002 15.7478 11.0002 16.6621 10.0003 16.6621C9.00041 16.6621 9.00041 15.7478 8.00043 15.7478C7.00035 15.7478 7.00035 16.6621 6.00027 16.6621C5.00019 16.6621 5.00019 15.7478 4.00011 15.7478C3.00027 15.7478 3.00027 16.6621 2.00029 16.6621C1.28577 16.6621 1.08168 16.1955 0.65863 15.9288C0.940255 16.7425 1.30663 17.5166 1.74786 18.2401C1.8246 18.2543 1.90813 18.2621 2.00029 18.2621C3.00027 18.2621 3.00027 17.3479 4.00011 17.3479C5.00019 17.3479 5.00019 18.2621 6.00027 18.2621C7.00035 18.2621 7.00035 17.3479 8.00043 17.3479C9.00041 17.3479 9.00041 18.2621 10.0003 18.2621C11.0002 18.2621 11.0002 17.3479 12.0002 17.3479C13.0003 17.3479 13.0003 18.2621 14.0003 18.2621C15.0004 18.2621 15.0004 17.3479 16.0003 17.3479C17.0003 17.3479 17.0003 18.2621 18.0003 18.2621C19.0002 18.2621 19.0003 17.3479 20.0002 17.3479C21.0003 17.3479 21.0003 18.2621 22.0002 18.2621C22.0925 18.2621 22.176 18.2543 22.2527 18.2401C22.694 17.5166 23.0603 16.7425 23.3421 15.9289C22.919 16.1954 22.7148 16.6621 22.0002 16.6621C21.0003 16.6621 21.0003 15.7478 20.0002 15.7478Z" fill="#0052B4"/>
<path d="M23.963 11.0511C23.0007 11.0738 22.9874 11.9644 22.0001 11.9644C21.0001 11.9644 21.0001 11.05 20.0001 11.05C19.0001 11.05 19.0001 11.9644 18.0001 11.9644C17.0002 11.9644 17.0002 11.05 16.0002 11.05C15.0002 11.05 15.0002 11.9644 14.0002 11.9644C13.0002 11.9644 13.0001 11.05 12.0001 11.05C11.0001 11.05 11.0001 11.9644 10.0001 11.9644C9.00029 11.9644 9.00029 11.05 8.00031 11.05C7.00023 11.05 7.00023 11.9644 6.00015 11.9644C5.00007 11.9644 5.00007 11.05 3.99999 11.05C3.00015 11.05 3.00015 11.9644 2.00017 11.9644C1.01303 11.9644 0.999666 11.0739 0.037416 11.0511C0.0129941 11.3639 0.000244141 11.68 0.000244141 11.9991C0.000244141 12.2177 0.00643164 12.4349 0.0181035 12.6505C0.999807 12.6616 1.00632 13.5643 2.00021 13.5643C3.0002 13.5643 3.0002 12.6501 4.00004 12.6501C5.00012 12.6501 5.00012 13.5643 6.0002 13.5643C7.00028 13.5643 7.00028 12.6501 8.00035 12.6501C9.00034 12.6501 9.00034 13.5643 10.0002 13.5643C11.0002 13.5643 11.0002 12.6501 12.0001 12.6501C13.0002 12.6501 13.0002 13.5643 14.0003 13.5643C15.0003 13.5643 15.0003 12.6501 16.0003 12.6501C17.0003 12.6501 17.0003 13.5643 18.0002 13.5643C19.0001 13.5643 19.0002 12.6501 20.0001 12.6501C21.0002 12.6501 21.0002 13.5643 22.0001 13.5643C22.9941 13.5643 23.0006 12.6616 23.9825 12.6505C23.9941 12.4348 24.0002 12.2177 24.0002 11.9991C24.0002 11.68 23.9875 11.3639 23.963 11.0511Z" fill="#F0F0F0"/>
</g>
<defs>
<clipPath id="clip0_15_6836">
<rect width="24" height="24" fill="white"/>
</clipPath>
</defs>
</svg>
