<svg width="24" height="24" viewBox="0 0 24 24" fill="none" xmlns="http://www.w3.org/2000/svg">
<g clip-path="url(#clip0_15_6893)">
<path d="M12 24C18.6274 24 24 18.6274 24 12C24 5.37258 18.6274 0 12 0C5.37258 0 0 5.37258 0 12C0 18.6274 5.37258 24 12 24Z" fill="#F0F0F0"/>
<path d="M23.9994 11.9653H10.9911C8.40845 14.548 6.84667 16.542 5.25198 18.1367L12.0346 18.7479L22.5596 17.7044C23.4782 16.0078 23.9998 14.0649 23.9998 12.0001C23.9998 11.9884 23.9994 11.977 23.9994 11.9653Z" fill="#D80027"/>
<path d="M5.25263 6.22564H22.5219C20.4811 2.51464 16.5347 -0.000488281 12.0004 -0.000488281C8.6955 -0.000488281 5.70319 1.33597 3.53311 3.49751L5.25263 6.22564Z" fill="#FFDA44"/>
<path d="M5.77343 17.704C4.69465 18.7828 4.27774 19.6866 3.49722 20.4671C5.67011 22.649 8.67691 23.9996 11.9995 23.9996C16.5621 23.9996 20.5298 21.4531 22.5594 17.704H5.77343Z" fill="#0052B4"/>
<path d="M3.51425 3.48035C-1.17203 8.16663 -1.17203 15.7646 3.51425 20.451C5.4508 18.5144 7.31328 16.6519 11.9996 11.9657L3.51425 3.48035Z" fill="#6DA544"/>
<path d="M3.16538 11.9647C3.16538 10.2163 4.39411 8.75575 6.03492 8.39744C5.78274 8.34236 5.52108 8.3125 5.2523 8.3125C3.23522 8.3125 1.60013 9.9476 1.60013 11.9647C1.60013 13.9818 3.23522 15.6169 5.2523 15.6169C5.52103 15.6169 5.78269 15.587 6.03492 15.5319C4.39411 15.1736 3.16538 13.713 3.16538 11.9647Z" fill="#F0F0F0"/>
<path d="M5.99483 8.83472L6.18912 9.43256H6.81772L6.30912 9.80208L6.50342 10.3999L5.99483 10.0305L5.48623 10.3999L5.68053 9.80208L5.17194 9.43256H5.80053L5.99483 8.83472Z" fill="#F0F0F0"/>
<path d="M5.99483 10.3998L6.18912 10.9977H6.81772L6.30912 11.3671L6.50342 11.965L5.99483 11.5955L5.48623 11.965L5.68053 11.3671L5.17194 10.9977H5.80053L5.99483 10.3998Z" fill="#F0F0F0"/>
<path d="M5.99483 11.9646L6.18912 12.5624H6.81772L6.30912 12.932L6.50342 13.5298L5.99483 13.1603L5.48623 13.5298L5.68053 12.932L5.17194 12.5624H5.80053L5.99483 11.9646Z" fill="#F0F0F0"/>
<path d="M5.99483 13.5297L6.18912 14.1275H6.81772L6.30912 14.497L6.50342 15.0949L5.99483 14.7254L5.48623 15.0949L5.68053 14.497L5.17194 14.1275H5.80053L5.99483 13.5297Z" fill="#F0F0F0"/>
</g>
<defs>
<clipPath id="clip0_15_6893">
<rect width="24" height="24" fill="white"/>
</clipPath>
</defs>
</svg>
