<svg width="24" height="24" viewBox="0 0 24 24" fill="none" xmlns="http://www.w3.org/2000/svg">
<g clip-path="url(#clip0_15_6770)">
<path d="M12 24C18.6274 24 24 18.6274 24 12C24 5.37257 18.6274 0 12 0C5.37257 0 0 5.37257 0 12C0 18.6274 5.37257 24 12 24Z" fill="#FFDA44"/>
<path d="M3.51503 20.4852C4.01842 20.9885 4.55556 21.4375 5.11895 21.8327L21.8331 5.11856C21.4379 4.55512 20.989 4.01802 20.4855 3.51463C19.9822 3.01124 19.4451 2.56241 18.8817 2.16711L2.1676 18.8813C2.56276 19.4447 3.01164 19.9818 3.51503 20.4852Z" fill="black"/>
<path d="M3.51432 3.51475C-0.271448 7.30053 -0.998247 12.9861 1.33257 17.5021L17.5017 1.33309C12.9857 -0.997679 7.29996 -0.27088 3.51432 3.51475Z" fill="#6DA544"/>
<path d="M20.4853 20.4847C24.271 16.699 24.9978 11.0134 22.6671 6.49731L6.49786 22.6665C11.0139 24.9972 16.6995 24.2705 20.4853 20.4847Z" fill="#D80027"/>
<path d="M7.62977 14.1578L8.74999 14.7286L9.63902 13.8396L9.44234 15.0813L10.5625 15.6521L9.32074 15.8488L9.12406 17.0905L8.5533 15.9703L7.31158 16.167L8.20057 15.278L7.62977 14.1578Z" fill="#F0F0F0"/>
<path d="M14.1561 7.63057L15.2763 8.20136L16.1653 7.31238L15.9686 8.55405L17.0888 9.1249L15.8471 9.32158L15.6504 10.5633L15.0796 9.44313L13.8379 9.63977L14.7269 8.75079L14.1561 7.63057Z" fill="#F0F0F0"/>
</g>
<defs>
<clipPath id="clip0_15_6770">
<rect width="24" height="24" fill="white"/>
</clipPath>
</defs>
</svg>
