<svg width="24" height="24" viewBox="0 0 24 24" fill="none" xmlns="http://www.w3.org/2000/svg">
<g clip-path="url(#clip0_15_6835)">
<path d="M23.254 16.173C23.7364 14.873 24.0004 13.467 24.0004 11.9991C24.0004 10.5313 23.7364 9.12521 23.254 7.82522L12.0004 6.78174L0.746818 7.82522C0.264474 9.12521 0.000427246 10.5313 0.000427246 11.9991C0.000427246 13.467 0.264474 14.873 0.746818 16.173L12.0004 17.2165L23.254 16.173Z" fill="#F0F0F0"/>
<path d="M12.0002 23.9994C17.1598 23.9994 21.5583 20.7429 23.2538 16.1733H0.746582C2.44214 20.7429 6.84061 23.9994 12.0002 23.9994Z" fill="#D80027"/>
<path d="M12.0002 -0.000488281C6.84061 -0.000488281 2.44214 3.25601 0.746582 7.82562H23.2538C21.5583 3.25601 17.1598 -0.000488281 12.0002 -0.000488281Z" fill="#6DA544"/>
<path d="M3.51514 3.5144C-1.17114 8.20069 -1.17114 15.7987 3.51514 20.485C4.73834 19.2618 5.93225 18.0679 7.82651 16.1737V7.82583L3.51514 3.5144Z" fill="black"/>
</g>
<defs>
<clipPath id="clip0_15_6835">
<rect width="24" height="24" fill="white"/>
</clipPath>
</defs>
</svg>
