<svg width="24" height="24" viewBox="0 0 24 24" fill="none" xmlns="http://www.w3.org/2000/svg">
<g clip-path="url(#clip0_15_6915)">
<path d="M24 12C24 18.6274 18.6274 24 12 24C5.37262 24 0 18.6274 0 12C0 12.0029 12 0.0013125 12 0C18.6274 0 24 5.37262 24 12Z" fill="#0052B4"/>
<path d="M11.9686 12.0004H12.0008C12.0008 11.9896 12.0008 11.9791 12.0008 11.9683C11.9901 11.979 11.9794 11.9897 11.9686 12.0004Z" fill="#F0F0F0"/>
<path d="M12.0002 6.26037C12.0002 4.14889 12.0002 2.76537 12.0002 -0.000488281H11.9982C5.3717 0.000636719 0.000244141 5.37275 0.000244141 11.9995H6.2611V8.474L9.78662 11.9995H11.9682C11.9789 11.9888 11.9896 11.9781 12.0003 11.9674C12.0003 11.1589 12.0003 10.4376 12.0003 9.78598L8.47468 6.26037H12.0002Z" fill="#F0F0F0"/>
<path d="M17.2173 8.86913C18.3699 8.86913 19.3042 7.93476 19.3042 6.78216C19.3042 5.62956 18.3699 4.69519 17.2173 4.69519C16.0647 4.69519 15.1303 5.62956 15.1303 6.78216C15.1303 7.93476 16.0647 8.86913 17.2173 8.86913Z" fill="#6DA544"/>
<path d="M6.0706 1.56531C4.19377 2.63401 2.63345 4.19429 1.56479 6.07112V12.0001H4.69524V4.69586V4.69576H11.9996C11.9996 3.70843 11.9996 2.76784 11.9996 1.56531H6.0706Z" fill="#D80027"/>
<path d="M11.9993 10.5239L7.73579 6.2605H6.26016V6.26059L11.9992 11.9996H11.9993C11.9993 11.9996 11.9993 10.9821 11.9993 10.5239Z" fill="#D80027"/>
<path d="M20.8691 6.2605H13.5648V9.39095H20.8691V6.2605Z" fill="#D80027"/>
<path d="M13.5652 14.0869V16.1739H14.6632C15.3216 16.8191 16.2228 17.2174 17.2174 17.2174C18.2121 17.2174 19.1132 16.8191 19.7716 16.1739H19.8261H20.8696V14.0869H13.5652Z" fill="#FFDA44"/>
<path d="M13.5652 8.86902V11.9995C13.5652 14.7951 17.2174 15.6516 17.2174 15.6516C17.2174 15.6516 20.8696 14.7951 20.8696 11.9995V8.86902H13.5652Z" fill="#338AF3"/>
<path d="M17.2173 10.5404C16.3043 10.5404 16.3043 11.3752 15.3913 11.3752C14.4783 11.3752 14.4783 10.5404 13.5653 10.5404V12.0013C14.4783 12.0013 14.4783 12.8361 15.3913 12.8361C16.3043 12.8361 16.3043 12.0013 17.2173 12.0013C18.1304 12.0013 18.1304 12.8361 19.0435 12.8361C19.9566 12.8361 19.9566 12.0013 20.8697 12.0013V10.5404C19.9566 10.5404 19.9566 11.3752 19.0435 11.3752C18.1304 11.3752 18.1304 10.5404 17.2173 10.5404Z" fill="#F3F3F3"/>
<path d="M17.2172 7.6167C16.3042 7.6167 16.3042 8.4515 15.3912 8.4515C14.4782 8.4515 14.4782 7.6167 13.5652 7.6167V9.07756C14.4782 9.07756 14.4782 9.91236 15.3912 9.91236C16.3042 9.91236 16.3042 9.07756 17.2172 9.07756C18.1303 9.07756 18.1303 9.91236 19.0434 9.91236C19.9565 9.91236 19.9565 9.07756 20.8696 9.07756V7.6167C19.9565 7.6167 19.9565 8.4515 19.0434 8.4515C18.1303 8.4515 18.1303 7.6167 17.2172 7.6167Z" fill="#F3F3F3"/>
</g>
<defs>
<clipPath id="clip0_15_6915">
<rect width="24" height="24" fill="white"/>
</clipPath>
</defs>
</svg>
