<svg width="24" height="24" viewBox="0 0 24 24" fill="none" xmlns="http://www.w3.org/2000/svg">
<g clip-path="url(#clip0_15_6833)">
<path d="M22.8094 6.78189C20.8684 2.76794 16.7576 -0.000732422 12.0001 -0.000732422C7.24254 -0.000732422 3.1318 2.76794 1.1908 6.78189L12.0001 7.82538L22.8094 6.78189Z" fill="#D80027"/>
<path d="M1.19049 17.2161C3.13149 21.23 7.24224 23.9987 11.9998 23.9987C16.7573 23.9987 20.8681 21.23 22.8091 17.2161L11.9998 16.1726L1.19049 17.2161Z" fill="#D80027"/>
<path d="M22.809 6.78174H1.19041C0.42757 8.35932 -0.000305176 10.1292 -0.000305176 11.9991C-0.000305176 13.869 0.42757 15.6389 1.19041 17.2165H22.8089C23.5719 15.6389 23.9997 13.869 23.9997 11.9991C23.9997 10.1292 23.5719 8.35932 22.809 6.78174Z" fill="#0052B4"/>
<path d="M12.0001 16.1737C14.3053 16.1737 16.174 14.305 16.174 11.9998C16.174 9.69464 14.3053 7.82593 12.0001 7.82593C9.69495 7.82593 7.82623 9.69464 7.82623 11.9998C7.82623 14.305 9.69495 16.1737 12.0001 16.1737Z" fill="#F0F0F0"/>
</g>
<defs>
<clipPath id="clip0_15_6833">
<rect width="24" height="24" fill="white"/>
</clipPath>
</defs>
</svg>
