<svg width="24" height="24" viewBox="0 0 24 24" fill="none" xmlns="http://www.w3.org/2000/svg">
<g clip-path="url(#clip0_15_6827)">
<path d="M24.0002 11.9995C24.0002 18.6269 18.6276 23.9995 12.0002 23.9995C5.37287 23.9995 0.000244141 18.6269 0.000244141 11.9995C0.521963 11.9995 12.0002 10.4343 12.0002 10.4343L24.0002 11.9995Z" fill="#D80027"/>
<path d="M0 12C0 5.37262 5.37262 0 12 0C18.6274 0 24 5.37262 24 12" fill="#0052B4"/>
<path d="M8.86993 8.34736C8.86993 7.48294 8.16914 6.78216 7.30472 6.78216C6.90371 6.78216 6.53822 6.9331 6.26124 7.18102V6.26039H6.78296V5.21691H6.26124V4.69519H5.21776V5.21691H4.69604V6.26039H5.21776V7.18102C4.94077 6.9331 4.57529 6.78216 4.17427 6.78216C3.30985 6.78216 2.60907 7.48294 2.60907 8.34736C2.60907 8.81082 2.81068 9.22707 3.13079 9.51371V10.4343H8.34816V9.51371C8.66836 9.22707 8.86993 8.81082 8.86993 8.34736Z" fill="#FFDA44"/>
</g>
<defs>
<clipPath id="clip0_15_6827">
<rect width="24" height="24" fill="white"/>
</clipPath>
</defs>
</svg>
