<svg width="24" height="24" viewBox="0 0 24 24" fill="none" xmlns="http://www.w3.org/2000/svg">
<g clip-path="url(#clip0_15_6829)">
<path d="M12 24C18.6274 24 24 18.6274 24 12C24 5.37258 18.6274 0 12 0C5.37258 0 0 5.37258 0 12C0 18.6274 5.37258 24 12 24Z" fill="#F0F0F0"/>
<path d="M2.74292 4.36307H21.257C20.5732 3.53502 19.7801 2.80073 18.9003 2.18127H5.09965C4.21986 2.80063 3.42678 3.53498 2.74292 4.36307Z" fill="#F0F0F0"/>
<path d="M0 12.0005C0 12.3684 0.0174844 12.732 0.049875 13.0915H23.9501C23.9825 12.732 24 12.3684 24 12.0005C24 11.6327 23.9825 11.2691 23.9501 10.9097H0.049875C0.0174844 11.2691 0 11.6327 0 12.0005Z" fill="#F0F0F0"/>
<path d="M1.3089 17.4546H22.6918C23.0451 16.7634 23.3333 16.0335 23.5485 15.2728H0.452209C0.667319 16.0335 0.9556 16.7634 1.3089 17.4546Z" fill="#F0F0F0"/>
<path d="M5.09965 21.818H18.9003C19.7801 21.1986 20.5732 20.4643 21.257 19.6362H2.74292C3.42678 20.4642 4.21986 21.1986 5.09965 21.818Z" fill="#F0F0F0"/>
<path d="M0.452087 8.72782H23.5484C23.3333 7.96713 23.045 7.23719 22.6917 6.54602H1.30882C0.955525 7.23719 0.667244 7.96713 0.452087 8.72782Z" fill="#F0F0F0"/>
<path d="M5.73846 2.18192H18.8997C16.9478 0.807638 14.5679 0.00012207 11.9993 0.00012207C10.4341 0.00012207 7.69034 0.807638 5.73846 2.18192Z" fill="#D80027"/>
<path d="M11.4782 6.54532H22.6914C22.2923 5.76471 21.8103 5.03351 21.257 4.36353H11.4782V6.54532Z" fill="#D80027"/>
<path d="M11.4782 10.9085H23.9501C23.8826 10.1593 23.7469 9.42976 23.5481 8.72668H11.4782V10.9085Z" fill="#D80027"/>
<path d="M0.451439 15.2737H23.5477C23.7465 14.5707 23.8822 13.8411 23.9497 13.0919H0.0494385C0.116938 13.8411 0.252595 14.5706 0.451439 15.2737Z" fill="#D80027"/>
<path d="M2.7426 19.6369H21.2567C21.8101 18.9668 22.2921 18.2356 22.6911 17.4551H1.30823C1.70727 18.2357 2.18924 18.9669 2.7426 19.6369Z" fill="#D80027"/>
<path d="M11.9993 24.0005C14.5679 24.0005 16.9477 23.193 18.8996 21.8187H5.09894C7.05081 23.193 9.43066 24.0005 11.9993 24.0005Z" fill="#D80027"/>
<path d="M0.45188 8.72692C0.253036 9.43004 0.117427 10.1596 0.0499268 10.9087H12V-0.000366211C6.50724 -0.000366211 1.8765 3.6902 0.45188 8.72692Z" fill="#0052B4"/>
<path d="M7.14363 3.13049L7.92058 5.52182H10.4352L8.40095 6.99989L9.17786 9.39136L7.14363 7.91339L5.1093 9.39136L5.88639 6.99989L3.85211 5.52182H6.36663L7.14363 3.13049Z" fill="#F0F0F0"/>
</g>
<defs>
<clipPath id="clip0_15_6829">
<rect width="24" height="24" fill="white"/>
</clipPath>
</defs>
</svg>
