<svg width="24" height="24" viewBox="0 0 24 24" fill="none" xmlns="http://www.w3.org/2000/svg">
<g clip-path="url(#clip0_15_6830)">
<path d="M6.10352e-05 11.9999C6.10352e-05 13.8697 0.427889 15.6396 1.19078 17.2173L12.0001 17.739L22.8093 17.2173C23.5722 15.6396 24.0001 13.8697 24.0001 11.9999C24.0001 10.13 23.5722 8.36013 22.8093 6.78251L12.0001 6.26074L1.19078 6.78246C0.427889 8.36013 6.10352e-05 10.13 6.10352e-05 11.9999Z" fill="#F0F0F0"/>
<path d="M12.0003 24C16.7578 24 20.8686 21.2314 22.8096 17.2174H1.19104C3.13204 21.2314 7.24279 24 12.0003 24Z" fill="#6DA544"/>
<path d="M12.0003 -0.000732422C7.24279 -0.000732422 3.13204 2.76794 1.19104 6.78189H22.8096C20.8686 2.76794 16.7578 -0.000732422 12.0003 -0.000732422Z" fill="#0052B4"/>
<path d="M12.7831 11.7392V8.86963H11.2179V11.7392L9.32739 13.6297C9.87719 14.5297 10.8686 15.1305 12.0005 15.1305C13.1323 15.1305 14.1237 14.5297 14.6736 13.6297L12.7831 11.7392Z" fill="black"/>
</g>
<defs>
<clipPath id="clip0_15_6830">
<rect width="24" height="24" fill="white"/>
</clipPath>
</defs>
</svg>
