<svg width="24" height="24" viewBox="0 0 24 24" fill="none" xmlns="http://www.w3.org/2000/svg">
<g clip-path="url(#clip0_15_6826)">
<path d="M23.254 16.1743C23.7364 14.8744 24.0004 13.4683 24.0004 12.0005C24.0004 10.5326 23.7364 9.1265 23.254 7.82656L12.0004 6.78308L0.746757 7.82656C0.264366 9.1265 0.000366211 10.5326 0.000366211 12.0005C0.000366211 13.4683 0.264366 14.8744 0.746757 16.1743L12.0004 17.2178L23.254 16.1743Z" fill="#6DA544"/>
<path d="M23.2537 7.82574C21.5582 3.25613 17.1597 -0.000366211 12.0001 -0.000366211C6.84055 -0.000366211 2.44204 3.25613 0.746521 7.82574H23.2537Z" fill="#FFDA44"/>
<path d="M12.0003 24.0008C17.1599 24.0008 21.5584 20.7443 23.2539 16.1747H0.746704C2.44222 20.7443 6.84073 24.0008 12.0003 24.0008Z" fill="#D80027"/>
</g>
<defs>
<clipPath id="clip0_15_6826">
<rect width="24" height="24" fill="white"/>
</clipPath>
</defs>
</svg>
