<svg width="24" height="24" viewBox="0 0 24 24" fill="none" xmlns="http://www.w3.org/2000/svg">
<g clip-path="url(#clip0_15_6832)">
<path d="M12 24C18.6274 24 24 18.6274 24 12C24 5.37258 18.6274 0 12 0C5.37258 0 0 5.37258 0 12C0 18.6274 5.37258 24 12 24Z" fill="#F0F0F0"/>
<path d="M12.0006 -0.000732422C6.45628 -0.000732422 1.791 3.75963 0.414001 8.86881H23.5873C22.2102 3.75963 17.5449 -0.000732422 12.0006 -0.000732422Z" fill="#A2001D"/>
<path d="M12.0003 23.9987C17.5446 23.9987 22.2099 20.2383 23.5869 15.1292H0.413696C1.7907 20.2383 6.45598 23.9987 12.0003 23.9987Z" fill="#A2001D"/>
</g>
<defs>
<clipPath id="clip0_15_6832">
<rect width="24" height="24" fill="white"/>
</clipPath>
</defs>
</svg>
