<svg width="24" height="24" viewBox="0 0 24 24" fill="none" xmlns="http://www.w3.org/2000/svg">
<g clip-path="url(#clip0_15_6828)">
<path d="M1.19084 6.78274C0.427997 8.36037 0.00012207 10.1302 0.00012207 12.0001C0.00012207 13.87 0.427997 15.6399 1.19084 17.2175L12.0001 18.261L22.8094 17.2175C23.5722 15.6399 24.0001 13.87 24.0001 12.0001C24.0001 10.1302 23.5722 8.36037 22.8094 6.78274L12.0001 5.73926L1.19084 6.78274Z" fill="black"/>
<path d="M1.19141 17.2168C3.13231 21.2307 7.24273 23.9994 12.0003 23.9994C16.7577 23.9994 20.8682 21.2307 22.8091 17.2168H1.19141Z" fill="#496E2D"/>
<path d="M1.19141 6.78299H22.8091C20.8682 2.76904 16.7577 0.000366211 12.0003 0.000366211C7.24273 0.000366211 3.13231 2.76904 1.19141 6.78299Z" fill="#D80027"/>
<path d="M14.7934 9.80481L15.7779 11.1616L17.3725 10.6446L16.3863 12.0002L17.3708 13.357L15.7768 12.838L14.7907 14.1936L14.7917 12.5173L13.1977 11.9983L14.7923 11.4812L14.7934 9.80481Z" fill="#F0F0F0"/>
<path d="M12.1065 15.3904C10.2335 15.3904 8.71516 13.8721 8.71516 11.9991C8.71516 10.1262 10.2335 8.60782 12.1065 8.60782C12.6904 8.60782 13.24 8.75548 13.7197 9.01545C12.967 8.27946 11.9379 7.8252 10.8021 7.8252C8.49691 7.8252 6.62823 9.69391 6.62823 11.9991C6.62823 14.3043 8.49695 16.173 10.8021 16.173C11.9379 16.173 12.9671 15.7187 13.7197 14.9827C13.2399 15.2428 12.6905 15.3904 12.1065 15.3904Z" fill="#F0F0F0"/>
</g>
<defs>
<clipPath id="clip0_15_6828">
<rect width="24" height="24" fill="white"/>
</clipPath>
</defs>
</svg>
