<svg width="24" height="24" viewBox="0 0 24 24" fill="none" xmlns="http://www.w3.org/2000/svg">
<g clip-path="url(#clip0_15_6811)">
<path d="M17.2171 1.19121C15.6395 0.428363 13.8696 0.000488281 11.9998 0.000488281C10.1299 0.000488281 8.36 0.428363 6.78238 1.19121L5.73889 12.0005L6.78238 22.8098C8.36 23.5726 10.1299 24.0005 11.9998 24.0005C13.8696 24.0005 15.6395 23.5726 17.2171 22.8098L18.2606 12.0005L17.2171 1.19121Z" fill="#FFDA44"/>
<path d="M6.78262 1.19214C2.76872 3.13309 0 7.24351 0 12.001C0 16.7585 2.76872 20.8689 6.78262 22.8099V1.19214Z" fill="#0052B4"/>
<path d="M17.2174 1.19214V22.8099C21.2313 20.8689 24 16.7585 24 12.001C24 7.24351 21.2313 3.13309 17.2174 1.19214Z" fill="#D80027"/>
<path d="M16.1735 9.44228H13.304C13.304 8.72191 12.72 8.13794 11.9996 8.13794C11.2793 8.13794 10.6953 8.72191 10.6953 9.44228H7.82574C7.82574 10.1515 8.4436 10.7265 9.15278 10.7265H9.11003C9.11003 11.4358 9.685 12.0108 10.3943 12.0108C10.3943 12.6388 10.8453 13.1606 11.441 13.2722L10.429 15.5569C10.9139 15.754 11.4439 15.8636 11.9996 15.8636C12.5553 15.8636 13.0854 15.754 13.5702 15.5569L12.5582 13.2722C13.1539 13.1606 13.605 12.6388 13.605 12.0108C14.3143 12.0108 14.8892 11.4358 14.8892 10.7265H14.8464C15.5557 10.7265 16.1735 10.1515 16.1735 9.44228Z" fill="#FF9811"/>
<path d="M12 11.2178L10.3044 12.0004V13.5656L12 14.6091L13.6957 13.5656V12.0004L12 11.2178Z" fill="#0052B4"/>
<path d="M13.6957 10.4341H10.3044V11.9993H13.6957V10.4341Z" fill="#D80027"/>
</g>
<defs>
<clipPath id="clip0_15_6811">
<rect width="24" height="24" fill="white"/>
</clipPath>
</defs>
</svg>
