<svg width="24" height="24" viewBox="0 0 24 24" fill="none" xmlns="http://www.w3.org/2000/svg">
<g clip-path="url(#clip0_15_6808)">
<path d="M12 24C18.6274 24 24 18.6274 24 12C24 5.37258 18.6274 0 12 0C5.37258 0 0 5.37258 0 12C0 18.6274 5.37258 24 12 24Z" fill="#FFDA44"/>
<path d="M24.0004 11.9997C24.0004 7.88122 21.9253 4.24775 18.7638 2.08667H5.23691C2.07552 4.24775 0.000366211 7.88122 0.000366211 11.9997C0.000366211 16.1183 2.07552 19.7517 5.23691 21.9127H18.7638C21.9253 19.7517 24.0004 16.1183 24.0004 11.9997Z" fill="#A2001D"/>
<path d="M9.39178 8.87015H14.6092V6.78323L13.5657 7.30495L12.0005 5.73975L10.4353 7.30495L9.39178 6.78323V8.87015Z" fill="#FFDA44"/>
<path d="M16.6962 12.0002H14.0885C14.1908 11.8233 14.2502 11.6186 14.2502 11.3996C14.2502 10.7346 13.7111 10.1956 13.0462 10.1956C12.5868 10.1956 12.1878 10.453 11.9848 10.8313C11.7817 10.4529 11.3827 10.1956 10.9233 10.1956C10.2584 10.1956 9.71929 10.7346 9.71929 11.3996C9.71929 11.6186 9.77883 11.8233 9.88101 12.0002H7.30481C7.30481 12.7982 7.99983 13.445 8.79773 13.445H8.74964C8.74964 14.0995 9.18497 14.6522 9.78183 14.8297L8.60915 16.0024L9.71592 17.1092L11.2859 15.5392C11.3474 15.5618 11.411 15.5798 11.4768 15.5921L10.5281 17.7341C10.9827 17.919 11.4795 18.0216 12.0006 18.0216C12.5215 18.0216 13.0184 17.919 13.473 17.7341L12.5243 15.5921C12.5901 15.5798 12.6537 15.5618 12.7151 15.5392L14.2851 17.1092L15.3918 16.0024L14.2191 14.8297C14.8159 14.6521 15.2513 14.0995 15.2513 13.445H15.2032C16.0012 13.445 16.6962 12.7982 16.6962 12.0002Z" fill="#FFDA44"/>
<path d="M12.0005 12.7827L10.3048 13.5653V15.1305L12.0005 16.174L13.6961 15.1305V13.5653L12.0005 12.7827Z" fill="#6DA544"/>
<path d="M13.6961 11.9993H10.3048V14.0862H13.6961V11.9993Z" fill="#0052B4"/>
</g>
<defs>
<clipPath id="clip0_15_6808">
<rect width="24" height="24" fill="white"/>
</clipPath>
</defs>
</svg>
