<svg width="24" height="24" viewBox="0 0 24 24" fill="none" xmlns="http://www.w3.org/2000/svg">
<g clip-path="url(#clip0_15_6817)">
<path d="M12 24C18.6274 24 24 18.6274 24 12C24 9.98611 23.5031 8.08847 22.6265 6.42188L11.9859 12.0141L17.5781 1.37353C15.9115 0.496875 14.0139 0 12 0C5.37262 0 0 5.37262 0 12C0 15.3137 1.34316 18.3137 3.51469 20.4853C5.68627 22.6569 8.68627 24 12 24Z" fill="#0052B4"/>
<path d="M22.6141 6.43441C22.0648 5.38891 21.3506 4.40731 20.4715 3.52821C19.5924 2.64912 18.6109 1.93498 17.5653 1.38574L3.50092 20.4988L22.6141 6.43441Z" fill="#F0F0F0"/>
<path d="M3.50092 20.4994L22.6141 6.43501C22.0648 5.38951 21.3506 4.4079 20.4715 3.52881L3.50092 20.4994Z" fill="#FF9811"/>
<path d="M10.4204 7.03694L8.95491 7.72628L9.73533 9.14566L8.14393 8.8412L7.94227 10.4488L6.83377 9.26641L5.72527 10.4488L5.52371 8.8412L3.9323 9.14556L4.71263 7.72623L3.24713 7.03694L4.71268 6.34755L3.9323 4.92827L5.52362 5.23262L5.72532 3.625L6.83377 4.80742L7.94227 3.625L8.14393 5.23262L9.73538 4.92827L8.95496 6.34759L10.4204 7.03694Z" fill="#F0F0F0"/>
</g>
<defs>
<clipPath id="clip0_15_6817">
<rect width="24" height="24" fill="white"/>
</clipPath>
</defs>
</svg>
