<svg width="24" height="24" viewBox="0 0 24 24" fill="none" xmlns="http://www.w3.org/2000/svg">
<g clip-path="url(#clip0_15_6777)">
<path d="M12 24C18.6274 24 24 18.6274 24 12C24 5.37258 18.6274 0 12 0C5.37258 0 0 5.37258 0 12C0 18.6274 5.37258 24 12 24Z" fill="#FFDA44"/>
<path d="M13.8251 23.8624C15.7767 23.5647 17.5733 22.7961 19.0964 21.6772L12.0001 12.0004L13.8251 23.8624Z" fill="#D80027"/>
<path d="M10.1754 0.137695C8.22371 0.435445 6.42718 1.20401 4.90393 2.32287L12.0003 11.9997L10.1754 0.137695Z" fill="#D80027"/>
<path d="M4.90393 21.6772C6.42709 22.7961 8.22362 23.5646 10.1753 23.8625L12.0003 12.0004L4.90393 21.6772Z" fill="#D80027"/>
<path d="M2.32348 4.90234C1.20457 6.42559 0.436103 8.22208 0.138306 10.1738L12.0004 11.9988L2.32348 4.90234Z" fill="#D80027"/>
<path d="M0.138306 13.8253C0.436056 15.777 1.20462 17.5735 2.32352 19.0967L12.0004 12.0004L0.138306 13.8253Z" fill="#D80027"/>
<path d="M23.8622 10.174C23.5644 8.22233 22.7959 6.42579 21.6769 4.90259L12.0001 11.999L23.8622 10.174Z" fill="#D80027"/>
<path d="M19.0964 2.32282C17.5732 1.20396 15.7767 0.435445 13.8251 0.137695L12.0001 11.9997L19.0964 2.32282Z" fill="#D80027"/>
<path d="M21.677 19.0967C22.7959 17.5735 23.5644 15.7769 23.8623 13.8254L12.0001 12.0004L21.677 19.0967Z" fill="#D80027"/>
<path d="M12.0002 16.1743C14.3054 16.1743 16.1741 14.3056 16.1741 12.0004C16.1741 9.69525 14.3054 7.82654 12.0002 7.82654C9.69507 7.82654 7.82635 9.69525 7.82635 12.0004C7.82635 14.3056 9.69507 16.1743 12.0002 16.1743Z" fill="#D80027"/>
<path d="M12.0001 15.1297C13.729 15.1297 15.1305 13.7281 15.1305 11.9992C15.1305 10.2703 13.729 8.86877 12.0001 8.86877C10.2712 8.86877 8.86963 10.2703 8.86963 11.9992C8.86963 13.7281 10.2712 15.1297 12.0001 15.1297Z" fill="#FFDA44"/>
</g>
<defs>
<clipPath id="clip0_15_6777">
<rect width="24" height="24" fill="white"/>
</clipPath>
</defs>
</svg>
