<svg width="24" height="24" viewBox="0 0 24 24" fill="none" xmlns="http://www.w3.org/2000/svg">
<g clip-path="url(#clip0_15_6819)">
<path d="M16.1742 0.745902C14.8742 0.263559 13.4681 -0.000488281 12.0003 -0.000488281C10.5324 -0.000488281 9.12637 0.263559 7.82638 0.745902L6.7829 11.9995L7.82638 23.2531C9.12637 23.7355 10.5324 23.9995 12.0003 23.9995C13.4681 23.9995 14.8742 23.7355 16.1742 23.2531L17.2177 11.9995L16.1742 0.745902Z" fill="#FFDA44"/>
<path d="M23.9996 12.0001C23.9996 6.84061 20.7431 2.44205 16.1735 0.746582V23.2538C20.7431 21.5582 23.9996 17.1598 23.9996 12.0001Z" fill="#D80027"/>
<path d="M0.00012207 11.9994C0.00012207 17.159 3.25662 21.5575 7.82623 23.2531V0.74585C3.25662 2.44132 0.00012207 6.83988 0.00012207 11.9994Z" fill="#6DA544"/>
</g>
<defs>
<clipPath id="clip0_15_6819">
<rect width="24" height="24" fill="white"/>
</clipPath>
</defs>
</svg>
