<svg width="24" height="24" viewBox="0 0 24 24" fill="none" xmlns="http://www.w3.org/2000/svg">
<g clip-path="url(#clip0_15_6804)">
<path d="M23.2534 16.1744C23.7358 14.8744 23.9998 13.4683 23.9998 12.0005C23.9998 10.5326 23.7358 9.1265 23.2534 7.82657L11.9998 6.78308L0.746208 7.82657C0.263864 9.1265 -0.000183105 10.5326 -0.000183105 12.0005C-0.000183105 13.4683 0.263864 14.8744 0.746208 16.1744L11.9998 17.2178L23.2534 16.1744Z" fill="#6DA544"/>
<path d="M23.2536 7.82599C21.558 3.25638 17.1595 -0.00012207 11.9999 -0.00012207C6.84037 -0.00012207 2.44185 3.25638 0.746338 7.82599H23.2536Z" fill="#FFDA44"/>
<path d="M11.9999 23.9991C17.1595 23.9991 21.558 20.7426 23.2535 16.173H0.746277C2.44179 20.7426 6.84031 23.9991 11.9999 23.9991Z" fill="#D80027"/>
<path d="M20.2292 10.153H13.9429L12.0003 4.17444L10.0577 10.153H3.77148L8.85719 13.848L6.91459 19.8267L12.0003 16.1744L17.0861 19.8266L15.1435 13.8479L20.2292 10.153Z" fill="#F0F0F0"/>
</g>
<defs>
<clipPath id="clip0_15_6804">
<rect width="24" height="24" fill="white"/>
</clipPath>
</defs>
</svg>
