<svg width="24" height="24" viewBox="0 0 24 24" fill="none" xmlns="http://www.w3.org/2000/svg">
<g clip-path="url(#clip0_15_6792)">
<path d="M12 24C18.6274 24 24 18.6274 24 12C24 5.37258 18.6274 0 12 0C5.37258 0 0 5.37258 0 12C0 18.6274 5.37258 24 12 24Z" fill="#338AF3"/>
<path d="M11.6213 19.556C11.2978 19.5404 11.0301 19.3301 10.9253 19.0447C10.7401 19.2862 10.4218 19.4078 10.1082 19.327C9.79412 19.2461 9.57451 18.9863 9.52909 18.6847C9.29846 18.884 8.96246 18.9382 8.67189 18.7958C8.38074 18.6529 8.21799 18.3539 8.23468 18.0497C7.96914 18.1989 7.62896 18.1843 7.37279 17.986C7.11714 17.7877 7.01748 17.4627 7.09468 17.1679C6.80457 17.2608 6.47485 17.1784 6.26354 16.9326C6.05223 16.6874 6.01984 16.3488 6.15451 16.0759C5.85189 16.1082 5.54514 15.9611 5.38754 15.6784C5.22943 15.3956 5.26599 15.057 5.45326 14.8164C5.15012 14.7872 4.87881 14.5811 4.78178 14.2722C4.68423 13.9634 4.78857 13.6388 5.02075 13.4411C4.7296 13.3513 4.50629 13.0946 4.47343 12.7727C4.44057 12.4508 4.60754 12.155 4.87412 12.0079C4.60749 11.8618 4.43949 11.566 4.47132 11.2446C4.47132 11.2446 4.47132 11.2446 4.47184 11.2446C4.50367 10.9221 4.72698 10.6649 5.01756 10.5741C4.78539 10.3769 4.68001 10.0529 4.77653 9.74399C4.87304 9.43462 5.14379 9.22799 5.44698 9.19771C5.25967 8.95771 5.22212 8.61904 5.37915 8.33582C5.53618 8.05302 5.84298 7.90537 6.14612 7.9372C6.01046 7.66434 6.04229 7.32571 6.25309 7.07948C6.46337 6.83376 6.79309 6.75079 7.08371 6.84262C7.00543 6.54834 7.10457 6.22279 7.36023 6.02404C7.61537 5.82519 7.95554 5.81005 8.22109 5.95823C8.20389 5.6541 8.36612 5.35509 8.65674 5.2116C8.94685 5.06863 9.28337 5.12188 9.51446 5.32115C9.55881 5.01965 9.77846 4.75879 10.092 4.67732C10.405 4.59595 10.7233 4.71646 10.909 4.95749C11.0139 4.67212 11.281 4.46132 11.6045 4.44515C11.9275 4.42851 12.2144 4.61001 12.348 4.88296C12.5077 4.62416 12.8113 4.47079 13.1312 4.5193C13.4515 4.5673 13.6973 4.80309 13.7734 5.09793C13.9821 4.8756 14.3108 4.78748 14.6145 4.89909C14.9186 5.01126 15.1117 5.29194 15.1263 5.59663C15.3752 5.42137 15.7153 5.40098 15.9903 5.57212C16.2653 5.74274 16.3973 6.05629 16.3503 6.35732C16.6294 6.23577 16.9665 6.28429 17.2013 6.50652C17.4361 6.72932 17.5028 7.0627 17.3964 7.34807C17.6943 7.28493 18.0147 7.39973 18.2004 7.66527C18.3861 7.9303 18.3846 8.27048 18.2234 8.52876C18.5275 8.52665 18.8182 8.70407 18.947 9.00093C19.0754 9.2983 19.0049 9.63173 18.7947 9.85241C19.0937 9.9119 19.3425 10.1441 19.4082 10.4613C19.4734 10.7785 19.3373 11.09 19.0874 11.2637C19.367 11.3822 19.5642 11.6592 19.5647 11.9827C19.5647 11.9863 19.5647 11.9895 19.5647 11.9931C19.5647 11.9953 19.5647 11.9978 19.5647 11.9999C19.5647 12.3234 19.3686 12.601 19.0889 12.7205C19.3394 12.8932 19.4766 13.2046 19.4114 13.5218C19.3467 13.839 19.0983 14.0718 18.7994 14.1323C19.0102 14.3525 19.0817 14.6853 18.9538 14.9833C18.826 15.2806 18.5354 15.4586 18.2307 15.457C18.3924 15.7153 18.395 16.0554 18.2098 16.321C18.0246 16.5866 17.7048 16.7024 17.4069 16.6398C17.5138 16.9246 17.4475 17.2586 17.2133 17.4819C16.9785 17.7047 16.642 17.7537 16.3629 17.6332C16.4103 17.9337 16.2789 18.2478 16.0044 18.4195C15.7299 18.5911 15.3898 18.5713 15.1404 18.3965C15.1263 18.7012 14.9343 18.9824 14.6307 19.0951C14.6307 19.0951 14.6307 19.0951 14.6302 19.0951C14.3265 19.2073 13.9978 19.1197 13.7886 18.898C13.7135 19.1933 13.4683 19.4296 13.1479 19.4787C12.8281 19.5272 12.5239 19.3748 12.3638 19.116C12.2364 19.3785 11.9672 19.5569 11.6604 19.5569C11.6474 19.5571 11.6343 19.5566 11.6213 19.556Z" fill="#F3F3F3"/>
<path d="M12.0003 17.2182C14.8818 17.2182 17.2177 14.8823 17.2177 12.0008C17.2177 9.11934 14.8818 6.78345 12.0003 6.78345C9.1188 6.78345 6.7829 9.11934 6.7829 12.0008C6.7829 14.8823 9.1188 17.2182 12.0003 17.2182Z" fill="#338AF3"/>
<path d="M13.1418 10.2288C13.3982 10.0387 13.565 9.73482 13.565 9.39113V8.86941C13.565 8.29308 13.0979 7.82593 12.5215 7.82593H11.4781C10.9018 7.82593 10.4346 8.29308 10.4346 8.86941V9.39113C10.4346 9.73482 10.6015 10.0387 10.8578 10.2288L9.9129 19.8259C9.9129 19.8259 10.4346 20.3477 11.9999 20.3477C13.5651 20.3477 14.0868 19.8259 14.0868 19.8259L13.1418 10.2288Z" fill="#BDBCC1"/>
<path d="M12.0001 7.82593L12.9066 10.6158H15.8403L13.467 12.3403L14.3734 15.1303L12.0001 13.406L9.62675 15.1303L10.5334 12.3403L8.16003 10.6158H11.0936L12.0001 7.82593Z" fill="#F0F0F0"/>
</g>
<defs>
<clipPath id="clip0_15_6792">
<rect width="24" height="24" fill="white"/>
</clipPath>
</defs>
</svg>
