<svg width="24" height="24" viewBox="0 0 24 24" fill="none" xmlns="http://www.w3.org/2000/svg">
<g clip-path="url(#clip0_15_6816)">
<path d="M12 24C18.6274 24 24 18.6274 24 12C24 5.37258 18.6274 0 12 0C5.37258 0 0 5.37258 0 12C0 18.6274 5.37258 24 12 24Z" fill="#F0F0F0"/>
<path d="M23.8969 10.4355C23.5659 7.90488 22.4291 5.45959 20.485 3.51545C18.5409 1.57131 16.0955 0.434547 13.5649 0.103516L13.565 10.4355H23.8969Z" fill="#0052B4"/>
<path d="M10.4347 0.104248C7.90408 0.435279 5.45875 1.572 3.51461 3.51614C1.57052 5.46033 0.433753 7.90565 0.102722 10.4363L10.4347 10.4362L10.4347 0.104248Z" fill="#0052B4"/>
<path d="M0.103027 13.5664C0.434059 16.097 1.57082 18.5424 3.51492 20.4865C5.45906 22.4306 7.90434 23.5673 10.435 23.8984L10.435 13.5665L0.103027 13.5664Z" fill="#0052B4"/>
<path d="M13.5649 23.8983C16.0955 23.5673 18.5408 22.4306 20.485 20.4864C22.4291 18.5423 23.5658 16.097 23.8968 13.5664H13.5649V23.8983Z" fill="#0052B4"/>
<path d="M16.0964 7.61471C16.0964 7.45515 16.2261 7.32545 16.3857 7.32545H17.0056C17.9855 7.32545 18.7827 6.52829 18.7827 5.54846C18.7827 4.56863 17.9855 3.77143 17.0056 3.77143H16.417C16.2248 3.6271 15.9671 3.53809 15.6827 3.53809C15.0896 3.53809 14.6088 3.9227 14.6088 4.39716C14.6088 4.86704 15.0804 5.24823 15.6656 5.25563L15.6653 5.25906H17.0056C17.1652 5.25906 17.2949 5.38881 17.2949 5.54837C17.2949 5.70793 17.1652 5.83763 17.0056 5.83763H16.3857C15.4059 5.83763 14.6088 6.63479 14.6088 7.61462C14.6088 8.59445 15.4058 9.39165 16.3857 9.39165H18.7827V7.90393H16.3857C16.2261 7.90398 16.0964 7.77428 16.0964 7.61471Z" fill="#F0F0F0"/>
<path d="M6.70497 7.61496C6.70497 7.4554 6.83467 7.32569 6.99428 7.32569H7.61416C8.59403 7.32569 9.39124 6.52854 9.39124 5.54871C9.39124 4.56888 8.59408 3.77167 7.61416 3.77167H7.0255C6.83336 3.62735 6.5756 3.53833 6.29125 3.53833C5.69814 3.53833 5.21735 3.92294 5.21735 4.39741C5.21735 4.86728 5.68896 5.24847 6.27414 5.25588L6.27386 5.2593H7.61421C7.77381 5.2593 7.90352 5.38905 7.90352 5.54861C7.90352 5.70818 7.77381 5.83788 7.61421 5.83788H6.99433C6.01446 5.83788 5.21735 6.63504 5.21735 7.61486C5.21735 8.59469 6.01441 9.3919 6.99433 9.3919H9.39119V7.90418H6.99428C6.83467 7.90422 6.70497 7.77452 6.70497 7.61496Z" fill="#F0F0F0"/>
<path d="M16.0965 18.686C16.0965 18.5264 16.2262 18.3967 16.3858 18.3967H17.0057C17.9856 18.3967 18.7828 17.5996 18.7828 16.6197C18.7828 15.6399 17.9856 14.8427 17.0057 14.8427H16.417C16.2249 14.6984 15.9671 14.6094 15.6828 14.6094C15.0896 14.6094 14.6088 14.994 14.6088 15.4685C14.6088 15.9383 15.0804 16.3195 15.6656 16.3269L15.6653 16.3303H17.0056C17.1652 16.3303 17.2949 16.4601 17.2949 16.6197C17.2949 16.7792 17.1652 16.9089 17.0056 16.9089H16.3858C15.4059 16.9089 14.6088 17.7061 14.6088 18.6859C14.6088 19.6657 15.4058 20.4629 16.3858 20.4629H18.7827V18.9753H16.3858C16.2262 18.9753 16.0965 18.8455 16.0965 18.686Z" fill="#F0F0F0"/>
<path d="M6.7049 18.686C6.7049 18.5264 6.8346 18.3967 6.99421 18.3967H7.61408C8.59396 18.3967 9.39116 17.5996 9.39116 16.6197C9.39116 15.6399 8.594 14.8427 7.61408 14.8427H7.02543C6.83329 14.6984 6.57552 14.6094 6.29118 14.6094C5.69802 14.6094 5.21722 14.994 5.21722 15.4685C5.21722 15.9383 5.68883 16.3195 6.27402 16.3269L6.27374 16.3303H7.61408C7.77369 16.3303 7.90339 16.4601 7.90339 16.6197C7.90339 16.7792 7.77369 16.9089 7.61408 16.9089H6.99421C6.01433 16.9089 5.21722 17.7061 5.21722 18.6859C5.21722 19.6657 6.01429 20.4629 6.99421 20.4629H9.39111V18.9753H6.99421C6.8346 18.9753 6.7049 18.8455 6.7049 18.686Z" fill="#F0F0F0"/>
</g>
<defs>
<clipPath id="clip0_15_6816">
<rect width="24" height="24" fill="white"/>
</clipPath>
</defs>
</svg>
