<svg width="24" height="24" viewBox="0 0 24 24" fill="none" xmlns="http://www.w3.org/2000/svg">
<g clip-path="url(#clip0_15_6815)">
<path d="M12 24C18.6274 24 24 18.6274 24 12C24 5.37258 18.6274 0 12 0C5.37258 0 0 5.37258 0 12C0 18.6274 5.37258 24 12 24Z" fill="#496E2D"/>
<path d="M11.9996 13.8638C10.0015 13.8638 8.33232 12.4595 7.92278 10.5843C7.85987 10.8726 7.82574 11.1715 7.82574 11.4787C7.82574 13.784 9.69442 15.6526 11.9996 15.6526C14.3049 15.6526 16.1735 13.7839 16.1735 11.4787C16.1735 11.1715 16.1394 10.8726 16.0765 10.5842C15.6669 12.4596 13.9977 13.8638 11.9996 13.8638Z" fill="#FFDA44"/>
<path d="M11.9999 8.3479L12.3884 9.54364H13.6457L12.6285 10.2826L13.017 11.4784L11.9999 10.7393L10.9827 11.4784L11.3713 10.2826L10.3541 9.54364H11.6114L11.9999 8.3479Z" fill="#FFDA44"/>
</g>
<defs>
<clipPath id="clip0_15_6815">
<rect width="24" height="24" fill="white"/>
</clipPath>
</defs>
</svg>
