<svg width="24" height="24" viewBox="0 0 24 24" fill="none" xmlns="http://www.w3.org/2000/svg">
<g clip-path="url(#clip0_15_6807)">
<path d="M24 12C24 18.6274 18.6274 24 12 24C5.37262 24 0 18.6274 0 12C0 12.0029 12 0.0013125 12 0C18.6274 0 24 5.37262 24 12Z" fill="#0052B4"/>
<path d="M11.9684 11.9999H12.0005C12.0005 11.9891 12.0005 11.9786 12.0005 11.9678C11.9898 11.9785 11.9791 11.9892 11.9684 11.9999Z" fill="#F0F0F0"/>
<path d="M12.0004 6.26135C12.0004 4.14986 12.0004 2.76635 12.0004 0.000488281H11.9984C5.37188 0.00161328 0.000427246 5.37372 0.000427246 12.0005H6.26128V8.47497L9.7868 12.0005H11.9684C11.979 11.9898 11.9897 11.9791 12.0005 11.9684C12.0005 11.1599 12.0005 10.4386 12.0005 9.78696L8.47486 6.26135H12.0004Z" fill="#F0F0F0"/>
<path d="M6.07124 1.56543C4.19441 2.63413 2.63409 4.19441 1.56543 6.07124V12.0002H4.69588V4.69598V4.69588H12.0002C12.0002 3.70856 12.0002 2.76796 12.0002 1.56543H6.07124Z" fill="#D80027"/>
<path d="M12.0005 10.5242L7.73698 6.26074H6.26135V6.26084L12.0004 11.9998H12.0005C12.0005 11.9998 12.0005 10.9823 12.0005 10.5242Z" fill="#D80027"/>
<path d="M13.565 6.2605V11.9996C13.565 14.7952 17.2172 15.6518 17.2172 15.6518C17.2172 15.6518 20.8694 14.7952 20.8694 11.9996V6.2605H13.565Z" fill="#338AF3"/>
<path d="M13.565 11.9993C13.565 14.7949 17.2172 15.6515 17.2172 15.6515C17.2172 15.6515 20.8694 14.7949 20.8694 11.9993H13.565Z" fill="#A2001D"/>
<path d="M18.7824 8.86921H17.7388V7.82568H16.6954V8.86921H15.6519V9.91265H16.6954V13.0431H17.7388V9.91265H18.7824V8.86921Z" fill="black"/>
</g>
<defs>
<clipPath id="clip0_15_6807">
<rect width="24" height="24" fill="white"/>
</clipPath>
</defs>
</svg>
