<svg width="24" height="24" viewBox="0 0 24 24" fill="none" xmlns="http://www.w3.org/2000/svg">
<g clip-path="url(#clip0_15_6822)">
<path d="M-6.10352e-05 11.9997C-6.10352e-05 13.4676 0.263986 14.8736 0.74633 16.1736L11.9999 16.6954L23.2535 16.1737C23.7359 14.8736 23.9999 13.4676 23.9999 11.9997C23.9999 10.5319 23.7359 9.12583 23.2535 7.82584L11.9999 7.30408L0.74633 7.8258C0.263986 9.12583 -6.10352e-05 10.5319 -6.10352e-05 11.9997Z" fill="#D80027"/>
<path d="M11.9999 -0.000366211C6.84031 -0.000366211 2.44179 3.25613 0.746277 7.82574H23.2535C21.558 3.25613 17.1595 -0.000366211 11.9999 -0.000366211Z" fill="black"/>
<path d="M23.2534 16.1747H0.746216C2.44173 20.7442 6.84025 24.0008 11.9998 24.0008C17.1594 24.0008 21.5579 20.7442 23.2534 16.1747Z" fill="#496E2D"/>
<path d="M15.5864 5.73994L14.1209 5.0506L14.9014 3.63127L13.3099 3.93572L13.1083 2.328L11.9998 3.51042L10.8913 2.328L10.6896 3.93572L9.09827 3.63127L9.87869 5.0506L8.41315 5.73994H15.5864Z" fill="#D80027"/>
</g>
<defs>
<clipPath id="clip0_15_6822">
<rect width="24" height="24" fill="white"/>
</clipPath>
</defs>
</svg>
