<svg width="24" height="24" viewBox="0 0 24 24" fill="none" xmlns="http://www.w3.org/2000/svg">
<g clip-path="url(#clip0_15_6813)">
<path d="M12 24C18.6274 24 24 18.6274 24 12C24 5.37258 18.6274 0 12 0C5.37258 0 0 5.37258 0 12C0 18.6274 5.37258 24 12 24Z" fill="#F0F0F0"/>
<path d="M23.9998 11.9997C23.9998 7.24218 21.2312 3.13143 17.2172 1.19043V22.8089C21.2312 20.868 23.9998 16.7572 23.9998 11.9997Z" fill="#D80027"/>
<path d="M-6.10352e-05 11.9997C-6.10352e-05 16.7572 2.76861 20.868 6.78256 22.809V1.19043C2.76861 3.13143 -6.10352e-05 7.24218 -6.10352e-05 11.9997Z" fill="#6DA544"/>
<path d="M8.86957 11.9993C8.86957 13.7282 10.2711 15.1297 12 15.1297C13.7289 15.1297 15.1305 13.7282 15.1305 11.9993V10.9558H8.86957V11.9993Z" fill="#6DA544"/>
<path d="M16.1735 9.91336H13.0431C13.0431 9.33708 12.5758 8.86987 11.9996 8.86987C11.4233 8.86987 10.9561 9.33708 10.9561 9.91336H7.82562C7.82562 10.4897 8.32761 10.9568 8.90384 10.9568H8.86911C8.86911 11.5332 9.33626 12.0003 9.91259 12.0003C9.91259 12.5766 10.3798 13.0438 10.9561 13.0438H13.0431C13.6194 13.0438 14.0865 12.5766 14.0865 12.0003C14.6629 12.0003 15.13 11.5332 15.13 10.9568H15.0952C15.6716 10.9568 16.1735 10.4897 16.1735 9.91336Z" fill="#FF9811"/>
</g>
<defs>
<clipPath id="clip0_15_6813">
<rect width="24" height="24" fill="white"/>
</clipPath>
</defs>
</svg>
