<svg width="24" height="24" viewBox="0 0 24 24" fill="none" xmlns="http://www.w3.org/2000/svg">
<g clip-path="url(#clip0_15_6821)">
<path d="M12 24C18.6274 24 24 18.6274 24 12C24 5.37258 18.6274 0 12 0C5.37258 0 0 5.37258 0 12C0 18.6274 5.37258 24 12 24Z" fill="#F0F0F0"/>
<path d="M11.4783 12.0002H24.0001C24.0001 10.9171 23.8557 9.86791 23.5867 8.86975H11.4783V12.0002Z" fill="#D80027"/>
<path d="M11.4783 5.73873H22.2388C21.5042 4.54004 20.5651 3.48053 19.4699 2.60828H11.4783V5.73873Z" fill="#D80027"/>
<path d="M12.0002 24.0002C14.8244 24.0002 17.4202 23.024 19.4701 21.3915H4.53033C6.58022 23.024 9.17602 24.0002 12.0002 24.0002Z" fill="#D80027"/>
<path d="M1.76146 18.2601H22.2389C22.8286 17.2978 23.2859 16.2459 23.5868 15.1296H0.413574C0.714371 16.2459 1.17173 17.2978 1.76146 18.2601Z" fill="#D80027"/>
<path d="M12 12C12 5.37262 12 4.59131 12 0C5.37262 0 0 5.37262 0 12H12Z" fill="#0052B4"/>
<path d="M7.98007 10.2709C6.34123 10.2709 5.0127 8.94229 5.0127 7.30349C5.0127 5.6647 6.34127 4.33612 7.98007 4.33612C8.49106 4.33612 8.97185 4.46535 9.39162 4.69279C8.73312 4.04887 7.83256 3.65137 6.83876 3.65137C4.82177 3.65137 3.18658 5.28651 3.18658 7.30354C3.18658 9.32057 4.82177 10.9557 6.83876 10.9557C7.83256 10.9557 8.73312 10.5582 9.39162 9.91429C8.97185 10.1416 8.4911 10.2709 7.98007 10.2709Z" fill="#FFDA44"/>
<path d="M8.81665 5.21729L9.34348 6.31894L10.5332 6.04407L10.0004 7.14277L10.9572 7.90153L9.76596 8.17008L9.76929 9.39122L8.81665 8.62725L7.86396 9.39122L7.86725 8.17008L6.67596 7.90153L7.63278 7.14277L7.09995 6.04407L8.28978 6.31894L8.81665 5.21729Z" fill="#FFDA44"/>
</g>
<defs>
<clipPath id="clip0_15_6821">
<rect width="24" height="24" fill="white"/>
</clipPath>
</defs>
</svg>
