<svg width="24" height="24" viewBox="0 0 24 24" fill="none" xmlns="http://www.w3.org/2000/svg">
<g clip-path="url(#clip0_15_6805)">
<path d="M12 24C18.6274 24 24 18.6274 24 12C24 5.37258 18.6274 0 12 0C5.37258 0 0 5.37258 0 12C0 18.6274 5.37258 24 12 24Z" fill="#F0F0F0"/>
<path d="M6.48568 16.6959L3.51465 20.4852C5.68609 22.6569 8.68576 24.0003 11.9995 24.0003C16.9603 24.0003 21.2172 20.9895 23.0447 16.6959H6.48568Z" fill="#FFDA44"/>
<path d="M23.0634 7.34841C21.2461 3.03164 16.9771 0.000610352 11.9995 0.000610352C8.68576 0.000610352 5.68609 1.344 3.51465 3.51572L6.51981 7.34841H23.0634Z" fill="#496E2D"/>
<path d="M2.60864 8.82593V15.1302H23.5866C23.8558 14.1322 23.9999 13.083 23.9999 11.9998C23.9999 10.901 23.8519 9.83693 23.5752 8.82593H2.60864Z" fill="black"/>
<path d="M3.51434 3.51428C-1.17194 8.20056 -1.17194 15.7986 3.51434 20.4849C5.45089 18.5484 7.31337 16.6859 11.9997 11.9996L3.51434 3.51428Z" fill="#A2001D"/>
<path d="M4.85701 8.86938L5.63396 11.2608H8.14861L6.11433 12.7388L6.89124 15.1303L4.85701 13.6523L2.82268 15.1303L3.59977 12.7388L1.56549 11.2608H4.07996L4.85701 8.86938Z" fill="#FFDA44"/>
<path d="M7.13107 11.9991H2.58307V14.0861H7.13107V11.9991Z" fill="#F0F0F0"/>
<path d="M7.99216 9.60729L7.2543 8.86938L4.85674 11.2669L2.45917 8.86938L1.72131 9.60729L4.12099 12.0027L1.72131 14.4024L2.45917 15.1303L4.85674 12.737L7.2543 15.1303L7.99216 14.4024L5.59249 12.0027L7.99216 9.60729Z" fill="black"/>
</g>
<defs>
<clipPath id="clip0_15_6805">
<rect width="24" height="24" fill="white"/>
</clipPath>
</defs>
</svg>
