<svg width="24" height="24" viewBox="0 0 24 24" fill="none" xmlns="http://www.w3.org/2000/svg">
<g clip-path="url(#clip0_15_6803)">
<path d="M12 24C18.6274 24 24 18.6274 24 12C24 5.37258 18.6274 0 12 0C5.37258 0 0 5.37258 0 12C0 18.6274 5.37258 24 12 24Z" fill="#F0F0F0"/>
<path d="M3.51451 20.4849C4.0179 20.9883 4.55499 21.4372 5.11838 21.8325L21.8326 5.11826C21.4374 4.55487 20.9884 4.01778 20.485 3.51439C19.9816 3.011 19.4445 2.56212 18.8811 2.16687L2.16699 18.8811C2.5622 19.4444 3.01112 19.9815 3.51451 20.4849Z" fill="#A2001D"/>
<path d="M3.51501 3.51478C-0.270799 7.30059 -0.99755 12.9862 1.33322 17.5022L17.5024 1.33307C12.9863 -0.997692 7.30073 -0.270848 3.51501 3.51478Z" fill="#0052B4"/>
<path d="M20.4858 20.4847C24.2715 16.699 24.9982 11.0134 22.6676 6.49731L6.49841 22.6665C11.0144 24.9972 16.7 24.2705 20.4858 20.4847Z" fill="#496E2D"/>
<path d="M9.9132 6.78182L8.56854 7.41431L9.2846 8.71659L7.82449 8.43731L7.63943 9.91223L6.62243 8.8274L5.60538 9.91223L5.42042 8.43731L3.96026 8.71654L4.67627 7.41426L3.33167 6.78182L4.67632 6.14929L3.96026 4.8471L5.42037 5.12638L5.60543 3.65137L6.62243 4.73624L7.63948 3.65137L7.82449 5.12638L9.2846 4.8471L8.56863 6.14934L9.9132 6.78182Z" fill="#FFDA44"/>
</g>
<defs>
<clipPath id="clip0_15_6803">
<rect width="24" height="24" fill="white"/>
</clipPath>
</defs>
</svg>
