<svg width="24" height="24" viewBox="0 0 24 24" fill="none" xmlns="http://www.w3.org/2000/svg">
<g clip-path="url(#clip0_15_6797)">
<path d="M1.19029 6.78213C0.427448 8.35976 -0.000427246 10.1296 -0.000427246 11.9995C-0.000427246 13.8694 0.427448 15.6393 1.19029 17.2169L11.9996 18.2604L22.8089 17.2169C23.5717 15.6393 23.9996 13.8694 23.9996 11.9995C23.9996 10.1296 23.5717 8.35976 22.8089 6.78213L11.9996 5.73865L1.19029 6.78213Z" fill="#F0F0F0"/>
<path d="M1.19092 17.2183C3.13182 21.2322 7.24225 24.0009 11.9998 24.0009C16.7573 24.0009 20.8677 21.2322 22.8086 17.2183H1.19092Z" fill="#6DA544"/>
<path d="M1.19092 6.78238H22.8086C20.8677 2.76843 16.7573 -0.000244141 11.9998 -0.000244141C7.24229 -0.000244141 3.13182 2.76843 1.19092 6.78238Z" fill="#FF9811"/>
<path d="M12 16.1742C14.3052 16.1742 16.1739 14.3055 16.1739 12.0003C16.1739 9.69513 14.3052 7.82642 12 7.82642C9.69483 7.82642 7.82611 9.69513 7.82611 12.0003C7.82611 14.3055 9.69483 16.1742 12 16.1742Z" fill="#FF9811"/>
</g>
<defs>
<clipPath id="clip0_15_6797">
<rect width="24" height="24" fill="white"/>
</clipPath>
</defs>
</svg>
