<svg width="24" height="24" viewBox="0 0 24 24" fill="none" xmlns="http://www.w3.org/2000/svg">
<g clip-path="url(#clip0_15_6794)">
<path d="M17.2169 1.19047C15.6393 0.427631 13.8695 -0.000244141 11.9996 -0.000244141C10.1297 -0.000244141 8.35982 0.427631 6.78219 1.19047L5.73871 11.9998L6.78219 22.809C8.35982 23.5719 10.1297 23.9998 11.9996 23.9998C13.8695 23.9998 15.6393 23.5719 17.2169 22.809L18.2604 11.9998L17.2169 1.19047Z" fill="#F0F0F0"/>
<path d="M6.78256 1.19116C2.76861 3.13207 -6.10352e-05 7.24249 -6.10352e-05 12C-6.10352e-05 16.7576 2.76861 20.868 6.78256 22.8089V1.19116Z" fill="#6DA544"/>
<path d="M17.2172 1.19116V22.8089C21.2311 20.868 23.9998 16.7575 23.9998 12C23.9998 7.24254 21.2311 3.13207 17.2172 1.19116Z" fill="#6DA544"/>
<path d="M15.1305 15.6516L12 5.73853L8.86957 15.6516H11.2174V18.2603H12.7826V15.6516H15.1305Z" fill="#6DA544"/>
</g>
<defs>
<clipPath id="clip0_15_6794">
<rect width="24" height="24" fill="white"/>
</clipPath>
</defs>
</svg>
