<svg width="24" height="24" viewBox="0 0 24 24" fill="none" xmlns="http://www.w3.org/2000/svg">
<g clip-path="url(#clip0_15_6798)">
<path d="M12 24C18.6274 24 24 18.6274 24 12C24 5.37258 18.6274 0 12 0C5.37258 0 0 5.37258 0 12C0 18.6274 5.37258 24 12 24Z" fill="#F0F0F0"/>
<path d="M12.0003 -0.000244141C7.24279 -0.000244141 3.13204 2.76843 1.19104 6.78238H22.8096C20.8686 2.76843 16.7578 -0.000244141 12.0003 -0.000244141Z" fill="#338AF3"/>
<path d="M12.0003 24.001C16.7578 24.001 20.8686 21.2323 22.8096 17.2184H1.19104C3.13204 21.2323 7.24279 24.001 12.0003 24.001Z" fill="#338AF3"/>
<path d="M12.0003 8.34766C9.98328 8.34766 8.34814 9.9828 8.34814 11.9998C8.34814 14.0169 9.98328 15.652 12.0003 15.652C14.0173 15.652 15.6525 14.0169 15.6525 11.9998C15.6525 9.9828 14.0173 8.34766 12.0003 8.34766ZM12.0003 14.0868C10.8478 14.0868 9.91335 13.1525 9.91335 11.9998C9.91335 10.8472 10.8477 9.91286 12.0003 9.91286C13.1529 9.91286 14.0873 10.8472 14.0873 11.9998C14.0873 13.1525 13.1529 14.0868 12.0003 14.0868Z" fill="#FFDA44"/>
<path d="M13.8069 12.5222L11.9995 12.0005L10.1921 12.5222L9.58966 13.5657H14.4093L13.8069 12.5222Z" fill="#0052B4"/>
<path d="M11.9998 9.39136L10.7949 11.4783L11.9998 12L13.2047 11.4783L11.9998 9.39136Z" fill="#338AF3"/>
<path d="M10.1923 12.5211H13.8071L13.2046 11.4777H10.7947L10.1923 12.5211Z" fill="#6DA544"/>
</g>
<defs>
<clipPath id="clip0_15_6798">
<rect width="24" height="24" fill="white"/>
</clipPath>
</defs>
</svg>
