<svg width="24" height="24" viewBox="0 0 24 24" fill="none" xmlns="http://www.w3.org/2000/svg">
<g clip-path="url(#clip0_15_6801)">
<path d="M12 24C18.6274 24 24 18.6274 24 12C24 5.37258 18.6274 0 12 0C5.37258 0 0 5.37258 0 12C0 18.6274 5.37258 24 12 24Z" fill="#F0F0F0"/>
<path d="M23.9299 13.3046L23.9296 13.3042L23.9296 13.3046H23.9299Z" fill="#0052B4"/>
<path d="M23.9292 13.3041C23.9292 13.304 23.9292 13.3039 23.9292 13.3037L10.7693 0.0621338C10.1756 0.122649 9.59469 0.226431 9.0298 0.37029C3.83891 1.69193 -6.10352e-05 11.9997 -6.10352e-05 11.9997C-6.10352e-05 11.9997 16.7998 23.242 18.7164 21.9449C19.0999 21.6854 19.4676 21.4043 19.8177 21.1034L12.0185 13.3041H23.9292Z" fill="#0052B4"/>
<path d="M20.8697 11.9995L9.19911 0.328979C3.923 1.59071 0.00012207 6.33662 0.00012207 11.9995C0.00012207 18.6269 5.37275 23.9995 12.0001 23.9995C14.514 23.9995 16.8469 23.226 18.7749 21.9047L8.86967 11.9995H20.8697Z" fill="#D80027"/>
<path d="M11.4125 17.7174L9.94698 17.028L10.7274 15.6087L9.13599 15.9131L8.93434 14.3054L7.82588 15.4878L6.71743 14.3054L6.51573 15.9131L4.92437 15.6086L5.70479 17.028L4.2392 17.7174L5.70479 18.4067L4.92437 19.826L6.51582 19.5216L6.71738 21.1292L7.82588 19.9468L8.93434 21.1292L9.13599 19.5216L10.7274 19.8261L9.94693 18.4067L11.4125 17.7174Z" fill="#F0F0F0"/>
<path d="M10.4342 6.6549L9.36828 6.15357L9.93589 5.12124L8.77841 5.34268L8.63174 4.17334L7.82553 5.03335L7.01933 4.17334L6.87261 5.34268L5.71512 5.12124L6.28278 6.15357L5.2168 6.6549L7.82553 7.17671L10.4342 6.6549Z" fill="#F0F0F0"/>
<path d="M10.9566 6.65527C10.9566 8.38416 9.55508 9.78572 7.82619 9.78572C6.0973 9.78572 4.69574 8.38416 4.69574 6.65527" fill="#F0F0F0"/>
</g>
<defs>
<clipPath id="clip0_15_6801">
<rect width="24" height="24" fill="white"/>
</clipPath>
</defs>
</svg>
