<svg width="24" height="24" viewBox="0 0 24 24" fill="none" xmlns="http://www.w3.org/2000/svg">
<g clip-path="url(#clip0_15_6802)">
<path d="M12 24C18.6274 24 24 18.6274 24 12C24 5.37258 18.6274 0 12 0C5.37258 0 0 5.37258 0 12C0 18.6274 5.37258 24 12 24Z" fill="#0052B4"/>
<path d="M12 24C18.6274 24 24 18.6274 24 12C24 5.37258 18.6274 0 12 0C5.37258 0 0 5.37258 0 12C0 18.6274 5.37258 24 12 24Z" fill="#FFDA44"/>
<path d="M12.001 -0.000488281C5.72524 -0.000488281 0.575644 4.81737 0.0467529 10.956H23.9554C23.4265 4.81737 18.2769 -0.000488281 12.001 -0.000488281Z" fill="#0052B4"/>
<path d="M12 24.0001C18.2758 24.0001 23.4254 19.1822 23.9543 13.0436H0.0456543C0.574545 19.1822 5.72414 24.0001 12 24.0001Z" fill="#0052B4"/>
<path d="M9.91324 16.1745L8.56859 16.807L9.2846 18.1092L7.82449 17.8299L7.63948 19.3049L6.62243 18.2201L5.60543 19.3049L5.42042 17.8299L3.96026 18.1092L4.67632 16.807L3.33167 16.1745L4.67637 15.542L3.96026 14.2398L5.42037 14.5191L5.60548 13.0441L6.62243 14.1289L7.63953 13.0441L7.82449 14.5191L9.28465 14.2398L8.56863 15.542L9.91324 16.1745Z" fill="#F0F0F0"/>
</g>
<defs>
<clipPath id="clip0_15_6802">
<rect width="24" height="24" fill="white"/>
</clipPath>
</defs>
</svg>
