<svg width="24" height="24" viewBox="0 0 24 24" fill="none" xmlns="http://www.w3.org/2000/svg">
<g clip-path="url(#clip0_15_6799)">
<path d="M24 12C24 18.6274 18.6274 24 12 24C5.37262 24 0 18.6274 0 12C0 12.0029 12 0.0013125 12 0C18.6274 0 24 5.37262 24 12Z" fill="#0052B4"/>
<path d="M11.9684 12.0004H12.0006C12.0006 11.9896 12.0006 11.9791 12.0006 11.9683C11.9898 11.979 11.9791 11.9897 11.9684 12.0004Z" fill="#F0F0F0"/>
<path d="M12.0004 6.26086C12.0004 4.14937 12.0004 2.76586 12.0004 0H11.9983C5.37186 0.001125 0.000366211 5.37323 0.000366211 12H6.26122V8.47448L9.78678 12H11.9683C11.979 11.9893 11.9897 11.9786 12.0004 11.9679C12.0004 11.1594 12.0004 10.4381 12.0004 9.78647L8.4748 6.26086H12.0004Z" fill="#F0F0F0"/>
<path d="M6.07112 1.56494C4.19429 2.63364 2.63401 4.19393 1.56531 6.07075V11.9997H4.69576V4.69549V4.69539H12.0001C12.0001 3.70807 12.0001 2.76747 12.0001 1.56494H6.07112Z" fill="#D80027"/>
<path d="M12.0004 10.5247L7.73696 6.26123C7.73696 6.26123 6.26129 6.26132 6.26129 6.26123V6.26132L12.0003 12.0003H12.0004C12.0004 12.0003 12.0004 10.9828 12.0004 10.5247Z" fill="#D80027"/>
<path d="M20.7811 8.90466L21.0401 9.70182H21.8783L21.2002 10.1945L21.4592 10.9916L20.7811 10.499L20.1029 10.9916L20.362 10.1945L19.6838 9.70182H20.522L20.7811 8.90466Z" fill="#D80027"/>
<path d="M17.7849 14.6436L18.1735 15.8393H19.4307L18.4135 16.5783L18.8021 17.774L17.7849 17.035L16.7678 17.774L17.1563 16.5783L16.1392 15.8393H17.3964L17.7849 14.6436Z" fill="#D80027"/>
<path d="M17.8985 5.25183L18.2223 6.24834H19.27L18.4223 6.86405L18.7461 7.86051L17.8985 7.24463L17.0509 7.86051L17.3746 6.86405L16.527 6.24834H17.5747L17.8985 5.25183Z" fill="#D80027"/>
<path d="M15.0152 8.86987L15.4037 10.0657H16.6609L15.6438 10.8046L16.0324 12.0003L15.0152 11.2613L13.998 12.0003L14.3866 10.8046L13.3694 10.0657H14.6266L15.0152 8.86987Z" fill="#D80027"/>
</g>
<defs>
<clipPath id="clip0_15_6799">
<rect width="24" height="24" fill="white"/>
</clipPath>
</defs>
</svg>
