<svg width="24" height="24" viewBox="0 0 24 24" fill="none" xmlns="http://www.w3.org/2000/svg">
<g clip-path="url(#clip0_15_6790)">
<path d="M12 24C18.6274 24 24 18.6274 24 12C24 5.37258 18.6274 0 12 0C5.37258 0 0 5.37258 0 12C0 18.6274 5.37258 24 12 24Z" fill="#F0F0F0"/>
<path d="M6.10352e-05 12.0004C6.10352e-05 16.5489 2.53084 20.5061 6.26092 22.5413V1.45947C2.53084 3.49469 6.10352e-05 7.45188 6.10352e-05 12.0004Z" fill="#D80027"/>
<path d="M23.2537 16.1749C23.7361 14.8749 24.0001 13.4689 24.0001 12.001C24.0001 10.5332 23.7361 9.12709 23.2537 7.82715H0.746499C0.264108 9.12709 6.10352e-05 10.5332 6.10352e-05 12.001C6.10352e-05 13.4689 0.264108 14.8749 0.746499 16.1749L12.0001 17.2184L23.2537 16.1749Z" fill="#D80027"/>
<path d="M12.0003 23.9997C17.1599 23.9997 21.5584 20.7432 23.2539 16.1736H0.746704C2.44217 20.7432 6.84073 23.9997 12.0003 23.9997Z" fill="#6DA544"/>
<path d="M0.000244141 11.9997C0.000244141 17.544 3.7606 22.2093 8.86979 23.5863V0.413086C3.7606 1.79009 0.000244141 6.45537 0.000244141 11.9997Z" fill="#D80027"/>
<path d="M7.34159 5.28157L6.23483 4.1748L5.49701 4.91271L4.7592 4.1748L3.65244 5.28157L4.3903 6.01943L3.65234 6.75734L4.75911 7.8641L5.49697 7.1262L6.23483 7.8641L7.34159 6.75734L6.60373 6.01943L7.34159 5.28157Z" fill="#F0F0F0"/>
</g>
<defs>
<clipPath id="clip0_15_6790">
<rect width="24" height="24" fill="white"/>
</clipPath>
</defs>
</svg>
