<svg width="24" height="24" viewBox="0 0 24 24" fill="none" xmlns="http://www.w3.org/2000/svg">
<g clip-path="url(#clip0_15_6783)">
<path d="M12 24C18.6274 24 24 18.6274 24 12C24 5.37258 18.6274 0 12 0C5.37258 0 0 5.37258 0 12C0 18.6274 5.37258 24 12 24Z" fill="#F0F0F0"/>
<path d="M24.0001 12.0014C24.0001 6.84183 20.7436 2.44327 16.174 0.747803V23.2551C20.7436 21.5595 24.0001 17.161 24.0001 12.0014Z" fill="#D80027"/>
<path d="M0.000244141 12.0006C0.000244141 17.1603 3.25674 21.5587 7.82635 23.2543V0.74707C3.25674 2.44254 0.000244141 6.8411 0.000244141 12.0006Z" fill="#D80027"/>
</g>
<defs>
<clipPath id="clip0_15_6783">
<rect width="24" height="24" fill="white"/>
</clipPath>
</defs>
</svg>
