<svg width="24" height="24" viewBox="0 0 24 24" fill="none" xmlns="http://www.w3.org/2000/svg">
<g clip-path="url(#clip0_15_6941)">
<path d="M12 24C18.6274 24 24 18.6274 24 12C24 5.37258 18.6274 0 12 0C5.37258 0 0 5.37258 0 12C0 18.6274 5.37258 24 12 24Z" fill="#F0F0F0"/>
<path d="M1.45911 6.26159H22.5409C20.5057 2.53147 16.5485 0.000732422 12 0.000732422C7.45151 0.000732422 3.49437 2.53147 1.45911 6.26159Z" fill="#D80027"/>
<path d="M11.9997 23.9999C16.5482 23.9999 20.5053 21.4691 22.5406 17.739H1.45877C3.49404 21.4691 7.45118 23.9999 11.9997 23.9999Z" fill="#D80027"/>
<path d="M16.174 11.9997C16.174 14.3049 14.3053 15.6519 12.0001 15.6519C9.69495 15.6519 7.82623 14.3049 7.82623 11.9997C7.82623 9.69448 9.69495 7.82581 12.0001 7.82581C14.3053 7.82581 16.174 9.69448 16.174 11.9997Z" fill="#FFDA44"/>
<path d="M16.174 11.9998C16.174 14.305 14.3053 16.1737 12.0001 16.1737C9.69495 16.1737 7.82623 14.305 7.82623 11.9998" fill="#0052B4"/>
<path d="M10.4351 10.9559H9.3916V13.0429H10.4351V10.9559Z" fill="#D80027"/>
<path d="M14.6089 10.9559H13.5654V13.0429H14.6089V10.9559Z" fill="#D80027"/>
<path d="M12.522 9.39087H11.4785V13.043H12.522V9.39087Z" fill="#D80027"/>
</g>
<defs>
<clipPath id="clip0_15_6941">
<rect width="24" height="24" fill="white"/>
</clipPath>
</defs>
</svg>
