<svg width="24" height="24" viewBox="0 0 24 24" fill="none" xmlns="http://www.w3.org/2000/svg">
<g clip-path="url(#clip0_15_6779)">
<path d="M12 24C18.6274 24 24 18.6274 24 12C24 5.37258 18.6274 0 12 0C5.37258 0 0 5.37258 0 12C0 18.6274 5.37258 24 12 24Z" fill="#F0F0F0"/>
<path d="M11.999 -0.000610352C8.07308 -0.000610352 4.58769 1.88484 2.39844 4.79939H21.5995C19.4102 1.88484 15.9248 -0.000610352 11.999 -0.000610352Z" fill="#D80027"/>
<path d="M11.999 23.9993C15.9248 23.9993 19.4102 22.1139 21.5995 19.1993H2.39844C4.58769 22.1139 8.07308 23.9993 11.999 23.9993Z" fill="#D80027"/>
<path d="M-0.000549316 11.9994C-0.000549316 12.8213 0.0823257 13.6239 0.239779 14.3994H23.7592C23.9167 13.6239 23.9995 12.8213 23.9995 11.9994C23.9995 11.1774 23.9166 10.3748 23.7592 9.59937H0.239779C0.0823257 10.3748 -0.000549316 11.1774 -0.000549316 11.9994Z" fill="#D80027"/>
<path d="M3.51434 3.51538C-1.17194 8.20166 -1.17194 15.7997 3.51434 20.486C5.45089 18.5495 7.31337 16.687 11.9997 12.0007L3.51434 3.51538Z" fill="#0052B4"/>
<path d="M4.85701 8.86877L5.63396 11.2601H8.14861L6.11433 12.7382L6.89124 15.1297L4.85701 13.6517L2.82268 15.1297L3.59977 12.7382L1.56549 11.2601H4.07996L4.85701 8.86877Z" fill="#F0F0F0"/>
</g>
<defs>
<clipPath id="clip0_15_6779">
<rect width="24" height="24" fill="white"/>
</clipPath>
</defs>
</svg>
