<svg width="24" height="24" viewBox="0 0 24 24" fill="none" xmlns="http://www.w3.org/2000/svg">
<g clip-path="url(#clip0_15_6787)">
<path d="M12 24C18.6274 24 24 18.6274 24 12C24 5.37258 18.6274 0 12 0C5.37258 0 0 5.37258 0 12C0 18.6274 5.37258 24 12 24Z" fill="#F0F0F0"/>
<path d="M7.30431 7.82684H23.2535C21.5581 3.25723 17.1595 0.000732422 12 0.000732422C8.68619 0.000732422 5.68651 1.34412 3.51508 3.51584L7.30431 7.82684Z" fill="black"/>
<path d="M7.30431 16.1736H23.2535C21.5581 20.7432 17.1595 23.9997 12 23.9997C8.68619 23.9997 5.68651 22.6563 3.51508 20.4846L7.30431 16.1736Z" fill="#6DA544"/>
<path d="M3.51465 3.51489C-1.17163 8.20117 -1.17163 15.7992 3.51465 20.4855C5.4512 18.549 7.31368 16.6865 12 12.0002L3.51465 3.51489Z" fill="#D80027"/>
</g>
<defs>
<clipPath id="clip0_15_6787">
<rect width="24" height="24" fill="white"/>
</clipPath>
</defs>
</svg>
