<svg width="24" height="24" viewBox="0 0 24 24" fill="none" xmlns="http://www.w3.org/2000/svg">
<g clip-path="url(#clip0_15_6784)">
<path d="M12 24C18.6274 24 24 18.6274 24 12C24 5.37258 18.6274 0 12 0C5.37258 0 0 5.37258 0 12C0 18.6274 5.37258 24 12 24Z" fill="#F0F0F0"/>
<path d="M12.0003 0C7.24279 0 3.13204 2.76867 1.19104 6.78262H22.8096C20.8686 2.76867 16.7578 0 12.0003 0Z" fill="#D80027"/>
<path d="M12.0003 24.0009C16.7578 24.0009 20.8686 21.2322 22.8096 17.2183H1.19104C3.13204 21.2322 7.24279 24.0009 12.0003 24.0009Z" fill="#0052B4"/>
<path d="M14.9511 8.52661L13.8443 9.63338C14.3164 10.1055 14.6085 10.7576 14.6085 11.478C14.6085 12.9188 13.4405 14.0867 11.9998 14.0867C10.5591 14.0867 9.39107 12.9187 9.39107 11.478C9.39107 10.7576 9.6831 10.1055 10.1552 9.63338L9.04842 8.52661C8.29302 9.28186 7.82587 10.3253 7.82587 11.478C7.82587 13.7832 9.69459 15.6519 11.9998 15.6519C14.3049 15.6519 16.1737 13.7832 16.1737 11.478C16.1736 10.3253 15.7065 9.28186 14.9511 8.52661Z" fill="#6DA544"/>
<path d="M11.9999 9.9126L12.3885 11.1084H13.6457L12.6285 11.8473L13.0171 13.043L11.9999 12.3041L10.9827 13.043L11.3713 11.8473L10.3541 11.1084H11.6114L11.9999 9.9126Z" fill="#FFDA44"/>
</g>
<defs>
<clipPath id="clip0_15_6784">
<rect width="24" height="24" fill="white"/>
</clipPath>
</defs>
</svg>
