<svg width="24" height="24" viewBox="0 0 24 24" fill="none" xmlns="http://www.w3.org/2000/svg">
<g clip-path="url(#clip0_15_6778)">
<path d="M12 24C18.6274 24 24 18.6274 24 12C24 5.37258 18.6274 0 12 0C5.37258 0 0 5.37258 0 12C0 18.6274 5.37258 24 12 24Z" fill="#F0F0F0"/>
<path d="M24 12C24 5.37262 18.6273 0 12 0C9.65246 0 7.46274 0.674766 5.61315 1.83989L8.24345 2.95744L4.69562 4.46484L8.24345 5.9722L4.69562 7.47952L8.24345 8.98678L4.69562 10.4939L8.24345 12.0008L4.69562 13.5082L8.24345 15.0154L4.69562 16.5225L8.24345 18.0297L4.69562 19.537L8.24345 21.0441L5.61432 22.161C7.46368 23.3256 9.65293 24 12 24C18.6273 24 24 18.6274 24 12Z" fill="#751A46"/>
</g>
<defs>
<clipPath id="clip0_15_6778">
<rect width="24" height="24" fill="white"/>
</clipPath>
</defs>
</svg>
