<svg width="24" height="24" viewBox="0 0 24 24" fill="none" xmlns="http://www.w3.org/2000/svg">
<g clip-path="url(#clip0_15_6774)">
<path d="M16.1742 0.745367C14.8741 0.26307 13.4681 -0.000976556 12.0003 -0.000976556C10.5324 -0.00102343 9.12637 0.26307 7.82638 0.745367L6.7829 11.999L7.82638 23.2526C9.12632 23.735 10.5324 23.999 12.0003 23.999C13.4681 23.999 14.8742 23.735 16.1742 23.2526L17.2176 11.999L16.1742 0.745367Z" fill="#FFDA44"/>
<path d="M23.9997 11.9996C23.9997 6.84005 20.7432 2.44144 16.1736 0.745972V23.2533C20.7432 21.5576 23.9997 17.1592 23.9997 11.9996Z" fill="#D80027"/>
<path d="M0.000183105 11.9995C0.000183105 17.1592 3.25668 21.5576 7.8262 23.2532L7.82625 0.745972C3.25668 2.44144 0.000183105 6.83991 0.000183105 11.9995Z" fill="#0052B4"/>
</g>
<defs>
<clipPath id="clip0_15_6774">
<rect width="24" height="24" fill="white"/>
</clipPath>
</defs>
</svg>
