<svg width="24" height="24" viewBox="0 0 24 24" fill="none" xmlns="http://www.w3.org/2000/svg">
<g clip-path="url(#clip0_15_6773)">
<path d="M12 24C18.6274 24 24 18.6274 24 12C24 5.37258 18.6274 0 12 0C5.37258 0 0 5.37258 0 12C0 18.6274 5.37258 24 12 24Z" fill="#F0F0F0"/>
<path d="M23.2539 16.1733C23.7362 14.8734 24.0002 13.4673 24.0002 11.9995C24.0002 10.5316 23.7362 9.12555 23.2539 7.82556H0.746635C0.264291 9.12555 0.000244141 10.5316 0.000244141 11.9995C0.000244141 13.4673 0.264291 14.8734 0.746635 16.1733L12.0002 17.2168L23.2539 16.1733Z" fill="#0052B4"/>
<path d="M12.0003 23.9995C17.1599 23.9995 21.5584 20.743 23.2539 16.1733H0.746704C2.44222 20.743 6.84073 23.9995 12.0003 23.9995Z" fill="#D80027"/>
</g>
<defs>
<clipPath id="clip0_15_6773">
<rect width="24" height="24" fill="white"/>
</clipPath>
</defs>
</svg>
