<svg width="24" height="24" viewBox="0 0 24 24" fill="none" xmlns="http://www.w3.org/2000/svg">
<g clip-path="url(#clip0_15_6772)">
<path d="M0.000366211 11.9991C0.000366211 14.078 0.529257 16.0333 1.45944 17.7382L12.0004 18.7817L22.5413 17.7382C23.4715 16.0333 24.0004 14.078 24.0004 11.9991L12.0004 10.9556L0.000366211 11.9991Z" fill="#FFDA44"/>
<path d="M22.5409 6.26086C20.5057 2.53073 16.5485 0 12 0C7.45148 0 3.49434 2.53073 1.45908 6.26086C0.528891 7.96575 0 9.92109 0 12H24C24 9.92109 23.4711 7.96575 22.5409 6.26086Z" fill="#338AF3"/>
<path d="M12.0003 23.9991C16.5488 23.9991 20.506 21.4684 22.5413 17.7383H1.45941C3.49468 21.4684 7.45182 23.9991 12.0003 23.9991Z" fill="#496E2D"/>
<path d="M13.565 7.02244L15.0306 7.71183L14.2502 9.1312L15.8416 8.8268L16.0432 10.4344L17.1516 9.252L18.2601 10.4344L18.4617 8.8268L20.0532 9.13111L19.2728 7.71178L20.7383 7.02244L19.2727 6.33314L20.0532 4.91377L18.4618 5.21817L18.2601 3.6106L17.1516 4.79297L16.0432 3.6106L15.8416 5.21817L14.2501 4.91377L15.0305 6.33319L13.565 7.02244Z" fill="#FFDA44"/>
</g>
<defs>
<clipPath id="clip0_15_6772">
<rect width="24" height="24" fill="white"/>
</clipPath>
</defs>
</svg>
