<svg width="24" height="24" viewBox="0 0 24 24" fill="none" xmlns="http://www.w3.org/2000/svg">
<g clip-path="url(#clip0_15_6882)">
<path d="M20.4861 20.4851C24.9866 15.9846 25.1643 8.79939 21.0211 4.08569L12.0005 11.9994L4.08667 21.0201C8.80036 25.1633 15.9855 24.9856 20.4861 20.4851Z" fill="#496E2D"/>
<path d="M3.51487 3.5144C8.01537 -0.986107 15.2006 -1.16381 19.9143 2.97942L12.0004 12.0001L2.97993 19.9138C-1.16334 15.2001 -0.985595 8.01491 3.51487 3.5144Z" fill="#0052B4"/>
<path d="M19.9139 2.98022L2.97949 19.9146C3.15068 20.1094 3.32843 20.3005 3.51448 20.4864C3.70048 20.6724 3.89158 20.8502 4.0864 21.0214L21.0207 4.08703C20.8495 3.89222 20.6717 3.70116 20.4856 3.51511C20.2997 3.32921 20.1086 3.15141 19.9139 2.98022Z" fill="#FFDA44"/>
<path d="M5.05674 4.17444L5.31581 4.97164H6.15398L5.47589 5.46425L5.73488 6.26145L5.05674 5.76875L4.3786 6.26145L4.63767 5.46425L3.95953 4.97164H4.79775L5.05674 4.17444Z" fill="#F0F0F0"/>
<path d="M9.33756 4.17358L9.59664 4.97079H10.4348L9.75667 5.46339L10.0157 6.2606L9.33756 5.76789L8.65942 6.2606L8.9185 5.46339L8.24036 4.97079H9.07853L9.33756 4.17358Z" fill="#F0F0F0"/>
<path d="M5.05637 8.34778L5.31545 9.14498H6.15362L5.47553 9.63763L5.73451 10.4348L5.05637 9.94213L4.37823 10.4348L4.63731 9.63763L3.95917 9.14498H4.79739L5.05637 8.34778Z" fill="#F0F0F0"/>
<path d="M9.33756 8.34778L9.59664 9.14498H10.4348L9.75667 9.63763L10.0157 10.4348L9.33756 9.94213L8.65942 10.4348L8.9185 9.63763L8.24036 9.14498H9.07853L9.33756 8.34778Z" fill="#F0F0F0"/>
<path d="M7.19704 6.2616L7.45612 7.0588H8.29424L7.61615 7.55145L7.87518 8.34865L7.19704 7.85595L6.5189 8.34865L6.77793 7.55145L6.09979 7.0588H6.93801L7.19704 6.2616Z" fill="#F0F0F0"/>
</g>
<defs>
<clipPath id="clip0_15_6882">
<rect width="24" height="24" fill="white"/>
</clipPath>
</defs>
</svg>
