<svg width="24" height="24" viewBox="0 0 24 24" fill="none" xmlns="http://www.w3.org/2000/svg">
<g clip-path="url(#clip0_15_6762)">
<path d="M12 24C18.6274 24 24 18.6274 24 12C24 5.37258 18.6274 0 12 0C5.37258 0 0 5.37258 0 12C0 18.6274 5.37258 24 12 24Z" fill="#F0F0F0"/>
<path d="M0 12C0 5.37262 5.37262 0 12 0C18.6274 0 24 5.37262 24 12" fill="#D80027"/>
<path d="M7.30396 6.26101C7.30396 4.51267 8.53269 3.05214 10.1735 2.69378C9.92132 2.63875 9.65971 2.60889 9.39088 2.60889C7.3738 2.60889 5.73871 4.24398 5.73871 6.26106C5.73871 8.27814 7.3738 9.91323 9.39088 9.91323C9.65961 9.91323 9.92127 9.88337 10.1735 9.82829C8.53269 9.46993 7.30396 8.0094 7.30396 6.26101Z" fill="#F0F0F0"/>
<path d="M11.9996 2.87012L12.2587 3.66723H13.0968L12.4187 4.15993L12.6777 4.95704L11.9996 4.46443L11.3215 4.95704L11.5806 4.15993L10.9025 3.66723H11.7406L11.9996 2.87012Z" fill="#F0F0F0"/>
<path d="M9.96651 4.43481L10.2255 5.23197H11.0637L10.3856 5.72463L10.6446 6.52174L9.96651 6.02913L9.28832 6.52174L9.5474 5.72463L8.86926 5.23197H9.70743L9.96651 4.43481Z" fill="#F0F0F0"/>
<path d="M14.033 4.43481L14.2921 5.23197H15.1302L14.4521 5.72463L14.7112 6.52174L14.033 6.02913L13.3549 6.52174L13.6139 5.72463L12.9359 5.23197H13.774L14.033 4.43481Z" fill="#F0F0F0"/>
<path d="M13.2505 6.78345L13.5096 7.5806H14.3477L13.6696 8.07326L13.9286 8.87037L13.2505 8.37776L12.5724 8.87037L12.8315 8.07326L12.1534 7.5806H12.9915L13.2505 6.78345Z" fill="#F0F0F0"/>
<path d="M10.7489 6.78345L11.0079 7.5806H11.8461L11.1679 8.07326L11.427 8.87037L10.7489 8.37776L10.0707 8.87037L10.3298 8.07326L9.65167 7.5806H10.4898L10.7489 6.78345Z" fill="#F0F0F0"/>
</g>
<defs>
<clipPath id="clip0_15_6762">
<rect width="24" height="24" fill="white"/>
</clipPath>
</defs>
</svg>
