<svg width="24" height="24" viewBox="0 0 24 24" fill="none" xmlns="http://www.w3.org/2000/svg">
<g clip-path="url(#clip0_15_6862)">
<path d="M12 24C18.6274 24 24 18.6274 24 12C24 5.37258 18.6274 0 12 0C5.37258 0 0 5.37258 0 12C0 18.6274 5.37258 24 12 24Z" fill="#F0F0F0"/>
<path d="M23.2539 7.82637H10.435V4.69592H4.17413V7.82637H0.746635C0.264291 9.12631 0.000244141 10.5324 0.000244141 12.0003C0.000244141 13.4681 0.264291 14.8742 0.746635 16.1742L12.0002 17.2176L23.2539 16.1742C23.7362 14.8742 24.0002 13.4681 24.0002 12.0003C24.0002 10.5324 23.7362 9.12631 23.2539 7.82637Z" fill="#0052B4"/>
<path d="M12.0002 23.9997C17.1598 23.9997 21.5583 20.7432 23.2538 16.1736H0.746582C2.4421 20.7432 6.84061 23.9997 12.0002 23.9997Z" fill="#D80027"/>
<path d="M4.17401 7.82641V8.86984C4.17401 11.2661 7.30446 12.0003 7.30446 12.0003C7.30446 12.0003 10.4349 11.2661 10.4349 8.86984V7.82641L9.39143 8.86989L7.30446 7.30469L5.2175 8.86989L4.17401 7.82641Z" fill="#F0F0F0"/>
</g>
<defs>
<clipPath id="clip0_15_6862">
<rect width="24" height="24" fill="white"/>
</clipPath>
</defs>
</svg>
