<svg width="24" height="24" viewBox="0 0 24 24" fill="none" xmlns="http://www.w3.org/2000/svg">
<g clip-path="url(#clip0_15_6867)">
<path d="M12 24C18.6274 24 24 18.6274 24 12C24 5.37258 18.6274 0 12 0C5.37258 0 0 5.37258 0 12C0 18.6274 5.37258 24 12 24Z" fill="#F0F0F0"/>
<path d="M12.0001 23.9996C18.6275 23.9996 24.0001 18.6269 24.0001 11.9996C24.0001 10.5317 23.7361 9.12562 23.2537 7.82568H0.746513C0.264169 9.12562 0.00012207 10.5317 0.00012207 11.9996C0.00012207 18.6269 5.37275 23.9996 12.0001 23.9996Z" fill="#0052B4"/>
<path d="M12.0001 23.9997C17.1596 23.9997 21.5582 20.7432 23.2537 16.1736H0.74646C2.44198 20.7432 6.84049 23.9997 12.0001 23.9997Z" fill="#D80027"/>
<path d="M3.10266 6.78198V12.7682C3.10266 16.1734 7.55115 17.2168 7.55115 17.2168C7.55115 17.2168 11.9996 16.1734 11.9996 12.7682V6.78198H3.10266Z" fill="#F0F0F0"/>
<path d="M4.14648 6.78198V12.7682C4.14648 13.168 4.23527 13.5455 4.41114 13.8994C6.15648 13.8994 8.76517 13.8994 10.6918 13.8994C10.8677 13.5455 10.9564 13.168 10.9564 12.7682V6.78198H4.14648Z" fill="#D80027"/>
<path d="M9.63862 10.9561H8.07346V9.91261H9.11694V8.86912H8.07346V7.82568H7.02997V8.86912H5.98653V9.91261H7.02997V10.9561H5.46472V11.9996H7.02997V13.0431H8.07346V11.9996H9.63862V10.9561Z" fill="#F0F0F0"/>
<path d="M5.83428 15.3572C6.5067 15.7798 7.19754 16.0251 7.55121 16.1342C7.90489 16.0251 8.59573 15.7798 9.26815 15.3572C9.94625 14.931 10.4216 14.4436 10.6915 13.9005C10.3938 13.6899 10.0306 13.5657 9.63818 13.5657C9.49531 13.5657 9.35651 13.5826 9.22306 13.6137C8.94026 12.9711 8.29831 12.5222 7.55126 12.5222C6.80421 12.5222 6.16221 12.9711 5.87946 13.6137C5.74601 13.5826 5.60717 13.5657 5.46434 13.5657C5.07195 13.5657 4.70871 13.6899 4.41101 13.9005C4.68078 14.4435 5.15614 14.9309 5.83428 15.3572Z" fill="#0052B4"/>
</g>
<defs>
<clipPath id="clip0_15_6867">
<rect width="24" height="24" fill="white"/>
</clipPath>
</defs>
</svg>
