<svg width="24" height="24" viewBox="0 0 24 24" fill="none" xmlns="http://www.w3.org/2000/svg">
<g clip-path="url(#clip0_15_6763)">
<path d="M23.2534 16.1742C23.7358 14.8742 23.9998 13.4682 23.9998 12.0003C23.9998 10.5325 23.7358 9.12643 23.2534 7.82644L11.9998 6.78296L0.746208 7.82644C0.263817 9.12643 -0.000183105 10.5325 -0.000183105 12.0003C-0.000183105 13.4682 0.263817 14.8742 0.746208 16.1742L11.9998 17.2177L23.2534 16.1742Z" fill="#F0F0F0"/>
<path d="M11.9998 24.0007C17.1593 24.0007 21.5579 20.7442 23.2534 16.1746H0.746155C2.44172 20.7442 6.84019 24.0007 11.9998 24.0007Z" fill="#338AF3"/>
<path d="M11.9999 0C6.84031 0 2.44184 3.2565 0.746277 7.82611H23.2535C21.558 3.2565 17.1595 0 11.9999 0Z" fill="#6DA544"/>
</g>
<defs>
<clipPath id="clip0_15_6763">
<rect width="24" height="24" fill="white"/>
</clipPath>
</defs>
</svg>
