<svg width="24" height="24" viewBox="0 0 24 24" fill="none" xmlns="http://www.w3.org/2000/svg">
<g clip-path="url(#clip0_15_6767)">
<path d="M24 11.9998C24 18.6271 18.6274 23.9998 12 23.9998C5.37262 23.9998 0 18.6271 0 11.9998C0.521719 11.9998 12 10.4346 12 10.4346L24 11.9998Z" fill="#338AF3"/>
<path d="M0 12C0 5.37262 5.37262 0 12 0C18.6274 0 24 5.37262 24 12" fill="#F0F0F0"/>
<path d="M16.7632 8.28076L12 13.0441L7.23671 8.28076C6.62072 9.19515 6.26086 10.2957 6.26086 11.4788V13.044C6.26086 15.5573 7.88485 17.6982 10.1385 18.4731C9.83766 19.0626 9.88838 19.7983 10.3291 20.3484C10.9145 19.8792 11.5206 19.3935 12.0347 18.9816C12.5488 19.3936 13.1549 19.8792 13.7402 20.3484C14.1862 19.7919 14.2332 19.0451 13.9206 18.4522C16.1434 17.6605 17.739 15.5352 17.739 13.044V11.4789C17.7391 10.2957 17.3792 9.1952 16.7632 8.28076Z" fill="#6DA544"/>
<path d="M11.9996 17.2174C9.69812 17.2174 7.82574 15.345 7.82574 13.0435V11.4783C7.82574 9.17682 9.69817 7.30444 11.9996 7.30444C14.3011 7.30444 16.1735 9.17687 16.1735 11.4783V13.0435C16.1735 15.345 14.3012 17.2174 11.9996 17.2174Z" fill="#FFDA44"/>
<path d="M14.6088 13.0433V11.4781C14.6088 10.0396 13.4386 8.86938 12.0002 8.86938C10.5618 8.86938 9.39148 10.0397 9.39148 11.4781V13.0433L12.0002 13.565L14.6088 13.0433Z" fill="#338AF3"/>
<path d="M9.39148 13.0432C9.39148 14.4817 10.5618 15.6519 12.0002 15.6519C13.4386 15.6519 14.6088 14.4816 14.6088 13.0432H9.39148Z" fill="#6DA544"/>
<path d="M15.1304 7.30403C15.1304 6.43961 14.4296 5.73882 13.5652 5.73882C13.1642 5.73882 12.7987 5.88976 12.5217 6.13768V5.21706H13.0435V4.17357H12.5217V3.65186H11.4783V4.17357H10.9565V5.21706H11.4783V6.13768C11.2013 5.88976 10.8357 5.73882 10.4348 5.73882C9.57035 5.73882 8.86957 6.43961 8.86957 7.30403C8.86957 7.76748 9.07118 8.18373 9.39129 8.47037V9.391H14.6087V8.47037C14.9288 8.18373 15.1304 7.76748 15.1304 7.30403Z" fill="#FFDA44"/>
</g>
<defs>
<clipPath id="clip0_15_6767">
<rect width="24" height="24" fill="white"/>
</clipPath>
</defs>
</svg>
