<svg width="24" height="24" viewBox="0 0 24 24" fill="none" xmlns="http://www.w3.org/2000/svg">
<g clip-path="url(#clip0_15_6945)">
<path d="M17.2174 1.19072C15.6397 0.427875 13.8698 0 12 0C10.1301 0 8.36024 0.427875 6.78262 1.19072L5.73914 12L6.78262 22.8093C8.36024 23.5721 10.1301 24 12 24C13.8698 24 15.6397 23.5721 17.2174 22.8093L18.2608 12L17.2174 1.19072Z" fill="#FFDA44"/>
<path d="M12.0001 7.82593L13.0361 11.0144H16.389L13.6766 12.9851L14.7126 16.1737L12.0001 14.2031L9.28771 16.1737L10.3239 12.9851L7.61151 11.0144H10.9642L12.0001 7.82593Z" fill="#496E2D"/>
<path d="M6.78293 1.19067C2.76902 3.13163 0.000305176 7.24205 0.000305176 11.9995C0.000305176 16.757 2.76902 20.8674 6.78293 22.8084V1.19067Z" fill="#496E2D"/>
<path d="M17.2178 1.19141V22.8091C21.2317 20.8682 24.0004 16.7578 24.0004 12.0003C24.0004 7.24278 21.2317 3.13236 17.2178 1.19141Z" fill="#D80027"/>
</g>
<defs>
<clipPath id="clip0_15_6945">
<rect width="24" height="24" fill="white"/>
</clipPath>
</defs>
</svg>
