<svg width="24" height="24" viewBox="0 0 24 24" fill="none" xmlns="http://www.w3.org/2000/svg">
<g clip-path="url(#clip0_15_6930)">
<path d="M12 24C18.6274 24 24 18.6274 24 12C24 5.37258 18.6274 0 12 0C5.37258 0 0 5.37258 0 12C0 18.6274 5.37258 24 12 24Z" fill="#F0F0F0"/>
<path d="M23.2531 7.8269H0.745916C0.26362 9.12694 -0.000427246 10.533 -0.000427246 12.0008C-0.000427246 13.4686 0.26362 14.8747 0.745916 16.1747H23.2532C23.7356 14.8747 23.9996 13.4686 23.9996 12.0008C23.9996 10.533 23.7356 9.12694 23.2531 7.8269Z" fill="#A2001D"/>
<path d="M12.0347 24.0011C16.1447 24.0011 19.7717 21.9343 21.9345 18.7837H2.13489C4.29761 21.9343 7.92451 24.0011 12.0347 24.0011Z" fill="#6DA544"/>
<path d="M12.0343 0.000244141C16.1444 0.000244141 19.7714 2.06706 21.9341 5.21762H2.13452C4.29724 2.06706 7.92415 0.000244141 12.0343 0.000244141Z" fill="#6DA544"/>
<path d="M11.9995 7.8269L13.0355 11.0153H16.3882L13.6758 12.9862L14.7119 16.1747L11.9995 14.2041L9.28708 16.1747L10.3232 12.9862L7.61078 11.0153H10.9635L11.9995 7.8269Z" fill="#FFDA44"/>
</g>
<defs>
<clipPath id="clip0_15_6930">
<rect width="24" height="24" fill="white"/>
</clipPath>
</defs>
</svg>
