<svg width="24" height="24" viewBox="0 0 24 24" fill="none" xmlns="http://www.w3.org/2000/svg">
<g clip-path="url(#clip0_15_6868)">
<path d="M12 24C18.6274 24 24 18.6274 24 12C24 5.37258 18.6274 0 12 0C5.37258 0 0 5.37258 0 12C0 18.6274 5.37258 24 12 24Z" fill="#F0F0F0"/>
<path d="M23.0638 7.34694C21.2465 3.03018 16.9775 -0.000854492 11.9999 -0.000854492C8.68612 -0.000854492 5.68645 1.34254 3.51501 3.51425L6.52017 7.34694H23.0638Z" fill="black"/>
<path d="M6.55425 16.6075L3.51501 20.4837C5.68645 22.6554 8.68612 23.9988 11.9999 23.9988C16.9943 23.9988 21.2754 20.9475 23.0823 16.6075H6.55425Z" fill="#496E2D"/>
<path d="M2.60889 8.82605V15.1304H23.5868C23.856 14.1323 24.0002 13.0831 24.0002 12C24.0002 10.9011 23.8522 9.83705 23.5754 8.82605H2.60889Z" fill="#A2001D"/>
<path d="M3.51459 3.51465C-1.17169 8.20093 -1.17169 15.7989 3.51459 20.4853C5.45114 18.5487 7.31362 16.6862 11.9999 12L3.51459 3.51465Z" fill="#0052B4"/>
<path d="M3.90847 9.01648L5.37308 11.0603L7.7697 10.2988L6.27856 12.3235L7.74317 14.3674L5.35686 13.5748L3.86567 15.5995L3.88207 13.085L1.49567 12.2923L3.89211 11.5309L3.90847 9.01648Z" fill="#FFDA44"/>
</g>
<defs>
<clipPath id="clip0_15_6868">
<rect width="24" height="24" fill="white"/>
</clipPath>
</defs>
</svg>
