<svg width="24" height="24" viewBox="0 0 24 24" fill="none" xmlns="http://www.w3.org/2000/svg">
<g clip-path="url(#clip0_15_6872)">
<path d="M10.9564 13.0428C10.9564 13.0428 3.52156 3.51232 3.51453 3.514C5.68606 1.34242 8.6861 -0.000732422 11.9998 -0.000732422C18.6272 -0.000732422 23.9998 5.37189 23.9998 11.9993L10.9564 13.0428Z" fill="#D80027"/>
<path d="M10.9564 11.9995C10.9564 11.9995 3.52156 20.4865 3.51453 20.4848C5.68606 22.6563 8.6861 23.9995 11.9998 23.9995C18.6272 23.9995 23.9998 18.6269 23.9998 11.9995H10.9564Z" fill="#0052B4"/>
<path d="M3.51471 3.51465C-1.17157 8.20093 -1.17157 15.7989 3.51471 20.4853C5.45126 18.5487 7.31375 16.6862 12 12L3.51471 3.51465Z" fill="#F0F0F0"/>
<path d="M1.31576 11.9998C1.3092 12.0859 1.30475 12.1727 1.30475 12.2606C1.30475 14.1335 2.82312 15.6519 4.69606 15.6519C6.569 15.6519 8.08737 14.1335 8.08737 12.2606C8.08737 12.1727 8.08292 12.0859 8.07636 11.9998H1.31576Z" fill="#FFDA44"/>
<path d="M4.69577 10.4339C5.27207 10.4339 5.73925 9.96671 5.73925 9.39041C5.73925 8.81411 5.27207 8.34692 4.69577 8.34692C4.11947 8.34692 3.65228 8.81411 3.65228 9.39041C3.65228 9.96671 4.11947 10.4339 4.69577 10.4339Z" fill="#FFDA44"/>
<path d="M2.34753 9.13013V12.5214C2.34753 14.3186 4.69536 14.8693 4.69536 14.8693C4.69536 14.8693 7.04319 14.3186 7.04319 12.5214V9.13013H2.34753Z" fill="#D80027"/>
<path d="M4.69687 13.7777C4.26131 13.6209 3.39136 13.2203 3.39136 12.5219V10.1741H6.00009V12.5219C6.00009 13.2226 5.13023 13.6222 4.69687 13.7777Z" fill="#338AF3"/>
<path d="M5.21774 11.4777V10.9559L4.69602 10.6951L4.17425 10.9559V11.4777L3.91339 11.7386V12.782H5.47864V11.7386L5.21774 11.4777Z" fill="#F3F3F3"/>
</g>
<defs>
<clipPath id="clip0_15_6872">
<rect width="24" height="24" fill="white"/>
</clipPath>
</defs>
</svg>
