<svg width="24" height="24" viewBox="0 0 24 24" fill="none" xmlns="http://www.w3.org/2000/svg">
<g clip-path="url(#clip0_15_6895)">
<path d="M24 12C24 18.6274 18.6274 24 12 24C5.37262 24 0 18.6274 0 12C0 12.0029 12 0.0013125 12 0C18.6274 0 24 5.37262 24 12Z" fill="#0052B4"/>
<path d="M11.9684 11.9996H12.0006C12.0006 11.9888 12.0006 11.9783 12.0006 11.9674C11.9898 11.9782 11.9791 11.9889 11.9684 11.9996Z" fill="#F0F0F0"/>
<path d="M12.0005 6.26123C12.0005 4.14974 12.0005 2.76623 12.0005 0.000366211H11.9985C5.372 0.00149121 0.000549316 5.3736 0.000549316 12.0004H6.26141V8.47485L9.78692 12.0004H11.9685C11.9792 11.9897 11.9899 11.979 12.0006 11.9683C12.0006 11.1598 12.0006 10.4384 12.0006 9.78683L8.47499 6.26123H12.0005Z" fill="#F0F0F0"/>
<path d="M6.07112 1.56543C4.19429 2.63413 2.63396 4.19441 1.56531 6.07124V12.0002H4.69576V4.69598V4.69588H12.0001C12.0001 3.70856 12.0001 2.76796 12.0001 1.56543H6.07112Z" fill="#D80027"/>
<path d="M12.0004 10.5242L7.73692 6.26074H6.26129V6.26084L12.0003 11.9998H12.0004C12.0004 11.9998 12.0004 10.9823 12.0004 10.5242Z" fill="#D80027"/>
<path d="M13.565 6.26038V11.9995C13.565 14.7951 17.2172 15.6517 17.2172 15.6517C17.2172 15.6517 20.8693 14.7951 20.8693 11.9995V6.26038H13.565Z" fill="#FFDA44"/>
<path d="M16.6958 8.34768C16.6958 8.92401 16.2286 10.4347 15.6523 10.4347C15.076 10.4347 14.6088 8.92401 14.6088 8.34768C14.6088 7.77136 15.6523 7.3042 15.6523 7.3042C15.6523 7.3042 16.6958 7.77136 16.6958 8.34768Z" fill="#FF9811"/>
<path d="M19.4642 9.48417C19.6326 9.07331 19.7636 8.47275 19.7636 8.17378C19.7636 7.6935 19.1374 7.3042 19.1374 7.3042C19.1374 7.3042 18.5113 7.69354 18.5113 8.17378C18.5113 8.47275 18.6423 9.07331 18.8107 9.48417L18.4492 10.3003C18.6617 10.3866 18.8939 10.4346 19.1374 10.4346C19.3809 10.4346 19.6131 10.3866 19.8256 10.3003L19.4642 9.48417Z" fill="#A2001D"/>
<path d="M16.4351 12C16.4351 12 15.9134 13.0435 15.9134 14.087C15.9134 14.087 17.4786 14.087 18.5221 14.087C18.522 13.0435 18.0003 12 18.0003 12L17.2177 11.4783L16.4351 12Z" fill="#6DA544"/>
<path d="M18.0006 12.0005V11.7397C18.0006 11.3075 17.6502 10.957 17.2179 10.957C16.7857 10.957 16.4353 11.3074 16.4353 11.7397V12.0005H18.0006Z" fill="#D80027"/>
</g>
<defs>
<clipPath id="clip0_15_6895">
<rect width="24" height="24" fill="white"/>
</clipPath>
</defs>
</svg>
