<svg width="24" height="24" viewBox="0 0 24 24" fill="none" xmlns="http://www.w3.org/2000/svg">
<g clip-path="url(#clip0_15_6756)">
<path d="M12 24C18.6274 24 24 18.6274 24 12C24 5.37258 18.6274 0 12 0C5.37258 0 0 5.37258 0 12C0 18.6274 5.37258 24 12 24Z" fill="#F0F0F0"/>
<path d="M23.254 7.82593H0.746757C0.264366 9.12591 0.000366211 10.532 0.000366211 11.9998C0.000366211 13.4677 0.264366 14.8737 0.746757 16.1737H23.254C23.7364 14.8737 24.0004 13.4677 24.0004 11.9998C24.0004 10.532 23.7364 9.12591 23.254 7.82593Z" fill="#0052B4"/>
<path d="M12.0013 -0.000488281C8.36426 -0.000488281 5.10536 1.61782 2.90472 4.1734H21.0979C18.8973 1.61782 15.6384 -0.000488281 12.0013 -0.000488281Z" fill="#D80027"/>
<path d="M21.097 19.8262H2.90375C5.10439 22.3817 8.36328 24 12.0004 24C15.6374 24 18.8963 22.3817 21.097 19.8262Z" fill="#D80027"/>
</g>
<defs>
<clipPath id="clip0_15_6756">
<rect width="24" height="24" fill="white"/>
</clipPath>
</defs>
</svg>
