<svg width="24" height="24" viewBox="0 0 24 24" fill="none" xmlns="http://www.w3.org/2000/svg">
<g clip-path="url(#clip0_15_6863)">
<path d="M12 24C18.6274 24 24 18.6274 24 12C24 5.37258 18.6274 0 12 0C5.37258 0 0 5.37258 0 12C0 18.6274 5.37258 24 12 24Z" fill="#FFDA44"/>
<path d="M19.3043 5.73914C19.1967 6.25641 19.1478 6.80733 19.1478 7.35652C19.1478 10.5222 21.035 13.2621 23.7394 14.4955C23.9097 13.6904 24 12.8558 24 12C24 5.37262 18.6274 0 12 0C5.37262 0 0 5.37262 0 12C0 18.6274 5.37262 24 12 24C16.1101 24 19.7371 21.9332 21.8998 18.7826H6.78263V17.2174H22.8093C22.9733 16.8782 23.1215 16.53 23.2537 16.1739H6.78263L19.3043 5.73914Z" fill="#0052B4"/>
<path d="M8.81559 6.26099L9.07462 7.05814H9.91275L9.2347 7.55085L9.49373 8.34796L8.81559 7.85535L8.13754 8.34796L8.39653 7.55085L7.71838 7.05814H8.55656L8.81559 6.26099Z" fill="#F0F0F0"/>
<path d="M5.41128 12L5.73509 12.9965H6.78275L5.93511 13.6122L6.25892 14.6087L5.41128 13.9928L4.56369 14.6087L4.88745 13.6122L4.03986 12.9965H5.08751L5.41128 12Z" fill="#F0F0F0"/>
<path d="M5.41128 3.65234L5.73509 4.64886H6.78275L5.93511 5.26456L6.25892 6.26103L5.41128 5.64519L4.56369 6.26103L4.88745 5.26456L4.03986 4.64886H5.08751L5.41128 3.65234Z" fill="#F0F0F0"/>
<path d="M2.80239 8.34741L3.1262 9.34393H4.17381L3.32622 9.95963L3.65003 10.9561L2.80239 10.3403L1.9548 10.9561L2.27856 9.95963L1.43097 9.34393H2.47858L2.80239 8.34741Z" fill="#F0F0F0"/>
</g>
<defs>
<clipPath id="clip0_15_6863">
<rect width="24" height="24" fill="white"/>
</clipPath>
</defs>
</svg>
