<svg width="24" height="24" viewBox="0 0 24 24" fill="none" xmlns="http://www.w3.org/2000/svg">
<g clip-path="url(#clip0_15_6898)">
<path d="M11.9997 -0.000610352C11.1037 -0.000610352 10.2309 0.0984365 9.39104 0.284624L8.86932 11.9993L9.39104 23.7141C10.231 23.9003 11.1038 23.9994 11.9997 23.9994C18.6271 23.9994 23.9997 18.6268 23.9997 11.9993C23.9996 5.37197 18.6271 -0.000610352 11.9997 -0.000610352Z" fill="#496E2D"/>
<path d="M3.1301 3.91711C1.18554 6.04974 -0.000305176 8.88615 -0.000305176 11.9997C-0.000305176 15.1132 1.18559 17.9496 3.13015 20.0823L3.65187 11.9997L3.1301 3.91711Z" fill="#496E2D"/>
<path d="M17.5515 9.05156C18.1419 7.40596 17.4786 5.61623 16.0551 4.72485C16.3112 4.75818 16.5675 4.81846 16.8204 4.90917C18.719 5.59035 19.7059 7.68154 19.0247 9.58007C18.3435 11.4787 16.2523 12.4656 14.3538 11.7844C14.1008 11.6936 13.8646 11.5771 13.6458 11.4401C15.3113 11.657 16.9611 10.6971 17.5515 9.05156Z" fill="#F0F0F0"/>
<path d="M14.277 4.27429L13.7639 4.9372L12.9751 4.65412L13.4469 5.34684L12.934 6.00965L13.7386 5.77499L14.2105 6.46762L14.2358 5.62987L15.0405 5.39517L14.2516 5.11218L14.277 4.27429Z" fill="#F0F0F0"/>
<path d="M15.6624 6.4353L15.1493 7.09816L14.3604 6.81508L14.8323 7.5078L14.3193 8.17062L15.1239 7.93587L15.5959 8.62863L15.6213 7.79083L16.4259 7.55608L15.637 7.27305L15.6624 6.4353Z" fill="#F0F0F0"/>
<path d="M11.8341 5.06042L11.3211 5.72324L10.5322 5.44025L11.0041 6.13293L10.4911 6.79578L11.2957 6.56108L11.7676 7.25375L11.793 6.416L12.5976 6.1813L11.8087 5.89822L11.8341 5.06042Z" fill="#F0F0F0"/>
<path d="M11.7781 7.53455L11.2651 8.19741L10.4762 7.91437L10.9481 8.60709L10.435 9.26991L11.2397 9.03525L11.7116 9.72787L11.7369 8.89012L12.5416 8.65542L11.7527 8.37234L11.7781 7.53455Z" fill="#F0F0F0"/>
<path d="M14.1321 8.38L13.6191 9.04282L12.8302 8.75979L13.3022 9.4525L12.7891 10.1153L13.5938 9.88061L14.0657 10.5733L14.091 9.73549L14.8957 9.50083L14.1067 9.2178L14.1321 8.38Z" fill="#F0F0F0"/>
<path d="M3.13019 3.91743V20.0826C4.76519 21.8758 6.9369 23.1707 9.39104 23.7147V0.285278C6.93686 0.82931 4.76523 2.12423 3.13019 3.91743Z" fill="#D80027"/>
<path d="M5.51949 6.31761L4.47131 5.53676V4.43253L5.51949 3.65173H7.00191L8.05008 4.43253V5.53676L7.00191 6.31761H5.51949Z" fill="#F0F0F0"/>
<path d="M6.26072 3.65173H5.51948L4.47131 4.43253V4.97239H6.26072V3.65173Z" fill="#FF9811"/>
<path d="M6.26074 6.31668H7.00193L8.0501 5.53583V4.97253H6.26074V6.31668Z" fill="#FF9811"/>
<path d="M5.51949 20.3485L4.47131 19.5676V18.4635L5.51949 17.6826H7.00191L8.05008 18.4635V19.5676L7.00191 20.3485H5.51949Z" fill="#F0F0F0"/>
<path d="M6.26072 17.6826H5.51948L4.47131 18.4635V19.0033H6.26072V17.6826Z" fill="#FF9811"/>
<path d="M6.26074 20.3493H7.00193L8.0501 19.5685V19.0052H6.26074V20.3493Z" fill="#FF9811"/>
<path d="M5.51936 13.3324L4.47119 12.5515V11.4473L5.51936 10.6665H7.00178L8.04995 11.4473V12.5515L7.00178 13.3324H5.51936Z" fill="#496E2D"/>
<path d="M8.08664 15.0514H7.63007V14.5949H6.82781L6.26053 14.0276L5.69329 14.5949H4.89103V15.0514H4.43451V15.9644H4.89103V16.4209H5.69324L6.26057 16.9883L6.82781 16.4209H7.63007V15.9644H8.08664V15.0514Z" fill="#496E2D"/>
<path d="M8.08688 8.03605H7.63032V7.57949H6.82805L6.26077 7.01221L5.69354 7.57949H4.89127V8.03605H4.43475V8.94908H4.89127V9.4056H5.69349L6.26082 9.97297L6.82805 9.4056H7.63032V8.94908H8.08688V8.03605Z" fill="#496E2D"/>
<path d="M6.78225 11.4791H5.73877V12.5226H6.78225V11.4791Z" fill="#D80027"/>
<path d="M6.26061 9.01487C6.54874 9.01487 6.78232 8.78129 6.78232 8.49315C6.78232 8.20502 6.54874 7.97144 6.26061 7.97144C5.97247 7.97144 5.73889 8.20502 5.73889 8.49315C5.73889 8.78129 5.97247 9.01487 6.26061 9.01487Z" fill="#D80027"/>
<path d="M6.26049 16.0309C6.54862 16.0309 6.7822 15.7973 6.7822 15.5091C6.7822 15.221 6.54862 14.9874 6.26049 14.9874C5.97235 14.9874 5.73877 15.221 5.73877 15.5091C5.73877 15.7973 5.97235 16.0309 6.26049 16.0309Z" fill="#D80027"/>
</g>
<defs>
<clipPath id="clip0_15_6898">
<rect width="24" height="24" fill="white"/>
</clipPath>
</defs>
</svg>
