<svg width="24" height="24" viewBox="0 0 24 24" fill="none" xmlns="http://www.w3.org/2000/svg">
<g clip-path="url(#clip0_15_6906)">
<path d="M6.49769 1.33203C5.42341 1.88652 4.41499 2.61331 3.51442 3.51387C2.61381 4.41448 1.88702 5.42291 1.33258 6.49719L9.04853 14.951L17.5024 22.667C18.5767 22.1125 19.5851 21.3857 20.4857 20.4852C21.3863 19.5846 22.1131 18.5762 22.6675 17.5019L14.9516 9.04798L6.49769 1.33203Z" fill="#F0F0F0"/>
<path d="M20.4855 20.4859C20.9889 19.9825 21.4378 19.4454 21.8331 18.882L5.11816 2.16699C4.55477 2.5622 4.01763 3.01116 3.51424 3.51455C3.01084 4.01795 2.56188 4.55509 2.16663 5.11852L18.8815 21.8334C19.4449 21.4382 19.9821 20.9893 20.4855 20.4859Z" fill="black"/>
<path d="M3.51413 20.4865C7.30008 24.2725 12.9859 24.9992 17.5021 22.6683L1.33233 6.49854C-0.998531 11.0148 -0.27164 16.7006 3.51413 20.4865Z" fill="#D80027"/>
<path d="M20.4851 3.51461C16.6991 -0.271293 11.0134 -0.998043 6.49713 1.33272L22.6669 17.5026C24.9978 12.9864 24.2711 7.30052 20.4851 3.51461Z" fill="#D80027"/>
</g>
<defs>
<clipPath id="clip0_15_6906">
<rect width="24" height="24" fill="white"/>
</clipPath>
</defs>
</svg>
