<svg width="24" height="24" viewBox="0 0 24 24" fill="none" xmlns="http://www.w3.org/2000/svg">
<g clip-path="url(#clip0_15_6757)">
<path d="M12 24C18.6274 24 24 18.6274 24 12C24 5.37258 18.6274 0 12 0C5.37258 0 0 5.37258 0 12C0 18.6274 5.37258 24 12 24Z" fill="#FFDA44"/>
<path d="M3.51464 20.4856C4.01803 20.989 4.55513 21.4379 5.11852 21.8331L21.8327 5.11887C21.4376 4.55548 20.9886 4.01839 20.4852 3.515C19.9818 3.01161 19.4447 2.56273 18.8813 2.16748L2.16718 18.8817C2.56233 19.445 3.0113 19.9821 3.51464 20.4856Z" fill="black"/>
<path d="M3.51453 3.51392C-0.27119 7.29974 -0.997987 12.9853 1.33278 17.5013L17.5019 1.33222C12.9859 -0.998546 7.3003 -0.271703 3.51453 3.51392Z" fill="#6DA544"/>
<path d="M20.485 20.4852C24.2707 16.6995 24.9974 11.0139 22.6668 6.4978L6.49762 22.667C11.0136 24.9977 16.6992 24.2709 20.485 20.4852Z" fill="#338AF3"/>
</g>
<defs>
<clipPath id="clip0_15_6757">
<rect width="24" height="24" fill="white"/>
</clipPath>
</defs>
</svg>
