<svg width="24" height="24" viewBox="0 0 24 24" fill="none" xmlns="http://www.w3.org/2000/svg">
<g clip-path="url(#clip0_15_6749)">
<path d="M12 24C18.6274 24 24 18.6274 24 12C24 5.37258 18.6274 0 12 0C5.37258 0 0 5.37258 0 12C0 18.6274 5.37258 24 12 24Z" fill="#F0F0F0"/>
<path d="M11.9997 8.86873H23.5863C23.2854 7.75245 22.8281 6.70053 22.2384 5.73828H11.9997V8.86873Z" fill="#338AF3"/>
<path d="M4.53003 21.3898H19.4697C20.5648 20.5176 21.504 19.4581 22.2386 18.2594H1.76117C2.49575 19.4581 3.43493 20.5176 4.53003 21.3898Z" fill="#338AF3"/>
<path d="M12.0001 -0.000854492C12.0001 1.04263 12.0001 2.60783 12.0001 2.60783H19.47C17.4201 0.975271 14.8243 -0.000854492 12.0001 -0.000854492Z" fill="#338AF3"/>
<path d="M11.9997 8.86873H23.5863C23.2854 7.75245 22.8281 6.70053 22.2384 5.73828H11.9997V8.86873Z" fill="#338AF3"/>
<path d="M0.00012207 12.0001C0.00012207 13.0833 0.144497 14.1324 0.413513 15.1306H23.5868C23.8557 14.1324 24.0001 13.0833 24.0001 12.0001H0.00012207Z" fill="#338AF3"/>
<path d="M10.4352 7.02317L8.96965 7.71256L9.75007 9.13194L8.15867 8.82753L7.95701 10.4351L6.8486 9.25273L5.7401 10.4351L5.53849 8.82753L3.94709 9.13184L4.72746 7.71251L3.26196 7.02317L4.72751 6.33387L3.94709 4.9145L5.53845 5.21891L5.74015 3.61133L6.8486 4.7937L7.95706 3.61133L8.15867 5.21891L9.75012 4.9145L8.9697 6.33392L10.4352 7.02317Z" fill="#FFDA44"/>
</g>
<defs>
<clipPath id="clip0_15_6749">
<rect width="24" height="24" fill="white"/>
</clipPath>
</defs>
</svg>
