<svg width="24" height="24" viewBox="0 0 24 24" fill="none" xmlns="http://www.w3.org/2000/svg">
<g clip-path="url(#clip0_15_6748)">
<path d="M0.566869 8.34794C0.199275 9.49956 0.000197274 10.7264 0.000244149 12C0.000197274 13.2736 0.199322 14.5005 0.566916 15.6521L12.0002 16.174L23.4336 15.6522C23.8011 14.5006 24.0003 13.2736 24.0003 12.0001C24.0003 10.7265 23.8012 9.49956 23.4336 8.34789L12.0002 7.82617L0.566869 8.34794Z" fill="#F0F0F0"/>
<path d="M23.4332 8.34789L11.9999 7.82617L0.5665 8.34789C0.457563 8.68933 0.363766 9.03747 0.285156 9.39137H23.7144C23.6359 9.03742 23.5421 8.68923 23.4332 8.34789Z" fill="#D80027"/>
<path d="M0.285095 14.609C0.363611 14.9629 0.457408 15.311 0.566345 15.6524L0.56747 15.6525L11.9996 16.1742L23.433 15.6525C23.5419 15.3111 23.6357 14.9629 23.7143 14.609H0.285095Z" fill="#D80027"/>
<path d="M12.0004 24.0007C17.3543 24.0007 21.8885 20.4943 23.4338 15.6528H0.567139C2.11237 20.4942 6.64669 24.0007 12.0004 24.0007Z" fill="#6DA544"/>
<path d="M12.0001 -0.000854492C6.64632 -0.000807617 2.1121 3.50558 0.566772 8.34697L23.4334 8.34702C21.8882 3.50554 17.354 -0.000901367 12.0001 -0.000854492Z" fill="#338AF3"/>
<path d="M5.48345 4.95618C5.48345 3.83226 6.27334 2.89335 7.32817 2.66301C7.16607 2.62757 6.99784 2.6084 6.82506 2.6084C5.5284 2.6084 4.47723 3.65952 4.47723 4.95623C4.47723 6.25293 5.52831 7.30406 6.82506 7.30406C6.99784 7.30406 7.16603 7.28484 7.32817 7.24945C6.27339 7.01901 5.48345 6.0801 5.48345 4.95618Z" fill="#F0F0F0"/>
<path d="M8.71537 6.02246L8.87428 6.5116H9.38859L8.97253 6.81395L9.13143 7.30309L8.71537 7.00079L8.29921 7.30309L8.45816 6.81395L8.04205 6.5116H8.55637L8.71537 6.02246Z" fill="#F0F0F0"/>
<path d="M10.3576 6.02246L10.5166 6.5116H11.0309L10.6148 6.81395L10.7737 7.30309L10.3576 7.00079L9.9415 7.30309L10.1004 6.81395L9.68439 6.5116H10.1987L10.3576 6.02246Z" fill="#F0F0F0"/>
<path d="M11.9988 6.02246L12.1577 6.5116H12.672L12.2559 6.81395L12.4148 7.30309L11.9988 7.00079L11.5826 7.30309L11.7416 6.81395L11.3254 6.5116H11.8398L11.9988 6.02246Z" fill="#F0F0F0"/>
<path d="M13.6408 6.02246L13.7998 6.5116H14.3141L13.898 6.81395L14.0569 7.30309L13.6408 7.00079L13.2247 7.30309L13.3837 6.81395L12.9675 6.5116H13.4818L13.6408 6.02246Z" fill="#F0F0F0"/>
<path d="M15.2822 6.02246L15.4412 6.5116H15.9555L15.5394 6.81395L15.6984 7.30309L15.2822 7.00079L14.8661 7.30309L15.0251 6.81395L14.609 6.5116H15.1233L15.2822 6.02246Z" fill="#F0F0F0"/>
<path d="M10.3576 4.31506L10.5166 4.80416H11.0309L10.6148 5.10655L10.7737 5.59564L10.3576 5.29335L9.9415 5.59564L10.1004 5.10655L9.68439 4.80416H10.1987L10.3576 4.31506Z" fill="#F0F0F0"/>
<path d="M11.9988 4.31506L12.1577 4.80416H12.672L12.2559 5.10655L12.4148 5.59564L11.9988 5.29335L11.5826 5.59564L11.7416 5.10655L11.3254 4.80416H11.8398L11.9988 4.31506Z" fill="#F0F0F0"/>
<path d="M13.6408 4.31506L13.7998 4.80416H14.3141L13.898 5.10655L14.0569 5.59564L13.6408 5.29335L13.2247 5.59564L13.3837 5.10655L12.9675 4.80416H13.4818L13.6408 4.31506Z" fill="#F0F0F0"/>
<path d="M15.2822 4.31506L15.4412 4.80416H15.9555L15.5394 5.10655L15.6984 5.59564L15.2822 5.29335L14.8661 5.59564L15.0251 5.10655L14.609 4.80416H15.1233L15.2822 4.31506Z" fill="#F0F0F0"/>
<path d="M11.9988 2.60803L12.1577 3.09722H12.672L12.2559 3.39952L12.4148 3.8887L11.9988 3.58641L11.5826 3.8887L11.7416 3.39952L11.3254 3.09722H11.8398L11.9988 2.60803Z" fill="#F0F0F0"/>
<path d="M13.6408 2.60803L13.7998 3.09722H14.3141L13.898 3.39952L14.0569 3.8887L13.6408 3.58641L13.2247 3.8887L13.3837 3.39952L12.9675 3.09722H13.4818L13.6408 2.60803Z" fill="#F0F0F0"/>
<path d="M15.2822 2.60803L15.4412 3.09722H15.9555L15.5394 3.39952L15.6984 3.8887L15.2822 3.58641L14.8661 3.8887L15.0251 3.39952L14.609 3.09722H15.1233L15.2822 2.60803Z" fill="#F0F0F0"/>
</g>
<defs>
<clipPath id="clip0_15_6748">
<rect width="24" height="24" fill="white"/>
</clipPath>
</defs>
</svg>
