<svg width="24" height="24" viewBox="0 0 24 24" fill="none" xmlns="http://www.w3.org/2000/svg">
<g clip-path="url(#clip0_15_6955)">
<path d="M22.8088 17.2166C23.5717 15.639 23.9995 13.8692 23.9995 11.9993C23.9995 10.1294 23.5717 8.35951 22.8088 6.78189L11.9995 5.7384L1.19023 6.78189C0.42734 8.35951 -0.000488281 10.1294 -0.000488281 11.9993C-0.000488281 13.8692 0.42734 15.639 1.19023 17.2166L11.9995 18.2601L22.8088 17.2166Z" fill="#0052B4"/>
<path d="M11.9997 24.0004C16.7572 24.0004 20.868 21.2317 22.809 17.2178H1.19046C3.13146 21.2317 7.24221 24.0004 11.9997 24.0004Z" fill="#D80027"/>
<path d="M20.7818 14.3561L20.148 14.8514L20.4231 15.607L19.7562 15.1574L19.1224 15.6525L19.344 14.8793L18.6772 14.4295L19.481 14.4015L19.7029 13.6283L19.978 14.3841L20.7818 14.3561Z" fill="#F0F0F0"/>
<path d="M19.1589 11.5444L18.7328 12.2266L19.2498 12.8426L18.4693 12.6483L18.043 13.3303L17.9868 12.5279L17.2064 12.3333L17.9523 12.0319L17.8962 11.2295L18.4132 11.8458L19.1589 11.5444Z" fill="#F0F0F0"/>
<path d="M16.6724 9.45837L16.5053 10.2452L17.2018 10.6474L16.4019 10.7317L16.2347 11.5183L15.9075 10.7835L15.1075 10.8675L15.7053 10.3293L15.3782 9.59455L16.0747 9.99664L16.6724 9.45837Z" fill="#F0F0F0"/>
<path d="M13.6221 8.34802L13.7342 9.14457L14.5262 9.28416L13.8033 9.63695L13.9153 10.4334L13.3566 9.85482L12.6335 10.2074L13.0112 9.49712L12.4524 8.91859L13.2446 9.05823L13.6221 8.34802Z" fill="#F0F0F0"/>
<path d="M10.3765 8.34802L10.7542 9.05822L11.5462 8.91849L10.9876 9.49726L11.3651 10.2075L10.6422 9.85482L10.0833 10.4333L10.1954 9.63694L9.47244 9.28435L10.2646 9.14457L10.3765 8.34802Z" fill="#F0F0F0"/>
<path d="M7.3262 9.45837L7.92405 9.99664L8.62047 9.59455L8.29342 10.3295L8.89113 10.8677L8.0912 10.7835L7.76392 11.5183L7.59691 10.7315L6.79694 10.6475L7.4935 10.2453L7.3262 9.45837Z" fill="#F0F0F0"/>
<path d="M4.83964 11.5444L5.58556 11.8457L6.1024 11.2296L6.04648 12.0322L6.79216 12.3335L6.01174 12.528L5.95554 13.3303L5.52945 12.6483L4.74893 12.8428L5.26596 12.2266L4.83964 11.5444Z" fill="#F0F0F0"/>
<path d="M3.21674 14.3561L4.02074 14.3841L4.2957 13.6284L4.51766 14.4017L5.32142 14.4297L4.65458 14.8796L4.8762 15.6527L4.24245 15.1575L3.57556 15.6072L3.85067 14.8514L3.21674 14.3561Z" fill="#F0F0F0"/>
<path d="M22.809 6.78226C20.868 2.76831 16.7572 -0.000366211 11.9997 -0.000366211C7.24221 -0.000366211 3.13146 2.76831 1.19046 6.78226H22.809Z" fill="#FFDA44"/>
</g>
<defs>
<clipPath id="clip0_15_6955">
<rect width="24" height="24" fill="white"/>
</clipPath>
</defs>
</svg>
