<svg width="24" height="24" viewBox="0 0 24 24" fill="none" xmlns="http://www.w3.org/2000/svg">
<g clip-path="url(#clip0_15_6928)">
<path d="M24 12C24 18.6274 18.6274 24 12 24C5.37262 24 0 18.6274 0 12C0 12.0029 12 0.0013125 12 0C18.6274 0 24 5.37262 24 12Z" fill="#0052B4"/>
<path d="M11.9682 12.0007H12.0003C12.0003 11.9899 12.0003 11.9794 12.0003 11.9685C11.9896 11.9793 11.9789 11.99 11.9682 12.0007Z" fill="#F0F0F0"/>
<path d="M11.9998 6.26184C11.9998 4.15035 11.9998 2.76684 11.9998 0.000976562H11.9978C5.37127 0.00210156 -0.000183105 5.37421 -0.000183105 12.001H6.26067V8.47546L9.78619 12.001H11.9677C11.9784 11.9903 11.9891 11.9796 11.9999 11.9689C11.9999 11.1604 11.9999 10.4391 11.9999 9.78745L8.47425 6.26184H11.9998Z" fill="#F0F0F0"/>
<path d="M6.0706 1.56421C4.19377 2.63291 2.63345 4.19319 1.56479 6.07002V11.999H4.69524V4.69476V4.69466H11.9996C11.9996 3.70733 11.9996 2.76674 11.9996 1.56421H6.0706Z" fill="#D80027"/>
<path d="M17.2179 11.9998L13.9745 15.2432C14.5824 16.4156 15.8062 17.2171 17.2179 17.2171C18.6297 17.2171 19.8535 16.4156 20.4614 15.2432L17.2179 11.9998Z" fill="#FFDA44"/>
<path d="M11.9998 10.5244L7.73624 6.26099H6.26062V6.26108L11.9997 12.0001H11.9998C11.9998 12.0001 11.9998 10.9826 11.9998 10.5244Z" fill="#D80027"/>
<path d="M13.5652 6.26099V12.0001V12.0001C13.5653 14.7957 17.2174 15.6523 17.2174 15.6523C17.2174 15.6523 20.8695 14.7957 20.8696 12.0001V12.0001V6.26099H13.5652Z" fill="#6DA544"/>
<path d="M18 8.86987H16.4348V13.0438H18V8.86987Z" fill="#F0F0F0"/>
<path d="M17.2173 9.65168C17.6495 9.65168 17.9999 9.30129 17.9999 8.86905C17.9999 8.43682 17.6495 8.08643 17.2173 8.08643C16.7851 8.08643 16.4347 8.43682 16.4347 8.86905C16.4347 9.30129 16.7851 9.65168 17.2173 9.65168Z" fill="#A2001D"/>
<path d="M15.6529 7.30469H14.6094V8.34817H15.6529V7.30469Z" fill="#FFDA44"/>
<path d="M15.6522 9.65186H14.6088V10.6953H15.6522V9.65186Z" fill="#FFDA44"/>
<path d="M15.6522 12.0005H14.6088V13.044H15.6522V12.0005Z" fill="#FFDA44"/>
<path d="M19.8262 7.30542H18.7827V8.3489H19.8262V7.30542Z" fill="#FFDA44"/>
<path d="M19.8262 9.65186H18.7827V10.6953H19.8262V9.65186Z" fill="#FFDA44"/>
<path d="M19.8262 12.0005H18.7827V13.044H19.8262V12.0005Z" fill="#FFDA44"/>
</g>
<defs>
<clipPath id="clip0_15_6928">
<rect width="24" height="24" fill="white"/>
</clipPath>
</defs>
</svg>
