<svg width="24" height="24" viewBox="0 0 24 24" fill="none" xmlns="http://www.w3.org/2000/svg">
<g clip-path="url(#clip0_15_6876)">
<path d="M12 24C18.6274 24 24 18.6274 24 12C24 5.37258 18.6274 0 12 0C5.37258 0 0 5.37258 0 12C0 18.6274 5.37258 24 12 24Z" fill="#F0F0F0"/>
<path d="M3.51422 20.4853C-1.17206 15.7989 -1.17206 8.20098 3.51422 3.51465C3.51389 3.51516 10.4343 12 10.4343 12L3.51422 20.4853Z" fill="black"/>
<path d="M10.4349 12.0002L1.59168 6.02429C1.31751 6.50087 1.07573 6.99831 0.867981 7.51318L5.34496 12.0003L0.868122 16.4876C1.07568 17.0021 1.31723 17.4992 1.59122 17.9755L10.4349 12.0002Z" fill="#FFDA44"/>
<path d="M23.8986 10.4347H10.4346L3.51476 3.51477C2.76908 4.26046 2.12122 5.10379 1.59172 6.02399L7.55604 11.9999L1.59125 17.975C2.12075 18.8955 2.76889 19.7391 3.51476 20.485L10.4346 13.5651H23.8986C23.9653 13.0528 24.0002 12.5304 24.0002 11.9999C24.0002 11.4694 23.9653 10.947 23.8986 10.4347Z" fill="#6DA544"/>
<path d="M4.69366 21.5181C6.71721 23.0735 9.2502 23.9988 11.9997 23.9988C17.544 23.9988 22.2093 20.2385 23.5863 15.1293H11.0825L4.69366 21.5181Z" fill="#0052B4"/>
<path d="M23.5863 8.86869C22.2093 3.7595 17.544 -0.000854492 11.9997 -0.000854492C9.2502 -0.000854492 6.71721 0.924505 4.69366 2.47991L11.0824 8.86869H23.5863Z" fill="#D80027"/>
</g>
<defs>
<clipPath id="clip0_15_6876">
<rect width="24" height="24" fill="white"/>
</clipPath>
</defs>
</svg>
