<svg width="48" height="48" viewBox="0 0 48 48" fill="none" xmlns="http://www.w3.org/2000/svg">
<path fill-rule="evenodd" clip-rule="evenodd" d="M15 6C12 6 0 41.9999 0 41.9999H15H18H30H33H48C48 41.9999 36 6 33 6C31.4442 6 27.4679 15.6821 24 25.004C20.5321 15.6821 16.5558 6 15 6Z" fill="url(#paint0_linear_262_6105)" fill-opacity="0.2"/>
<path d="M18 41.9999C18 41.9999 30 24 33 24C36 24 48 41.9999 48 41.9999C48 41.9999 36 41.9999 33 41.9999C30 41.9999 18 41.9999 18 41.9999Z" fill="url(#paint1_linear_262_6105)"/>
<path fill-rule="evenodd" clip-rule="evenodd" d="M18 41.9999H48C48 41.9999 47.9153 41.8728 47.7582 41.6399C46.0467 39.1017 35.7479 24 33 24C30.2521 24 19.9533 39.1017 18.2418 41.6399C18.0847 41.8728 18 41.9999 18 41.9999ZM18.6887 41.6399H47.3113C47.2661 41.5731 47.217 41.5007 47.1643 41.423C46.8309 40.9317 46.3512 40.2297 45.7661 39.3871C44.5957 37.7018 43.0046 35.4556 41.3207 33.2103C39.6354 30.9633 37.8626 28.7245 36.3279 27.0503C35.5596 26.2122 34.8594 25.5249 34.2658 25.05C33.9688 24.8124 33.7071 24.6349 33.4838 24.5185C33.255 24.3991 33.0972 24.36 33 24.36C32.9028 24.36 32.745 24.3991 32.5162 24.5185C32.2929 24.6349 32.0312 24.8124 31.7342 25.05C31.1406 25.5249 30.4404 26.2122 29.6721 27.0503C28.1374 28.7245 26.3646 30.9633 24.6793 33.2103C22.9954 35.4556 21.4043 37.7018 20.2339 39.3871C19.6488 40.2297 19.1691 40.9317 18.8357 41.423C18.783 41.5007 18.7339 41.5731 18.6887 41.6399Z" fill="#929085"/>
<path d="M0 42C0 42 12 36 15 36C18 36 30 42 30 42C30 42 18 42 15 42C12 42 0 42 0 42Z" fill="url(#paint2_linear_262_6105)"/>
<path fill-rule="evenodd" clip-rule="evenodd" d="M0.607438 41.7C0.219836 41.8901 0 42 0 42H30C30 42 29.7802 41.8901 29.3926 41.7C26.9165 40.4857 17.594 36 15 36C12.4061 36 3.08353 40.4857 0.607438 41.7ZM1.32742 41.7H28.6726C28.4394 41.5867 28.1752 41.459 27.8852 41.3197C26.7155 40.7583 25.1256 40.0101 23.4429 39.2622C21.759 38.5139 19.9878 37.7683 18.4542 37.2106C17.6872 36.9317 16.9854 36.7019 16.3873 36.5424C15.7805 36.3806 15.3122 36.3 15 36.3C14.6878 36.3 14.2195 36.3806 13.6127 36.5424C13.0146 36.7019 12.3128 36.9317 11.5458 37.2106C10.0122 37.7683 8.241 38.5139 6.55712 39.2622C4.8744 40.0101 3.28445 40.7583 2.11481 41.3197C1.82476 41.459 1.56063 41.5867 1.32742 41.7Z" fill="#929085"/>
<defs>
<linearGradient id="paint0_linear_262_6105" x1="0" y1="6" x2="0" y2="41.9999" gradientUnits="userSpaceOnUse">
<stop stop-color="#605D52" stop-opacity="0.501961"/>
<stop offset="1" stop-color="#1F1E1C" stop-opacity="0.501961"/>
</linearGradient>
<linearGradient id="paint1_linear_262_6105" x1="33" y1="24" x2="33" y2="41.9999" gradientUnits="userSpaceOnUse">
<stop stop-color="#E9E7E0"/>
<stop offset="1" stop-color="#54534F"/>
</linearGradient>
<linearGradient id="paint2_linear_262_6105" x1="15" y1="35.8287" x2="15" y2="42" gradientUnits="userSpaceOnUse">
<stop stop-color="#E9E7E0"/>
<stop offset="1" stop-color="#54534F"/>
</linearGradient>
</defs>
</svg>
