<?xml version="1.0" encoding="UTF-8"?><svg id="b" xmlns="http://www.w3.org/2000/svg" viewBox="0 0 453.55 362.83"><g id="c"><g id="d"><circle cx="396.8" cy="97.5" r="56.69" fill="#ff0"/><path d="m130.04,139.34c-.96,30.66,23.06,56.29,53.65,57.25,30.59.96,56.17-23.11,57.13-53.76.96-30.66-23.06-56.29-53.65-57.25-30.59-.96-56.17,23.11-57.13,53.76Zm92.63-1.38c-.65,20.81-18.02,37.16-38.79,36.5-20.77-.65-37.08-18.06-36.43-38.87.65-20.81,18.02-37.16,38.79-36.5,20.78.65,37.09,18.06,36.43,38.87Z" fill="#f7f5ef" fill-rule="evenodd"/><path d="m178.89,133.86c-.04,4.17,3.31,7.59,7.47,7.62,4.16.04,7.57-3.31,7.61-7.48s-3.31-7.59-7.47-7.62c-4.17-.04-7.57,3.31-7.61,7.48Z" fill="#f7f5ef" fill-rule="evenodd"/><path d="m273.21,102.18c7.91-14.2,14.49-75.11,14.49-75.11,0,0-16.81,65.56-32.08,64.64-9.89-.37-28.2-42.12-28.2-42.12,0,0,1.65,28.63,8,44.47,7.66,19.09,24.74,31.53,37.79,8.12Z" fill="#f7f5ef" fill-rule="evenodd"/><path d="m339.25,149.07c-.74-8.33-8.95-10.61-13.87-5.45-4.33,4.55-7.54,13.59-3.5,25.07,1.82,4.43,5.07,6.95,9.4,7.26.13,0,.26,0,.4.02,4.08.04,8.71-3.85,11.64-9.83,2.15-4.4,3.18-9.13,3.19-9.18l.09-.41-1.94-.57-.16.37c-1.45,3.38-6.65,12.95-11.49,12.63-3.66-.14-4.02-4.11-4.05-5.19,4.7-3.18,10.87-8.23,10.29-14.72Zm-7,7.09c-1.66,2.28-4.15,4.05-4.15,4.05-.09-3.05.6-9.95,3.69-11.69,2.28-1.12,2.74,4.51.46,7.64Z" fill="#f7f5ef" fill-rule="evenodd"/><path d="m310.07,174.25c2.03,3.44,7.59,7.47,8.76,8.29l.37.26,2.58-.85s-4.88-6.44-7.07-17.18l-3.88-39.81-1.8,1.54-3.01,29.69c-1.01-.63-2.21-.8-3.54-.5-6.57,1.48-15.82,14.93-17.05,22.56-.62,3.86,2.09,10.93,8.7,11.3,3.73.21,9.51-2.62,15.94-15.3Zm-13.5,6.29c-7.22,4.27,1.95-16.21,5.92-17.96,2.89-1.27,3.49,2.97,2.61,5.77-.73,2.39-4.97,10.09-8.53,12.19Z" fill="#f7f5ef" fill-rule="evenodd"/><path d="m45.08,248.79c13.01-5.56,27.92-12.31,43.54-20.14,0,0,1.86-3.27,2.33-4.55,0,0-20.86,1.64-44.69,7.01v-.02c2.46-34.84,22.05-58.27,35.42-66.91l-6.72-1.2c-36.43,2.89-53.61,39.9-53.37,74.76,0,0,.01.09.01.24-7.74,2.65-15.14,5.77-21.6,9.44,0,0,.64,5.51.64,9.45s-.64,9.56-.64,9.56c0,0,8.82-3,22.99-8.58,2.43,27.69,9.43,69.48,21.94,104.98h3.74s-5.69-62.99-3.59-114.04Z" fill="#f7f5ef" fill-rule="evenodd"/><path d="m129.35,288.72c1.61-10.62-48.32-44.13-53.88-29.96-6.6,16.8-8.73,98.23-8.73,98.23l5.11-2.39,18.92-79.91c19.89,14.32,23.66,10.1,5.04,30.71l-1.87,2.07c-.73.8-.94,1.95-.55,2.96l4.81,12.63c.5,1.31,1.66,2.26,3.05,2.48l38.74,7.62-33.1-20.43c6.82-6.34,21.63-15.66,22.46-24.01Z" fill="#f7f5ef" fill-rule="evenodd"/><path d="m268.52,217.81c-12.07,2.21-31.99,41.6-31.99,41.6l-11.76-30.88c-.45,29.92,4.14,68.72,4.14,68.72l8.89,4.05,29.77-58.78s1.89,14.07,14.96,44.13l2.99-1.32c-1.76-22.1.61-70.75-17-67.52Z" fill="#f7f5ef" fill-rule="evenodd"/><path d="m318.33,241.57c-8.47-25.1,30.9-49.15,30.9-49.15l-.2-3.71s-53.18,22.12-53.65,52.48c-.38,24.94,22.29,31.49,44.82,26.43,16.48-3.7,29.36-13.77,29.36-13.77l-1.36-.83s-41.74,12.67-49.87-11.45Z" fill="#f7f5ef" fill-rule="evenodd"/><path d="m385.85,231.36c-5.61-6.91-3.74-16.63-3.74-16.63,22.32-6.02,37.82-28.03,35.67-39.03-1.67-8.51-14.19-13.49-31.3-1.12-29.94,23.96-28.21,68.08-4.65,75.34,29.5,7.71,68.25-43.7,71.5-48.09.15-.2.22-.43.22-.68v-2.77c-5.52,8.54-54.52,49.2-67.7,32.98Zm20.22-50.99c6.5-.27-4.2,21.15-23.2,25.91,2.96-14.28,19.33-25.74,23.2-25.91Z" fill="#f7f5ef" fill-rule="evenodd"/><polygon points="431.77 178.89 434.48 178.88 434.48 168 437.94 168 437.94 165.66 428.31 165.68 428.31 168.01 431.77 168.01 431.77 178.89" fill="#f7f5ef" fill-rule="evenodd"/><path d="m449.86,165.64l-3.2,10.11h-.05l-3.02-10.1h-3.68v13.22h2.42v-6.15c0-.7-.06-2.11-.17-4.22h.08l3.07,10.36h2.48l3.29-10.36h.08c-.07,1.66-.11,2.69-.12,3.07s-.01.73-.01,1.02v6.25h2.52v-13.21h-3.69Z" fill="#f7f5ef" fill-rule="evenodd"/><path d="m106.38,224.81c16.38-78.86,8.6-121.07,8.38-132.29,8.34-3.51,73.32-38.05,73.32-38.05-21.32,2.58-102.7,22.62-158.57,50.83,26.69-1.9,57.3-5.29,67.45-7.04-2.76,38.57-.21,95.33,9.42,126.55Z" fill="#f7f5ef" fill-rule="evenodd"/><path d="m400.33,19.48c5.37.05,9.76-4.27,9.81-9.65.05-5.38-4.26-9.78-9.63-9.83-5.37-.05-9.76,4.27-9.81,9.65-.05,5.38,4.27,9.78,9.63,9.83Z" fill="#f7f5ef" fill-rule="evenodd"/><path d="m282.59,154.13c12.64-26.76,37.92-112.77,39.53-126.63.59-5.12,35.16-8.17,43.59-3.67,0,0-22.1,12.99-27.79,19.76-5.23,6.22-7.39,13.02,1.04,18.88,7.88,5.48,55.28,29.61,55.28,29.61l-.18-4.21-46.48-34.54c15.89-8.68,39.21-22.42,39.45-30.07.03-.18.04-.36.04-.54v-.05c-.01-.22-.03-.43-.08-.63-.84-5.73-8.94-15.08-22.11-17.96-.02,0-.04,0-.05,0-15.58-3.95-46.51-4.17-59.55,10.52-3.51,3.96-8.6,32.56-27.73,142.73l5.04-3.19Z" fill="#f7f5ef" fill-rule="evenodd"/><path d="m193.01,269.05h0s0,.01-.02.04h0c-.13.28-.78,1.65-2.28,6.18-1.73,5.22-3.48,9.9-8.01,16.75-7.79,9.79-17.94,16.95-21.43,13.66-7.68-7.03,14.66-40.15,33.72-63.62l-8.49-.98c-18.71,15.98-45.28,47.47-45.12,71.32.19,29.23,54.88,9.68,57.87-28.51,2.42,7.09,17.44,24.32,17.44,24.32,0,0-7.37-23.34-12.15-38.17-1.81-5.53-9.33-5.59-11.53-.99Z" fill="#f7f5ef" fill-rule="evenodd"/></g></g></svg>