<svg width="48" height="48" viewBox="0 0 48 48" fill="none" xmlns="http://www.w3.org/2000/svg">
<rect x="0.5" y="0.5" width="47" height="47" rx="3.5" fill="url(#paint0_linear_262_6132)"/>
<rect x="0.5" y="0.5" width="47" height="47" rx="3.5" stroke="#2A2824"/>
<path fill-rule="evenodd" clip-rule="evenodd" d="M18 12C16 12 8 35.9999 8 35.9999H18H20H28H30H40C40 35.9999 32 12 30 12C28.9628 12 26.3119 18.4547 24 24.6693C21.6881 18.4547 19.0372 12 18 12Z" fill="url(#paint1_linear_262_6132)" fill-opacity="0.2"/>
<path d="M20 36C20 36 28 24 30 24C32 24 40 36 40 36C40 36 32 36 30 36C28 36 20 36 20 36Z" fill="url(#paint2_linear_262_6132)"/>
<path fill-rule="evenodd" clip-rule="evenodd" d="M20 36H40C40 36 39.9435 35.9152 39.8388 35.76C38.6978 34.0678 31.8319 24 30 24C28.1681 24 21.3022 34.0678 20.1612 35.76C20.0565 35.9152 20 36 20 36ZM20.4591 35.76H39.5409C39.5107 35.7154 39.478 35.6671 39.4429 35.6153C39.2206 35.2878 38.9008 34.8198 38.5107 34.2581C37.7305 33.1345 36.6698 31.6371 35.5471 30.1402C34.4236 28.6422 33.2417 27.1497 32.2186 26.0335C31.7064 25.4748 31.2396 25.0166 30.8439 24.7C30.6459 24.5416 30.4714 24.4233 30.3225 24.3456C30.17 24.266 30.0648 24.24 30 24.24C29.9352 24.24 29.83 24.266 29.6775 24.3456C29.5286 24.4233 29.3541 24.5416 29.1561 24.7C28.7604 25.0166 28.2936 25.4748 27.7814 26.0335C26.7583 27.1497 25.5764 28.6422 24.4529 30.1402C23.3302 31.6371 22.2695 33.1345 21.4893 34.2581C21.0992 34.8198 20.7794 35.2878 20.5571 35.6153C20.522 35.6671 20.4893 35.7154 20.4591 35.76Z" fill="#929085"/>
<path d="M8 36C8 36 16 32 18 32C20 32 28 36 28 36C28 36 20 36 18 36C16 36 8 36 8 36Z" fill="url(#paint3_linear_262_6132)"/>
<path fill-rule="evenodd" clip-rule="evenodd" d="M8.40496 35.8C8.14656 35.9267 8 36 8 36H28C28 36 27.8534 35.9267 27.595 35.8C25.9443 34.9905 19.7293 32 18 32C16.2707 32 10.0557 34.9905 8.40496 35.8ZM8.88495 35.8H27.1151C26.9596 35.7245 26.7835 35.6393 26.5901 35.5465C25.8104 35.1722 24.7504 34.6734 23.6286 34.1748C22.506 33.6759 21.3252 33.1788 20.3028 32.8071C19.7915 32.6211 19.3236 32.4679 18.9248 32.3616C18.5204 32.2537 18.2081 32.2 18 32.2C17.7919 32.2 17.4796 32.2537 17.0752 32.3616C16.6764 32.4679 16.2085 32.6211 15.6972 32.8071C14.6748 33.1788 13.494 33.6759 12.3714 34.1748C11.2496 34.6734 10.1896 35.1722 9.40987 35.5465C9.21651 35.6393 9.04042 35.7245 8.88495 35.8Z" fill="#929085"/>
<defs>
<linearGradient id="paint0_linear_262_6132" x1="24" y1="0" x2="24" y2="48" gradientUnits="userSpaceOnUse">
<stop stop-color="#2E2D29"/>
<stop offset="1" stop-color="#1A1915"/>
</linearGradient>
<linearGradient id="paint1_linear_262_6132" x1="8" y1="12" x2="8" y2="35.9999" gradientUnits="userSpaceOnUse">
<stop stop-color="#605D52" stop-opacity="0.501961"/>
<stop offset="1" stop-color="#1F1E1C" stop-opacity="0.501961"/>
</linearGradient>
<linearGradient id="paint2_linear_262_6132" x1="30" y1="24" x2="30" y2="36" gradientUnits="userSpaceOnUse">
<stop stop-color="#E9E7E0"/>
<stop offset="1" stop-color="#54534F"/>
</linearGradient>
<linearGradient id="paint3_linear_262_6132" x1="18" y1="31.8858" x2="18" y2="36" gradientUnits="userSpaceOnUse">
<stop stop-color="#E9E7E0"/>
<stop offset="1" stop-color="#54534F"/>
</linearGradient>
</defs>
</svg>
